<svg xmlns="http://www.w3.org/2000/svg" width="27.545" height="26.828" viewBox="0 0 27.545 26.828">
  <path id="Path_667" data-name="Path 667" d="M6.855,1.824A13.09,13.09,0,0,1,13.772,0,13.865,13.865,0,0,1,20.69,1.824a14.279,14.279,0,0,1,5.031,5.031,13.245,13.245,0,0,1,1.824,6.918,13.15,13.15,0,0,1-2.641,8.05,13.73,13.73,0,0,1-6.792,4.968.775.775,0,0,1-.692-.126.8.8,0,0,1-.252-.566V22.325a3.1,3.1,0,0,0-.943-2.515,12.1,12.1,0,0,0,1.824-.314,6.441,6.441,0,0,0,1.7-.692,4.467,4.467,0,0,0,1.446-1.195,5.274,5.274,0,0,0,.943-1.887,8.776,8.776,0,0,0,.377-2.7,5.337,5.337,0,0,0-1.384-3.71A4.913,4.913,0,0,0,21,5.66a2.893,2.893,0,0,0-1.509.252,7.922,7.922,0,0,0-1.635.818l-.692.44a12.729,12.729,0,0,0-3.459-.44,12.729,12.729,0,0,0-3.459.44c-.189-.126-.44-.314-.755-.5a8.949,8.949,0,0,0-1.509-.692A2.387,2.387,0,0,0,6.54,5.66a4.626,4.626,0,0,0-.126,3.647,5.337,5.337,0,0,0-1.384,3.71,9.065,9.065,0,0,0,.377,2.7,6.61,6.61,0,0,0,.943,1.887A4.467,4.467,0,0,0,7.8,18.8a6.441,6.441,0,0,0,1.7.692,13.684,13.684,0,0,0,1.824.314,3.325,3.325,0,0,0-.88,1.824,3.113,3.113,0,0,1-.818.252,5.083,5.083,0,0,1-1.006.063,2.4,2.4,0,0,1-1.195-.377,3.593,3.593,0,0,1-1.006-1.132,3.155,3.155,0,0,0-.88-.943,2.828,2.828,0,0,0-.88-.44l-.377-.063c-.252,0-.44,0-.5.063-.126.063-.126.126-.063.189s.063.189.189.252.126.126.252.189l.126.063a2.517,2.517,0,0,1,.755.692,3.753,3.753,0,0,1,.566.943l.189.44A2.392,2.392,0,0,0,6.6,22.954,4.171,4.171,0,0,0,7.8,23.52a8.523,8.523,0,0,0,1.258.126,4.475,4.475,0,0,0,1.006-.063l.44-.063V26.1a.768.768,0,0,1-.252.566c-.189.189-.377.189-.692.126a13.73,13.73,0,0,1-6.792-4.968A12.639,12.639,0,0,1,0,13.772,13.865,13.865,0,0,1,1.824,6.855,13.326,13.326,0,0,1,6.855,1.824ZM5.22,19.747c.063-.063,0-.126-.126-.189s-.189,0-.252.063,0,.126.126.189S5.157,19.81,5.22,19.747Zm.566.629c.063-.063.063-.126-.063-.314-.126-.126-.189-.126-.314-.063-.063.063-.063.126.063.314C5.6,20.438,5.723,20.438,5.786,20.375Zm.5.755c.126-.063.126-.189,0-.314s-.189-.189-.314-.126-.126.189,0,.314C6.1,21.193,6.226,21.256,6.289,21.13Zm.755.755c.126-.126.063-.189-.063-.314s-.252-.189-.377-.063-.063.189.063.314C6.855,22.011,6.98,22.011,7.043,21.885Zm1.006.44c.063-.126-.063-.252-.252-.314s-.314,0-.314.126c-.063.126,0,.252.252.252C7.924,22.514,8.05,22.514,8.05,22.325Zm1.132.126a.22.22,0,0,0-.314-.189c-.189,0-.314.063-.314.189a.22.22,0,0,0,.314.189C9.119,22.639,9.182,22.577,9.182,22.451Zm1.069-.189c0-.126-.126-.189-.314-.189-.189.063-.252.126-.252.252s.126.189.314.126C10.188,22.451,10.251,22.388,10.251,22.262Z" fill="#adb3bc"/>
</svg>
