<svg xmlns="http://www.w3.org/2000/svg" width="27.482" height="26.287" viewBox="0 0 27.482 26.287">
  <path id="Path_663" data-name="Path 663" d="M6.6,3.081a3.143,3.143,0,0,1-.88,2.2A3.155,3.155,0,0,1,3.27,6.1h0A3.386,3.386,0,0,1,.88,5.22,2.673,2.673,0,0,1,0,3.081,2.855,2.855,0,0,1,.943.88,3.28,3.28,0,0,1,3.333,0a3.386,3.386,0,0,1,2.39.88A3.035,3.035,0,0,1,6.6,3.081ZM6.226,8.553V26.287H.314V8.553ZM27.482,16.1V26.287H21.57v-9.5a5.01,5.01,0,0,0-.755-2.956,2.639,2.639,0,0,0-2.264-1.069,2.741,2.741,0,0,0-1.887.629A4.338,4.338,0,0,0,15.533,14.9a4.476,4.476,0,0,0-.189,1.446v9.873H9.433c0-4.779.063-8.616.063-11.571V8.49h5.911v2.578h-.063c.252-.377.5-.692.755-1.006a7.567,7.567,0,0,1,1.006-.943,5.222,5.222,0,0,1,1.572-.755,7.225,7.225,0,0,1,2.075-.252,6.4,6.4,0,0,1,4.905,2.012A8.925,8.925,0,0,1,27.482,16.1Z" fill="#adb3bc"/>
</svg>
