<svg id="Slack_RGB" xmlns="http://www.w3.org/2000/svg" width="27.464" height="27.442" viewBox="0 0 27.464 27.442">
  <g id="Group_4449" data-name="Group 4449" transform="translate(0 0)">
    <g id="Group_4445" data-name="Group 4445" transform="translate(0.022 14.464)">
      <path id="Path_4334" data-name="Path 4334" d="M68.568,131.684a2.884,2.884,0,1,1-2.884-2.884h2.884Z" transform="translate(-62.8 -128.8)" fill="#adb3bc"/>
      <path id="Path_4335" data-name="Path 4335" d="M95.8,131.684a2.884,2.884,0,0,1,5.768,0v7.21a2.884,2.884,0,1,1-5.768,0Z" transform="translate(-88.59 -128.8)" fill="#adb3bc"/>
    </g>
    <g id="Group_4446" data-name="Group 4446" transform="translate(0 0)">
      <path id="Path_4336" data-name="Path 4336" d="M98.684,68.368a2.884,2.884,0,1,1,2.884-2.884v2.884Z" transform="translate(-88.568 -62.6)" fill="#adb3bc"/>
      <path id="Path_4337" data-name="Path 4337" d="M72.816,95.7a2.884,2.884,0,1,1,0,5.768H65.584a2.884,2.884,0,1,1,0-5.768Z" transform="translate(-62.7 -88.468)" fill="#adb3bc"/>
    </g>
    <g id="Group_4447" data-name="Group 4447" transform="translate(14.464 0)">
      <path id="Path_4338" data-name="Path 4338" d="M161.9,98.584a2.884,2.884,0,1,1,2.884,2.884H161.9Z" transform="translate(-154.69 -88.468)" fill="#adb3bc"/>
      <path id="Path_4339" data-name="Path 4339" d="M134.668,72.716a2.884,2.884,0,1,1-5.768,0V65.484a2.884,2.884,0,0,1,5.768,0Z" transform="translate(-128.9 -62.6)" fill="#adb3bc"/>
    </g>
    <g id="Group_4448" data-name="Group 4448" transform="translate(14.464 14.464)">
      <path id="Path_4340" data-name="Path 4340" d="M131.784,161.8a2.884,2.884,0,1,1-2.884,2.884V161.8Z" transform="translate(-128.9 -154.59)" fill="#adb3bc"/>
      <path id="Path_4341" data-name="Path 4341" d="M131.784,134.568a2.884,2.884,0,0,1,0-5.768h7.232a2.884,2.884,0,0,1,0,5.768Z" transform="translate(-128.9 -128.8)" fill="#adb3bc"/>
    </g>
  </g>
</svg>
