<svg xmlns="http://www.w3.org/2000/svg" width="28.236" height="23.017" viewBox="0 0 28.236 23.017">
  <path id="Path_665" data-name="Path 665" d="M28.236,2.7a13.19,13.19,0,0,1-2.893,3.019v.755a17.025,17.025,0,0,1-.692,4.654A15.961,15.961,0,0,1,22.577,15.6a15.963,15.963,0,0,1-3.333,3.773,17.2,17.2,0,0,1-4.591,2.641,17.466,17.466,0,0,1-5.786,1.006A17.066,17.066,0,0,1,0,20.313a9.737,9.737,0,0,0,1.384.063,11.26,11.26,0,0,0,7.169-2.453,5.519,5.519,0,0,1-3.4-1.132A5.915,5.915,0,0,1,3.144,13.9a6.467,6.467,0,0,0,1.069.063,6.2,6.2,0,0,0,1.509-.189A5.622,5.622,0,0,1,2.39,11.76,5.541,5.541,0,0,1,1.069,8.112V8.05a6.978,6.978,0,0,0,2.7.755A5.479,5.479,0,0,1,1.887,6.729a5.178,5.178,0,0,1-.692-2.767,5.166,5.166,0,0,1,.818-2.893A16.671,16.671,0,0,0,7.295,5.345a16.153,16.153,0,0,0,6.666,1.761,4.708,4.708,0,0,1-.126-1.321,5.606,5.606,0,0,1,1.7-4.088A5.329,5.329,0,0,1,19.5,0a5.565,5.565,0,0,1,4.213,1.824A10.691,10.691,0,0,0,27.356.44,5.563,5.563,0,0,1,24.84,3.647,11.452,11.452,0,0,0,28.236,2.7Z" fill="#adb3bc"/>
</svg>
