<svg xmlns="http://www.w3.org/2000/svg" width="31.581" height="22.25" viewBox="0 0 31.581 22.25">
  <path id="Path_1" data-name="Path 1" d="M38.921,37.474a3.968,3.968,0,0,0-2.792-2.81C33.666,34,23.791,34,23.791,34s-9.876,0-12.339.664a3.968,3.968,0,0,0-2.792,2.81A41.623,41.623,0,0,0,8,45.125a41.623,41.623,0,0,0,.66,7.651,3.968,3.968,0,0,0,2.792,2.81c2.463.664,12.339.664,12.339.664s9.876,0,12.339-.664a3.968,3.968,0,0,0,2.792-2.81,41.624,41.624,0,0,0,.66-7.651A41.624,41.624,0,0,0,38.921,37.474ZM20.561,49.821V40.429l8.254,4.7Z" transform="translate(-8 -34)" fill="#adb3bc"/>
</svg>
