<svg xmlns="http://www.w3.org/2000/svg" width="477.925" height="477.925" viewBox="0 0 477.925 477.925">
  <path id="Bee_path_2" data-name="Bee path 2" d="M-10104.929,738.569c-2.319,0-4.616-.041-6.87-.122a1.5,1.5,0,0,1-1.445-1.553,1.5,1.5,0,0,1,1.5-1.446h.055c3.875.139,7.879.157,11.9.053h.039a1.5,1.5,0,0,1,1.5,1.461,1.5,1.5,0,0,1-1.46,1.538Q-10102.329,738.569-10104.929,738.569Zm22.148-1.175a1.5,1.5,0,0,1-1.49-1.347,1.5,1.5,0,0,1,1.339-1.645c3.86-.4,7.84-.9,11.83-1.5a1.506,1.506,0,0,1,.225-.017,1.5,1.5,0,0,1,1.481,1.277,1.5,1.5,0,0,1-1.261,1.706c-4.036.606-8.062,1.117-11.969,1.518A1.5,1.5,0,0,1-10082.78,737.395Zm-45.891-.38a1.51,1.51,0,0,1-.2-.014c-4.038-.55-8.052-1.256-11.929-2.1a1.5,1.5,0,0,1-1.147-1.784,1.5,1.5,0,0,1,1.784-1.148c3.8.825,7.736,1.518,11.7,2.057a1.5,1.5,0,0,1,1.284,1.689A1.5,1.5,0,0,1-10128.671,737.015Zm74.506-4.15a1.5,1.5,0,0,1-1.467-1.192,1.5,1.5,0,0,1,1.16-1.776c3.812-.8,7.733-1.7,11.658-2.667a1.5,1.5,0,0,1,1.816,1.1,1.5,1.5,0,0,1-1.1,1.816c-3.959.979-7.916,1.884-11.762,2.691A1.5,1.5,0,0,1-10054.165,732.865Zm-102.684-2.515a1.5,1.5,0,0,1-.492-.083c-3.814-1.325-7.605-2.833-11.266-4.482a1.5,1.5,0,0,1-.751-1.984,1.5,1.5,0,0,1,1.983-.751c3.58,1.612,7.286,3.087,11.018,4.384a1.5,1.5,0,0,1,.925,1.909A1.5,1.5,0,0,1-10156.849,730.35Zm-26.161-12.374a1.494,1.494,0,0,1-.781-.221c-3.4-2.079-6.785-4.353-10.063-6.76a1.5,1.5,0,0,1-.321-2.1,1.5,1.5,0,0,1,2.1-.321c3.211,2.357,6.526,4.584,9.854,6.619a1.5,1.5,0,0,1,.5,2.062A1.5,1.5,0,0,1-10183.01,717.976Zm-23.075-17.488a1.5,1.5,0,0,1-1.013-.394c-2.9-2.654-5.8-5.5-8.638-8.471a1.5,1.5,0,0,1,.049-2.121,1.5,1.5,0,0,1,2.12.048c2.789,2.919,5.647,5.722,8.5,8.331a1.5,1.5,0,0,1,.093,2.119A1.5,1.5,0,0,1-10206.085,700.487Zm-19.791-21.161a1.5,1.5,0,0,1-1.164-.553c-2.448-3.007-4.938-6.214-7.4-9.531a1.5,1.5,0,0,1,.311-2.1,1.5,1.5,0,0,1,2.1.311c2.435,3.281,4.9,6.452,7.316,9.424a1.5,1.5,0,0,1-.216,2.11A1.494,1.494,0,0,1-10225.876,679.327ZM-10243,655.936a1.5,1.5,0,0,1-1.249-.668c-2.142-3.209-4.282-6.514-6.546-10.1a1.5,1.5,0,0,1,.469-2.069,1.5,1.5,0,0,1,2.068.469c2.25,3.568,4.377,6.851,6.5,10.038a1.5,1.5,0,0,1-.415,2.08A1.492,1.492,0,0,1-10243,655.936Zm-15.4-24.57a1.5,1.5,0,0,1-1.289-.731c-1.839-3.08-3.779-6.368-6.106-10.346a1.5,1.5,0,0,1,.537-2.052,1.5,1.5,0,0,1,2.052.537c2.323,3.971,4.259,7.251,6.093,10.323a1.5,1.5,0,0,1-.519,2.057A1.494,1.494,0,0,1-10258.4,631.366Zm-14.657-25.024a1.5,1.5,0,0,1-1.3-.745c-2.418-4.147-4.291-7.335-6.071-10.338a1.5,1.5,0,0,1,.524-2.055,1.5,1.5,0,0,1,2.056.525c1.785,3.01,3.661,6.2,6.083,10.357a1.5,1.5,0,0,1-.54,2.051A1.493,1.493,0,0,1-10273.057,606.342Zm-14.895-24.881a1.5,1.5,0,0,1-1.273-.706c-2.245-3.6-4.355-6.894-6.452-10.075a1.5,1.5,0,0,1,.427-2.078,1.5,1.5,0,0,1,2.077.427c2.111,3.2,4.235,6.518,6.493,10.139a1.5,1.5,0,0,1-.479,2.067A1.494,1.494,0,0,1-10287.951,581.46Zm-16.16-24.075a1.5,1.5,0,0,1-1.211-.613c-2.426-3.306-4.872-6.487-7.271-9.455a1.5,1.5,0,0,1,.224-2.109,1.5,1.5,0,0,1,2.109.223c2.429,3,4.9,6.223,7.357,9.566a1.5,1.5,0,0,1-.322,2.1A1.493,1.493,0,0,1-10304.111,557.386Zm-18.524-22.285a1.5,1.5,0,0,1-1.083-.462c-2.8-2.922-5.668-5.71-8.524-8.287a1.5,1.5,0,0,1-.109-2.119,1.5,1.5,0,0,1,2.118-.109c2.91,2.625,5.832,5.464,8.682,8.439a1.5,1.5,0,0,1-.045,2.121A1.5,1.5,0,0,1-10322.636,535.1Zm-21.866-18.981a1.5,1.5,0,0,1-.862-.273c-3.256-2.291-6.621-4.43-10-6.356a1.5,1.5,0,0,1-.561-2.046,1.5,1.5,0,0,1,2.046-.561c3.463,1.973,6.909,4.164,10.243,6.509a1.5,1.5,0,0,1,.364,2.09A1.5,1.5,0,0,1-10344.5,516.119Zm-25.435-13.778a1.494,1.494,0,0,1-.55-.105c-3.641-1.437-7.417-2.714-11.223-3.794a1.5,1.5,0,0,1-1.033-1.853,1.5,1.5,0,0,1,1.853-1.033c3.9,1.107,7.771,2.416,11.5,3.89a1.5,1.5,0,0,1,.844,1.946A1.5,1.5,0,0,1-10369.937,502.341Zm-97.449-2.952a1.5,1.5,0,0,1-1.461-1.163,1.5,1.5,0,0,1,1.125-1.8c3.991-.921,7.972-1.745,11.831-2.452a1.5,1.5,0,0,1,.271-.025,1.5,1.5,0,0,1,1.474,1.23,1.5,1.5,0,0,1-1.205,1.745c-3.814.7-7.75,1.513-11.7,2.424A1.5,1.5,0,0,1-10467.386,499.389Zm69.473-4.422a1.5,1.5,0,0,1-.218-.016c-3.833-.558-7.806-.965-11.809-1.209a1.5,1.5,0,0,1-1.406-1.589,1.5,1.5,0,0,1,1.5-1.409l.093,0c4.086.249,8.143.665,12.058,1.235a1.5,1.5,0,0,1,1.269,1.7A1.5,1.5,0,0,1-10397.913,494.967Zm-40.884-.46a1.5,1.5,0,0,1-1.489-1.343,1.5,1.5,0,0,1,1.334-1.649c4.076-.43,8.132-.733,12.056-.9h.064a1.5,1.5,0,0,1,1.5,1.436,1.5,1.5,0,0,1-1.435,1.562c-3.86.164-7.854.462-11.868.886A1.511,1.511,0,0,1-10438.8,494.507Z" transform="translate(-6577.778 7924.867) rotate(135)" fill="#6ac7f0"/>
</svg>
