<svg xmlns="http://www.w3.org/2000/svg" width="597.58" height="162.555" viewBox="0 0 597.58 162.555">
  <path id="Bee_Path_1" data-name="Bee Path 1" d="M-10211.376,781.437a1.5,1.5,0,0,1-1.49-1.35,1.5,1.5,0,0,1,1.343-1.642,18.343,18.343,0,0,0,9.938-4.556,1.5,1.5,0,0,1,2.113.183,1.5,1.5,0,0,1-.183,2.113,21.272,21.272,0,0,1-11.569,5.245C-10211.275,781.435-10211.325,781.437-10211.376,781.437Zm-15.192-6.239a1.5,1.5,0,0,1-1.067-.446,37.166,37.166,0,0,1-7-10.293,1.5,1.5,0,0,1,.715-2,1.5,1.5,0,0,1,2,.715,34.182,34.182,0,0,0,6.421,9.468,1.5,1.5,0,0,1-.015,2.121A1.5,1.5,0,0,1-10226.568,775.2Zm35.636-12.386a1.508,1.508,0,0,1-.406-.056,1.5,1.5,0,0,1-1.039-1.849,10.121,10.121,0,0,0-2.222-9.829,1.5,1.5,0,0,1,.184-2.113,1.5,1.5,0,0,1,2.113.183,13.094,13.094,0,0,1,2.813,12.569A1.5,1.5,0,0,1-10190.933,762.812Zm-47.021-13.774a1.5,1.5,0,0,1-1.483-1.294,76.008,76.008,0,0,1-.672-12.209,1.5,1.5,0,0,1,1.5-1.465h.035a1.5,1.5,0,0,1,1.465,1.535,72.933,72.933,0,0,0,.645,11.725,1.5,1.5,0,0,1-1.279,1.692A1.514,1.514,0,0,1-10237.953,749.038Zm30.3-6.51a1.5,1.5,0,0,1-.573-.114,114.524,114.524,0,0,0-11.18-3.875,1.5,1.5,0,0,1-1.014-1.864,1.5,1.5,0,0,1,1.438-1.075,1.5,1.5,0,0,1,.426.062,117.691,117.691,0,0,1,11.477,3.98,1.5,1.5,0,0,1,.813,1.959A1.5,1.5,0,0,1-10207.648,742.527Zm-27.816-8.066a1.513,1.513,0,0,1-.319-.034c-3.626-.784-7.565-1.57-11.71-2.334a1.5,1.5,0,0,1-1.2-1.747,1.5,1.5,0,0,1,1.747-1.2c4.175.77,8.145,1.561,11.8,2.352a1.5,1.5,0,0,1,1.148,1.783A1.5,1.5,0,0,1-10235.465,734.461Zm-28.53-5.171a1.512,1.512,0,0,1-.231-.018c-3.744-.58-7.729-1.168-11.844-1.746a1.5,1.5,0,0,1-1.277-1.694,1.5,1.5,0,0,1,1.483-1.291,1.5,1.5,0,0,1,.211.015c4.129.581,8.128,1.17,11.886,1.752a1.5,1.5,0,0,1,1.253,1.712A1.5,1.5,0,0,1-10264,729.29Zm-28.711-3.986a1.518,1.518,0,0,1-.189-.012c-3.8-.478-7.808-.966-11.914-1.451a1.5,1.5,0,0,1-1.313-1.665,1.5,1.5,0,0,1,1.665-1.314c4.114.486,8.131.975,11.937,1.453a1.5,1.5,0,0,1,1.3,1.676A1.5,1.5,0,0,1-10292.706,725.3Zm-28.807-3.37a1.51,1.51,0,0,1-.165-.009c-3.816-.418-7.827-.849-11.922-1.279a1.5,1.5,0,0,1-1.335-1.649,1.5,1.5,0,0,1,1.489-1.343,1.525,1.525,0,0,1,.159.008c4.1.431,8.114.861,11.935,1.28a1.5,1.5,0,0,1,1.328,1.655A1.5,1.5,0,0,1-10321.513,721.935Zm84.968-1.712a1.506,1.506,0,0,1-.32-.035,1.5,1.5,0,0,1-1.146-1.785,104.916,104.916,0,0,1,3.289-11.716,1.5,1.5,0,0,1,1.905-.931,1.5,1.5,0,0,1,.932,1.906,101.831,101.831,0,0,0-3.194,11.379A1.5,1.5,0,0,1-10236.545,720.223Zm-113.809-1.3c-.05,0-.1,0-.151-.008-3.823-.383-7.84-.779-11.938-1.177a1.5,1.5,0,0,1-1.348-1.638,1.5,1.5,0,0,1,1.639-1.348c4.1.4,8.12.8,11.946,1.178a1.5,1.5,0,0,1,1.343,1.642A1.5,1.5,0,0,1-10350.354,718.923Zm-28.878-2.854a1.517,1.517,0,0,1-.168-.009c-4-.446-8.026-.955-11.953-1.511a1.5,1.5,0,0,1-1.274-1.7,1.5,1.5,0,0,1,1.483-1.289,1.5,1.5,0,0,1,.212.015c3.9.553,7.889,1.057,11.864,1.5a1.5,1.5,0,0,1,1.324,1.657A1.5,1.5,0,0,1-10379.231,716.069Zm-28.683-4.266a1.512,1.512,0,0,1-.279-.026c-3.959-.744-7.928-1.559-11.8-2.423a1.5,1.5,0,0,1-1.138-1.791,1.5,1.5,0,0,1,1.791-1.137c3.837.856,7.773,1.664,11.7,2.4a1.5,1.5,0,0,1,1.2,1.751A1.5,1.5,0,0,1-10407.914,711.8Zm437-5.469a1.5,1.5,0,0,1-1.351-.846c-1.742-3.591-3.641-7.1-5.643-10.433A1.5,1.5,0,0,1-9977.4,693a1.5,1.5,0,0,1,2.059.513c2.048,3.408,3.989,7,5.771,10.669a1.5,1.5,0,0,1-.694,2A1.5,1.5,0,0,1-9970.918,706.334Zm-465.243-1.057a1.5,1.5,0,0,1-.4-.055c-3.883-1.074-7.77-2.228-11.55-3.429a1.5,1.5,0,0,1-.976-1.884,1.5,1.5,0,0,1,1.43-1.046,1.5,1.5,0,0,1,.454.071c3.745,1.19,7.595,2.333,11.441,3.4a1.5,1.5,0,0,1,1.046,1.846A1.5,1.5,0,0,1-10436.161,705.277Zm-27.549-9.011a1.5,1.5,0,0,1-.534-.1c-3.77-1.436-7.531-2.961-11.181-4.531a1.5,1.5,0,0,1-.785-1.971,1.5,1.5,0,0,1,1.971-.785c3.61,1.553,7.333,3.062,11.063,4.484a1.5,1.5,0,0,1,.867,1.936A1.5,1.5,0,0,1-10463.71,696.265Zm237.1-3.2a1.491,1.491,0,0,1-.686-.167,1.5,1.5,0,0,1-.646-2.021c1.815-3.521,3.85-7.059,6.048-10.516a1.5,1.5,0,0,1,2.07-.461,1.5,1.5,0,0,1,.461,2.071c-2.149,3.381-4.139,6.84-5.912,10.28A1.5,1.5,0,0,1-10226.61,693.066Zm-263.619-8.508a1.5,1.5,0,0,1-.678-.163c-3.6-1.826-7.179-3.747-10.637-5.711a1.5,1.5,0,0,1-.563-2.045,1.5,1.5,0,0,1,2.045-.564c3.417,1.94,6.954,3.839,10.513,5.644a1.5,1.5,0,0,1,.659,2.016A1.5,1.5,0,0,1-10490.229,684.558Zm503.889-2.709a1.5,1.5,0,0,1-1.168-.559,116.789,116.789,0,0,0-7.891-8.831,1.5,1.5,0,0,1,.011-2.121,1.5,1.5,0,0,1,2.121.01,119.575,119.575,0,0,1,8.094,9.059,1.5,1.5,0,0,1-.227,2.109A1.493,1.493,0,0,1-9986.341,681.849Zm-528.94-11.872a1.494,1.494,0,0,1-.83-.251c-3.367-2.241-6.69-4.58-9.877-6.953a1.5,1.5,0,0,1-.307-2.1,1.5,1.5,0,0,1,2.1-.307c3.144,2.341,6.423,4.65,9.747,6.861a1.5,1.5,0,0,1,.418,2.08A1.5,1.5,0,0,1-10515.281,669.977Zm305.581-.093a1.5,1.5,0,0,1-1.215-.619,1.5,1.5,0,0,1,.332-2.1c3.148-2.286,6.555-4.533,10.125-6.678a1.5,1.5,0,0,1,2.058.513,1.5,1.5,0,0,1-.513,2.058c-3.5,2.1-6.829,4.3-9.906,6.533A1.5,1.5,0,0,1-10209.7,669.884Zm202.563-8.144a1.492,1.492,0,0,1-.9-.3,117.5,117.5,0,0,0-9.819-6.619,1.5,1.5,0,0,1-.51-2.059,1.5,1.5,0,0,1,2.059-.51,120.369,120.369,0,0,1,10.071,6.789,1.5,1.5,0,0,1,.3,2.1A1.5,1.5,0,0,1-10007.137,661.74Zm-177.551-6.442a1.5,1.5,0,0,1-1.357-.861,1.5,1.5,0,0,1,.718-2c3.577-1.686,7.311-3.3,11.1-4.811a1.5,1.5,0,0,1,1.948.839,1.5,1.5,0,0,1-.839,1.948c-3.729,1.484-7.4,3.078-10.927,4.738A1.492,1.492,0,0,1-10184.687,655.3Zm-353.616-2.911a1.494,1.494,0,0,1-.99-.373c-3.064-2.693-6.036-5.473-8.832-8.262a1.5,1.5,0,0,1,0-2.121,1.5,1.5,0,0,1,2.121,0c2.752,2.744,5.677,5.48,8.694,8.133a1.5,1.5,0,0,1,.137,2.117A1.5,1.5,0,0,1-10538.3,652.387Zm506.107-5.1a1.493,1.493,0,0,1-.593-.123c-3.575-1.541-7.309-2.954-11.095-4.2a1.5,1.5,0,0,1-.956-1.894,1.5,1.5,0,0,1,1.894-.956c3.871,1.274,7.688,2.719,11.344,4.294a1.5,1.5,0,0,1,.784,1.971A1.5,1.5,0,0,1-10032.2,647.284Zm-125.448-2.4a1.5,1.5,0,0,1-1.434-1.059,1.5,1.5,0,0,1,.992-1.875c3.821-1.175,7.737-2.264,11.64-3.235a1.51,1.51,0,0,1,.363-.045,1.5,1.5,0,0,1,1.455,1.138,1.5,1.5,0,0,1-1.094,1.818c-3.85.958-7.713,2.032-11.481,3.192A1.505,1.505,0,0,1-10157.645,644.886Zm97.809-6.206a1.5,1.5,0,0,1-.3-.031c-3.815-.784-7.76-1.442-11.725-1.956a1.5,1.5,0,0,1-1.295-1.68,1.5,1.5,0,0,1,1.485-1.307,1.506,1.506,0,0,1,.194.013c4.038.523,8.057,1.193,11.943,1.992a1.5,1.5,0,0,1,1.168,1.771A1.5,1.5,0,0,1-10059.836,638.681Zm-69.611-.479a1.5,1.5,0,0,1-1.478-1.251,1.5,1.5,0,0,1,1.229-1.729c3.975-.671,8-1.236,11.965-1.681a1.538,1.538,0,0,1,.17-.009,1.5,1.5,0,0,1,1.488,1.333,1.5,1.5,0,0,1-1.323,1.658c-3.91.439-7.881,1-11.8,1.658A1.517,1.517,0,0,1-10129.447,638.2Zm40.837-2.855h-.051c-3.908-.129-7.913-.136-11.905-.019h-.044a1.5,1.5,0,0,1-1.5-1.456,1.5,1.5,0,0,1,1.455-1.543c4.055-.118,8.122-.112,12.092.019a1.5,1.5,0,0,1,1.45,1.549A1.5,1.5,0,0,1-10088.61,635.347Zm-469.868-3.752a1.5,1.5,0,0,1-1.166-.556,88.21,88.21,0,0,1-7.15-9.9,1.5,1.5,0,0,1,.54-2.051,1.5,1.5,0,0,1,2.052.54h0a87.306,87.306,0,0,0,6.89,9.524,1.5,1.5,0,0,1-.222,2.11A1.493,1.493,0,0,1-10558.479,631.595Z" transform="translate(10566.999 -618.882)" fill="#6ac7f0"/>
</svg>
