<svg xmlns="http://www.w3.org/2000/svg" xmlns:xlink="http://www.w3.org/1999/xlink" width="549.452" height="301.955" viewBox="0 0 549.452 301.955">
  <defs>
    <clipPath id="clip-path">
      <rect id="Rectangle_10271" data-name="Rectangle 10271" width="194.036" height="111.045" fill="none"/>
    </clipPath>
  </defs>
  <g id="Build_illustration" data-name="Build illustration" transform="translate(-167.16 -701.94)">
    <g id="Group_27453" data-name="Group 27453" transform="translate(297.949 715.221)">
      <g id="Group_28693" data-name="Group 28693" transform="translate(128.314 0)">
        <g id="Group_28699" data-name="Group 28699" transform="translate(19.393 85.189)">
          <path id="Path_74810" data-name="Path 74810" d="M2644.341,1005.844a14.324,14.324,0,0,0-.987-2.338l3.82-4.861a20.2,20.2,0,0,0-5.115-5.043l-4.761,3.906a14.234,14.234,0,0,0-2.349-.96l-.736-6.137a20.13,20.13,0,0,0-7.182.047l-.6,6.13a14.056,14.056,0,0,0-2.335.987l-4.861-3.817a20.219,20.219,0,0,0-5.045,5.109l3.908,4.764a14.025,14.025,0,0,0-.96,2.346l-6.138.738a20.071,20.071,0,0,0,.049,7.182l6.13.6a13.833,13.833,0,0,0,.986,2.336l-3.82,4.862a20.134,20.134,0,0,0,5.113,5.042l4.763-3.906a14.253,14.253,0,0,0,2.347.961l.737,6.139a20.208,20.208,0,0,0,7.182-.049l.606-6.132a13.793,13.793,0,0,0,2.334-.985l4.863,3.82a20.2,20.2,0,0,0,5.045-5.115l-3.91-4.761a13.988,13.988,0,0,0,.963-2.347l6.136-.737a20.161,20.161,0,0,0-.049-7.182Zm-13.526,12.477a8.148,8.148,0,1,1,8.089-8.206,8.15,8.15,0,0,1-8.089,8.206" transform="translate(-2610.07 -989.486)" fill="#0c335b"/>
          <path id="Path_74811" data-name="Path 74811" d="M2732.3,1102.946h-.066a8.774,8.774,0,0,0,.061,17.548h.063a8.774,8.774,0,0,0-.059-17.548m-.061.626h0Zm5.413,13.428a7.467,7.467,0,0,1-5.3,2.241h-.054a7.522,7.522,0,0,1-.052-15.043h0a7.521,7.521,0,0,1,5.409,12.8" transform="translate(-2711.612 -1091.033)" fill="#0c335b"/>
          <path id="Path_74812" data-name="Path 74812" d="M2644.9,1000.191l-5.725-.564a14.96,14.96,0,0,0-.711-1.683l3.572-4.545a.626.626,0,0,0,.02-.747,20.74,20.74,0,0,0-5.273-5.2.626.626,0,0,0-.75.033l-4.448,3.649a15.022,15.022,0,0,0-1.691-.691l-.689-5.739a.625.625,0,0,0-.513-.542,20.749,20.749,0,0,0-7.406.049.627.627,0,0,0-.507.554l-.564,5.726a14.761,14.761,0,0,0-1.681.711l-4.545-3.569a.626.626,0,0,0-.747-.02,20.75,20.75,0,0,0-5.2,5.267.626.626,0,0,0,.032.751l3.651,4.45a14.712,14.712,0,0,0-.692,1.689l-5.74.69a.626.626,0,0,0-.542.515,20.695,20.695,0,0,0,.05,7.405.626.626,0,0,0,.554.508l5.725.564a14.523,14.523,0,0,0,.711,1.682l-3.571,4.545a.627.627,0,0,0-.02.747,20.672,20.672,0,0,0,5.272,5.2.626.626,0,0,0,.75-.033l4.449-3.648a14.9,14.9,0,0,0,1.69.692l.688,5.741a.626.626,0,0,0,.515.542,21.008,21.008,0,0,0,3.567.307h.145a20.94,20.94,0,0,0,3.692-.357.627.627,0,0,0,.508-.554l.566-5.728a14.466,14.466,0,0,0,1.68-.71l4.546,3.572a.626.626,0,0,0,.747.02,20.75,20.75,0,0,0,5.2-5.274.627.627,0,0,0-.033-.751l-3.652-4.447a14.8,14.8,0,0,0,.694-1.691l5.738-.689a.626.626,0,0,0,.542-.513,20.767,20.767,0,0,0-.051-7.407.625.625,0,0,0-.554-.507m-.555,7.24-5.668.681a.626.626,0,0,0-.524.438,13.435,13.435,0,0,1-.92,2.242.626.626,0,0,0,.072.686l3.608,4.394a19.478,19.478,0,0,1-4.243,4.3l-4.492-3.529a.625.625,0,0,0-.681-.06,13.227,13.227,0,0,1-2.229.94.627.627,0,0,0-.435.536l-.559,5.659a19.574,19.574,0,0,1-6.041.04l-.68-5.67a.626.626,0,0,0-.437-.524,13.648,13.648,0,0,1-2.244-.919.626.626,0,0,0-.685.072l-4.4,3.6a19.409,19.409,0,0,1-4.3-4.24l3.528-4.49a.627.627,0,0,0,.061-.681,13.287,13.287,0,0,1-.942-2.231.626.626,0,0,0-.536-.435l-5.657-.557a19.423,19.423,0,0,1-.04-6.041l5.67-.682a.626.626,0,0,0,.524-.439,13.487,13.487,0,0,1,.917-2.241.626.626,0,0,0-.072-.685l-3.606-4.4a19.494,19.494,0,0,1,4.243-4.3l4.491,3.526a.626.626,0,0,0,.681.06,13.464,13.464,0,0,1,2.231-.943.626.626,0,0,0,.433-.535l.558-5.657a19.5,19.5,0,0,1,6.04-.039l.68,5.669a.626.626,0,0,0,.438.524,13.668,13.668,0,0,1,2.245.918.626.626,0,0,0,.684-.073l4.394-3.6a19.473,19.473,0,0,1,4.3,4.241l-3.529,4.49a.626.626,0,0,0-.061.68,13.725,13.725,0,0,1,.944,2.236.626.626,0,0,0,.535.432l5.655.557a19.561,19.561,0,0,1,.041,6.04" transform="translate(-2604.436 -983.853)" fill="#0c335b"/>
        </g>
        <g id="Group_28695" data-name="Group 28695" transform="translate(216.428 110.189)">
          <path id="Path_74817" data-name="Path 74817" d="M4598.386,1243.042l-3.248-.19c-.1-.238-.207-.471-.325-.7l1.917-2.65a.65.65,0,0,0-.009-.775,12.647,12.647,0,0,0-3.336-3.041.65.65,0,0,0-.776.065l-2.432,2.161q-.354-.145-.724-.261l-.518-3.231a.65.65,0,0,0-.556-.542,12.631,12.631,0,0,0-4.506.209.65.65,0,0,0-.5.6l-.192,3.248q-.357.149-.7.326l-2.65-1.919a.65.65,0,0,0-.775.01,12.651,12.651,0,0,0-3.041,3.334.651.651,0,0,0,.065.777l2.162,2.433c-.1.236-.184.478-.26.724l-3.229.518a.65.65,0,0,0-.542.556,12.661,12.661,0,0,0,.206,4.505.65.65,0,0,0,.6.5l3.249.192q.149.358.325.7l-1.917,2.651a.65.65,0,0,0,.01.776,12.628,12.628,0,0,0,3.333,3.039.651.651,0,0,0,.778-.065l2.432-2.162q.352.144.724.261l.518,3.23a.65.65,0,0,0,.556.542,12.766,12.766,0,0,0,1.682.112,12.559,12.559,0,0,0,2.824-.321.65.65,0,0,0,.5-.6l.192-3.248q.357-.148.7-.325l2.651,1.919a.65.65,0,0,0,.777-.011,12.687,12.687,0,0,0,3.039-3.334.65.65,0,0,0-.064-.777l-2.162-2.433q.145-.353.261-.723l3.23-.518a.65.65,0,0,0,.542-.556,12.629,12.629,0,0,0-.209-4.508.649.649,0,0,0-.6-.5m-.431,4.362-3.151.5a.649.649,0,0,0-.526.477,7.6,7.6,0,0,1-.473,1.308.65.65,0,0,0,.1.709l2.107,2.373a11.365,11.365,0,0,1-2.086,2.287l-2.583-1.871a.651.651,0,0,0-.708-.036,7.837,7.837,0,0,1-1.265.589.651.651,0,0,0-.427.573l-.187,3.167a11.289,11.289,0,0,1-3.091.143l-.5-3.15a.651.651,0,0,0-.477-.526,7.651,7.651,0,0,1-1.31-.473.65.65,0,0,0-.709.1l-2.371,2.107a11.6,11.6,0,0,1-1.21-.96,11.478,11.478,0,0,1-1.076-1.126l1.87-2.584a.65.65,0,0,0,.035-.709,7.737,7.737,0,0,1-.589-1.263.65.65,0,0,0-.573-.428l-3.167-.187a11.318,11.318,0,0,1-.141-3.091l3.149-.505a.65.65,0,0,0,.526-.477,7.759,7.759,0,0,1,.473-1.311.651.651,0,0,0-.1-.708l-2.107-2.371a11.335,11.335,0,0,1,2.086-2.286l2.583,1.87a.65.65,0,0,0,.708.035,7.876,7.876,0,0,1,1.266-.59.651.651,0,0,0,.427-.573l.187-3.166a11.311,11.311,0,0,1,3.091-.143l.5,3.15a.65.65,0,0,0,.476.526,7.9,7.9,0,0,1,1.314.474.65.65,0,0,0,.707-.1l2.371-2.107a11.423,11.423,0,0,1,2.287,2.085l-1.871,2.583a.653.653,0,0,0-.035.708,7.65,7.65,0,0,1,.588,1.264.651.651,0,0,0,.574.429l3.167.185a11.329,11.329,0,0,1,.144,3.093" transform="translate(-4574.097 -1233.769)" fill="#2196c9"/>
          <path id="Path_74818" data-name="Path 74818" d="M4654.257,1306.154a5.507,5.507,0,1,0,1.791,3.814,5.473,5.473,0,0,0-1.791-3.814m-7.3.8h0Zm6.7,6.1a4.205,4.205,0,1,1-6.217-5.664h0a4.175,4.175,0,0,1,2.913-1.369q.1,0,.2,0a4.206,4.206,0,0,1,3.1,7.038" transform="translate(-4637.946 -1297.62)" fill="#2196c9"/>
        </g>
        <g id="Group_28696" data-name="Group 28696" transform="translate(179.971 83.271)">
          <path id="Path_74819" data-name="Path 74819" d="M4249.721,988.178l4.984-3.359a20.022,20.022,0,0,0-3.293-6.325l-5.575,2.194a14.17,14.17,0,0,0-2.022-1.7l1.151-5.9a20.038,20.038,0,0,0-6.8-2.145l-2.389,5.491a14.031,14.031,0,0,0-2.633.225l-3.358-4.985a19.842,19.842,0,0,0-3.316,1.365,20.1,20.1,0,0,0-3.01,1.927l2.2,5.577a14.1,14.1,0,0,0-1.7,2.021l-5.9-1.15a20.018,20.018,0,0,0-2.144,6.8l5.491,2.39a14.185,14.185,0,0,0,.225,2.633l-4.985,3.356a20.078,20.078,0,0,0,3.293,6.328l5.576-2.195a14.1,14.1,0,0,0,2.021,1.7l-1.151,5.9a20.042,20.042,0,0,0,6.8,2.144l2.389-5.492a14.048,14.048,0,0,0,2.634-.224l3.357,4.986a20.21,20.21,0,0,0,6.326-3.294l-2.195-5.576a14.254,14.254,0,0,0,1.7-2.021l5.9,1.151a20.034,20.034,0,0,0,2.143-6.8l-5.491-2.389a14.3,14.3,0,0,0-.224-2.632m-10.309,9.709a8.093,8.093,0,1,1,3.437-10.917,8.095,8.095,0,0,1-3.437,10.917" transform="translate(-4215.282 -970.319)" fill="#0f7fb1"/>
          <path id="Path_74820" data-name="Path 74820" d="M4330.981,1082.371h0a8.719,8.719,0,1,0,11.76,3.7,8.66,8.66,0,0,0-11.76-3.7m.291.555h0Zm7.189,13.8a7.465,7.465,0,1,1,3.17-10.072,7.424,7.424,0,0,1-3.17,10.072" transform="translate(-4314.62 -1069.712)" fill="#0f7fb1"/>
          <path id="Path_74821" data-name="Path 74821" d="M4250.051,986.991l-5.118-2.227a14.984,14.984,0,0,0-.164-1.926l4.65-3.134a.627.627,0,0,0,.249-.7,20.655,20.655,0,0,0-3.4-6.523.625.625,0,0,0-.724-.2l-5.2,2.045a14.935,14.935,0,0,0-1.479-1.244l1.073-5.5a.626.626,0,0,0-.323-.674,20.58,20.58,0,0,0-7.017-2.212.625.625,0,0,0-.653.371l-2.227,5.118a14.712,14.712,0,0,0-1.927.164l-3.133-4.651a.625.625,0,0,0-.7-.248,20.685,20.685,0,0,0-6.524,3.395.625.625,0,0,0-.2.725l2.045,5.2a14.994,14.994,0,0,0-1.243,1.479l-5.5-1.073a.626.626,0,0,0-.674.323,20.569,20.569,0,0,0-2.211,7.016.626.626,0,0,0,.372.653l5.117,2.228a14.94,14.94,0,0,0,.164,1.927l-4.651,3.131a.625.625,0,0,0-.249.705,20.726,20.726,0,0,0,3.4,6.526.627.627,0,0,0,.725.2l5.2-2.045a14.836,14.836,0,0,0,1.479,1.244l-1.074,5.5a.626.626,0,0,0,.323.674,20.594,20.594,0,0,0,7.016,2.211.613.613,0,0,0,.079.005.626.626,0,0,0,.574-.376l2.228-5.118a14.723,14.723,0,0,0,1.927-.164l3.133,4.652a.626.626,0,0,0,.706.248,20.841,20.841,0,0,0,3.418-1.411,20.622,20.622,0,0,0,3.1-1.985.626.626,0,0,0,.2-.725l-2.045-5.2a14.971,14.971,0,0,0,1.244-1.479l5.5,1.074a.626.626,0,0,0,.674-.323,20.558,20.558,0,0,0,2.21-7.017.626.626,0,0,0-.371-.653m-2.737,6.673-5.436-1.06a.627.627,0,0,0-.634.257,13.641,13.641,0,0,1-1.626,1.932.626.626,0,0,0-.144.676l2.021,5.134a19.6,19.6,0,0,1-5.314,2.766l-3.094-4.594a.626.626,0,0,0-.63-.266,13.473,13.473,0,0,1-2.516.214h-.006a.625.625,0,0,0-.574.376l-2.2,5.056a19.326,19.326,0,0,1-5.713-1.8l1.061-5.437a.628.628,0,0,0-.258-.635,13.534,13.534,0,0,1-1.931-1.625.627.627,0,0,0-.676-.143l-5.134,2.021a19.486,19.486,0,0,1-2.765-5.315l4.594-3.092a.628.628,0,0,0,.267-.631,13.6,13.6,0,0,1-.214-2.517.626.626,0,0,0-.376-.579l-5.055-2.2a19.278,19.278,0,0,1,1.8-5.714l5.436,1.06a.625.625,0,0,0,.634-.258,13.63,13.63,0,0,1,1.625-1.931.626.626,0,0,0,.144-.675l-2.021-5.134a19.508,19.508,0,0,1,2.543-1.585,19.3,19.3,0,0,1,2.77-1.18l3.1,4.594a.626.626,0,0,0,.632.266,13.347,13.347,0,0,1,2.516-.215.62.62,0,0,0,.579-.376l2.2-5.056a19.318,19.318,0,0,1,5.714,1.8l-1.06,5.435a.627.627,0,0,0,.258.635,13.572,13.572,0,0,1,1.933,1.625.627.627,0,0,0,.676.143l5.132-2.02a19.436,19.436,0,0,1,2.766,5.312l-4.593,3.1a.625.625,0,0,0-.267.63,13.652,13.652,0,0,1,.214,2.517.625.625,0,0,0,.376.579l5.055,2.2a19.293,19.293,0,0,1-1.8,5.714" transform="translate(-4209.647 -964.685)" fill="#0f7fb1"/>
        </g>
        <g id="Group_28698" data-name="Group 28698" transform="translate(175.682 0)">
          <path id="Path_74822" data-name="Path 74822" d="M4314.4,276.192h0a10.451,10.451,0,1,0,14.292,3.76,10.38,10.38,0,0,0-14.292-3.76m.328.562h0Zm9.549,16.369a9.15,9.15,0,1,1-9.222-15.807h0a9.15,9.15,0,1,1,9.222,15.807" transform="translate(-4294.958 -260.515)" fill="#2196c9"/>
          <path id="Path_74823" data-name="Path 74823" d="M4215.758,158.229l-6.384-2.423a17.993,17.993,0,0,0-.326-2.442l5.5-4.1a.649.649,0,0,0,.223-.743,24.9,24.9,0,0,0-4.466-7.662.65.65,0,0,0-.761-.17l-6.23,2.8a17.956,17.956,0,0,0-1.96-1.494l.99-6.787a.65.65,0,0,0-.369-.683,24.815,24.815,0,0,0-8.578-2.261.652.652,0,0,0-.659.418l-2.422,6.385a17.691,17.691,0,0,0-2.444.327l-4.1-5.5a.65.65,0,0,0-.743-.223,24.94,24.94,0,0,0-7.662,4.464.65.65,0,0,0-.171.762l2.8,6.233a17.858,17.858,0,0,0-1.492,1.958l-6.788-.99a.651.651,0,0,0-.684.369,24.8,24.8,0,0,0-2.259,8.578.65.65,0,0,0,.417.659l6.385,2.424a17.817,17.817,0,0,0,.326,2.443l-5.5,4.1a.65.65,0,0,0-.223.744,24.969,24.969,0,0,0,4.467,7.664.65.65,0,0,0,.761.17l6.231-2.8a17.855,17.855,0,0,0,1.959,1.494l-.991,6.788a.65.65,0,0,0,.369.683,24.834,24.834,0,0,0,8.578,2.259l.051,0a.65.65,0,0,0,.608-.42l2.423-6.385a17.729,17.729,0,0,0,2.445-.326l4.1,5.5a.65.65,0,0,0,.745.222,25.144,25.144,0,0,0,7.662-4.466.65.65,0,0,0,.17-.761l-2.8-6.232a17.993,17.993,0,0,0,1.494-1.959l6.788.99a.65.65,0,0,0,.683-.368,24.78,24.78,0,0,0,2.259-8.579.65.65,0,0,0-.418-.659m-2.819,8.249-6.719-.98a.651.651,0,0,0-.645.3,16.672,16.672,0,0,1-1.868,2.448.65.65,0,0,0-.115.708l2.774,6.169a23.557,23.557,0,0,1-3.063,2.124,23.8,23.8,0,0,1-3.375,1.628l-4.058-5.445a.65.65,0,0,0-.668-.245,16.406,16.406,0,0,1-3.051.406.65.65,0,0,0-.583.419l-2.4,6.321a23.517,23.517,0,0,1-7.206-1.9l.98-6.719a.65.65,0,0,0-.3-.645,16.467,16.467,0,0,1-2.446-1.866.651.651,0,0,0-.708-.115l-6.168,2.775a23.635,23.635,0,0,1-3.752-6.44l5.445-4.055a.65.65,0,0,0,.245-.668,16.546,16.546,0,0,1-.407-3.052.651.651,0,0,0-.419-.582l-6.321-2.4a23.5,23.5,0,0,1,1.9-7.207l6.718.98a.652.652,0,0,0,.646-.3,16.532,16.532,0,0,1,1.865-2.446.65.65,0,0,0,.115-.708l-2.775-6.169a23.655,23.655,0,0,1,6.438-3.75l4.059,5.445a.65.65,0,0,0,.669.245,16.383,16.383,0,0,1,3.051-.408.651.651,0,0,0,.582-.419l2.4-6.321a23.5,23.5,0,0,1,7.207,1.9l-.98,6.718a.65.65,0,0,0,.3.645,16.581,16.581,0,0,1,2.448,1.867.65.65,0,0,0,.708.115l6.168-2.774a23.6,23.6,0,0,1,3.75,6.437l-5.443,4.059a.651.651,0,0,0-.245.667,16.7,16.7,0,0,1,.407,3.052.65.65,0,0,0,.419.582l6.32,2.4a23.493,23.493,0,0,1-1.9,7.208" transform="translate(-4166.772 -132.263)" fill="#2196c9"/>
        </g>
        <g id="Group_28697" data-name="Group 28697" transform="translate(213.352 34.814)">
          <path id="Path_74815" data-name="Path 74815" d="M4825.953,745.694a12.22,12.22,0,1,0-7.741,21.7,12.469,12.469,0,0,0,1.264-.065,12.22,12.22,0,0,0,6.477-21.632m-6.609,20.338a11.081,11.081,0,0,1-1.129.058,10.921,10.921,0,0,1-1.089-21.785l-.066-.647.066.647a10.92,10.92,0,1,1,2.218,21.728" transform="translate(-4779.735 -716.67)" fill="#b1e7ff"/>
          <path id="Path_74816" data-name="Path 74816" d="M4618.441,506.835a.652.652,0,0,0-.641-.449l-8.173.283a30.223,30.223,0,0,0-2.777-5.012l5.049-6.1a.65.65,0,0,0,.006-.821,38.97,38.97,0,0,0-12.631-10.28.651.651,0,0,0-.771.136l-5.577,5.978a30.126,30.126,0,0,0-5.508-1.585l-.746-7.885a.65.65,0,0,0-.576-.585,38.709,38.709,0,0,0-16.2,1.661.649.649,0,0,0-.448.641l.283,8.173a30.2,30.2,0,0,0-5.014,2.778l-6.1-5.048a.651.651,0,0,0-.821-.006,38.96,38.96,0,0,0-10.282,12.632.651.651,0,0,0,.136.771l5.979,5.577a30.254,30.254,0,0,0-1.585,5.508l-7.884.745a.651.651,0,0,0-.585.576,38.664,38.664,0,0,0,1.662,16.2.651.651,0,0,0,.641.449l8.173-.283a30.275,30.275,0,0,0,2.778,5.012l-5.049,6.1a.65.65,0,0,0-.006.821A38.962,38.962,0,0,0,4564.4,553.1a.65.65,0,0,0,.77-.136l5.579-5.978a30.105,30.105,0,0,0,5.506,1.583l.747,7.886a.649.649,0,0,0,.575.585,38.666,38.666,0,0,0,16.2-1.662.649.649,0,0,0,.448-.641l-.284-8.174a30.136,30.136,0,0,0,5.012-2.776l6.1,5.049a.65.65,0,0,0,.821.006,38.948,38.948,0,0,0,10.281-12.633.65.65,0,0,0-.136-.77l-5.979-5.578a30.118,30.118,0,0,0,1.584-5.506l7.887-.745a.65.65,0,0,0,.585-.576,38.7,38.7,0,0,0-1.663-16.2m.424,15.533-7.847.742a.65.65,0,0,0-.581.539,28.815,28.815,0,0,1-1.76,6.139.648.648,0,0,0,.158.723l5.944,5.546a37.67,37.67,0,0,1-9.3,11.441l-6.074-5.025a.65.65,0,0,0-.792-.029,28.825,28.825,0,0,1-5.584,3.1.65.65,0,0,0-.4.623l.282,8.127a37.37,37.37,0,0,1-14.665,1.512l-.743-7.848a.649.649,0,0,0-.538-.58,28.782,28.782,0,0,1-6.139-1.76.649.649,0,0,0-.723.158l-5.547,5.944a37.685,37.685,0,0,1-11.439-9.3l5.024-6.074a.65.65,0,0,0,.029-.791,28.974,28.974,0,0,1-3.1-5.585.651.651,0,0,0-.623-.4l-8.125.281a37.369,37.369,0,0,1-1.513-14.664l7.846-.742a.651.651,0,0,0,.58-.539,28.9,28.9,0,0,1,1.76-6.142.649.649,0,0,0-.158-.723L4548.9,501.5a37.7,37.7,0,0,1,9.3-11.44l6.072,5.024a.651.651,0,0,0,.792.029,28.847,28.847,0,0,1,5.586-3.1.65.65,0,0,0,.4-.622l-.281-8.126a37.411,37.411,0,0,1,14.665-1.512l.742,7.846a.65.65,0,0,0,.538.58,28.8,28.8,0,0,1,6.141,1.762.651.651,0,0,0,.724-.158l5.545-5.944a37.691,37.691,0,0,1,11.439,9.3l-5.024,6.072a.65.65,0,0,0-.029.791,28.919,28.919,0,0,1,3.1,5.585.654.654,0,0,0,.623.4l8.125-.281a37.4,37.4,0,0,1,1.513,14.665" transform="translate(-4543.339 -480.28)" fill="#b1e7ff"/>
          <path id="Path_74824" data-name="Path 74824" d="M4770.076,689.44a17.575,17.575,0,1,0,17.576,17.575,17.6,17.6,0,0,0-17.576-17.575m0,33.85a16.275,16.275,0,1,1,16.275-16.275,16.293,16.293,0,0,1-16.275,16.275" transform="translate(-4731.578 -668.517)" fill="#b1e7ff"/>
        </g>
        <g id="Group_28693-2" data-name="Group 28693" transform="translate(0 13.615)">
          <path id="Path_74813" data-name="Path 74813" d="M2477.886,305.534l-8.86-3.768a24.475,24.475,0,0,0-.35-3.683l7.969-5.465a.65.65,0,0,0,.252-.734,34.143,34.143,0,0,0-5.725-10.777.65.65,0,0,0-.754-.2l-8.926,3.6a24.23,24.23,0,0,0-2.85-2.362l1.77-9.5a.65.65,0,0,0-.341-.7,34.033,34.033,0,0,0-5.682-2.312,34.379,34.379,0,0,0-5.982-1.261.651.651,0,0,0-.675.391l-3.769,8.863a24.515,24.515,0,0,0-3.68.349l-5.466-7.969a.65.65,0,0,0-.734-.252,34.109,34.109,0,0,0-10.775,5.726.65.65,0,0,0-.2.754l3.6,8.926a24.6,24.6,0,0,0-2.362,2.849l-9.5-1.774a.649.649,0,0,0-.7.341,34.345,34.345,0,0,0-3.573,11.668.65.65,0,0,0,.391.674l8.862,3.768a24.4,24.4,0,0,0,.348,3.682l-7.971,5.466a.651.651,0,0,0-.252.734,34.174,34.174,0,0,0,5.726,10.774.65.65,0,0,0,.754.2l8.926-3.6a24.288,24.288,0,0,0,2.849,2.363l-1.772,9.5a.65.65,0,0,0,.342.7,34.586,34.586,0,0,0,11.665,3.57.652.652,0,0,0,.675-.391l3.769-8.863a24.636,24.636,0,0,0,3.683-.349l5.466,7.97a.65.65,0,0,0,.734.252,34.109,34.109,0,0,0,10.775-5.727.65.65,0,0,0,.2-.754l-3.6-8.925a24.751,24.751,0,0,0,2.361-2.848l9.5,1.769a.65.65,0,0,0,.7-.341,34.279,34.279,0,0,0,3.57-11.664.65.65,0,0,0-.391-.675m-2.111,6.273a33.169,33.169,0,0,1-2.006,5.039l-9.436-1.757a.65.65,0,0,0-.656.273,23.326,23.326,0,0,1-2.752,3.32.651.651,0,0,0-.143.7l3.575,8.864a32.791,32.791,0,0,1-9.523,5.061l-5.428-7.915a.651.651,0,0,0-.657-.271,23.311,23.311,0,0,1-4.293.406.65.65,0,0,0-.6.4l-3.743,8.8a33.307,33.307,0,0,1-10.31-3.156l1.76-9.436a.65.65,0,0,0-.273-.657,23,23,0,0,1-3.319-2.753.65.65,0,0,0-.7-.144l-8.866,3.575a32.847,32.847,0,0,1-5.06-9.523l7.916-5.428a.65.65,0,0,0,.271-.658,23.125,23.125,0,0,1-.405-4.291.652.652,0,0,0-.4-.6l-8.8-3.743a33.058,33.058,0,0,1,3.158-10.311l9.434,1.762a.651.651,0,0,0,.657-.273,23.247,23.247,0,0,1,2.753-3.321.651.651,0,0,0,.143-.7L2424.5,276.2a32.789,32.789,0,0,1,9.523-5.06l5.428,7.915a.65.65,0,0,0,.658.271,23.19,23.19,0,0,1,4.29-.406.651.651,0,0,0,.6-.4l3.743-8.8a33.015,33.015,0,0,1,10.308,3.158l-1.758,9.437a.65.65,0,0,0,.274.657,22.932,22.932,0,0,1,3.32,2.751.651.651,0,0,0,.7.143l8.864-3.575a32.818,32.818,0,0,1,5.059,9.525l-7.914,5.428a.65.65,0,0,0-.271.657,23.237,23.237,0,0,1,.407,4.293.65.65,0,0,0,.4.6l8.8,3.742a33.109,33.109,0,0,1-1.15,5.269" transform="translate(-2410.57 -268.368)" fill="#0f7fb1"/>
          <path id="Path_74814" data-name="Path 74814" d="M2625.149,465.159a14.23,14.23,0,1,0,9.449,17.767,14.134,14.134,0,0,0-9.449-17.767m8.205,17.386a12.949,12.949,0,1,1-8.585-16.143h0a12.945,12.945,0,0,1,8.585,16.143" transform="translate(-2587.133 -444.908)" fill="#0f7fb1"/>
          <path id="Path_74825" data-name="Path 74825" d="M2560.815,397.714a20.918,20.918,0,1,0,20.918,20.918,20.942,20.942,0,0,0-20.918-20.918m0,40.536a19.618,19.618,0,1,1,19.618-19.618,19.64,19.64,0,0,1-19.618,19.618" transform="translate(-2526.96 -384.775)" fill="#0f7fb1"/>
        </g>
        <g id="Group_28694" data-name="Group 28694" transform="translate(58.581 14.038)">
          <path id="Path_74808" data-name="Path 74808" d="M3121.435,318.781l-14.021-.067a50.125,50.125,0,0,0-4.567-9.079l9.091-10.147a.651.651,0,0,0,.039-.82,64.508,64.508,0,0,0-20.36-17.951.65.65,0,0,0-.775.105l-9.964,9.868a50.207,50.207,0,0,0-9.653-3.182l-.745-13.6a.651.651,0,0,0-.553-.607,64.93,64.93,0,0,0-27.093,1.7.651.651,0,0,0-.474.623l-.066,14.02a50.271,50.271,0,0,0-9.077,4.569l-10.147-9.091a.65.65,0,0,0-.82-.039,64.436,64.436,0,0,0-17.95,20.36.65.65,0,0,0,.105.775l9.868,9.964a50.341,50.341,0,0,0-3.181,9.651l-13.606.748a.65.65,0,0,0-.607.553,64.942,64.942,0,0,0,1.707,27.089.65.65,0,0,0,.623.474l14.022.067a50.106,50.106,0,0,0,4.568,9.074l-9.092,10.15a.65.65,0,0,0-.039.82,64.429,64.429,0,0,0,20.362,17.951.65.65,0,0,0,.775-.106l9.964-9.871a50.165,50.165,0,0,0,9.648,3.182l.747,13.606a.65.65,0,0,0,.552.607,64.88,64.88,0,0,0,27.093-1.706.651.651,0,0,0,.474-.623l.066-14.023a50.125,50.125,0,0,0,9.075-4.566l10.15,9.093a.651.651,0,0,0,.821.039,64.522,64.522,0,0,0,17.949-20.363.65.65,0,0,0-.105-.775l-9.868-9.964a50.344,50.344,0,0,0,3.181-9.65l13.6-.746a.65.65,0,0,0,.607-.553,64.949,64.949,0,0,0-1.705-27.09.65.65,0,0,0-.623-.474m1.119,26.847-13.568.744a.65.65,0,0,0-.6.515A48.993,48.993,0,0,1,3105,357.163a.65.65,0,0,0,.129.728l9.837,9.932a63.221,63.221,0,0,1-16.923,19.21l-10.123-9.069a.65.65,0,0,0-.789-.06,48.812,48.812,0,0,1-9.658,4.866.65.65,0,0,0-.424.607l-.066,13.979a63.624,63.624,0,0,1-25.552,1.617l-.745-13.571a.65.65,0,0,0-.515-.6,48.838,48.838,0,0,1-10.273-3.383.65.65,0,0,0-.728.129l-9.933,9.84a63.149,63.149,0,0,1-19.209-16.924l9.068-10.124a.651.651,0,0,0,.06-.789,48.748,48.748,0,0,1-4.867-9.658.651.651,0,0,0-.607-.424l-13.978-.067a63.665,63.665,0,0,1-1.618-25.548l13.57-.746a.65.65,0,0,0,.6-.515,49.015,49.015,0,0,1,3.381-10.276.65.65,0,0,0-.129-.728l-9.837-9.932a63.138,63.138,0,0,1,16.922-19.207l10.121,9.067a.65.65,0,0,0,.789.06,48.966,48.966,0,0,1,9.662-4.869.65.65,0,0,0,.424-.606l.066-13.976a63.651,63.651,0,0,1,25.552-1.615l.743,13.567a.65.65,0,0,0,.516.6,48.9,48.9,0,0,1,10.278,3.382.649.649,0,0,0,.728-.129l9.932-9.837a63.211,63.211,0,0,1,19.207,16.924l-9.066,10.121a.651.651,0,0,0-.061.789,48.765,48.765,0,0,1,4.867,9.662.65.65,0,0,0,.607.424l13.977.067a63.678,63.678,0,0,1,1.617,25.549" transform="translate(-2996.173 -272.591)" fill="#6ac7f0"/>
          <path id="Path_74809" data-name="Path 74809" d="M3470.275,718.271a20.067,20.067,0,1,0-13.306,35.112c.425,0,.852-.013,1.279-.04a20.065,20.065,0,0,0,12.027-35.072m.794,27.462a18.767,18.767,0,1,1-15.241-31.145q.6-.037,1.2-.037a18.766,18.766,0,0,1,14.046,31.182" transform="translate(-3392.848 -669.169)" fill="#6ac7f0"/>
          <path id="Path_74826" data-name="Path 74826" d="M3361.745,607.52a30.645,30.645,0,1,0,21.669,8.976,30.443,30.443,0,0,0-21.669-8.976m20.75,51.394a29.344,29.344,0,1,1,8.595-20.749,29.152,29.152,0,0,1-8.595,20.749" transform="translate(-3297.596 -574.015)" fill="#6ac7f0"/>
          <path id="Path_74827" data-name="Path 74827" d="M3336.34,579.29a33.468,33.468,0,1,0,23.666,9.8,33.249,33.249,0,0,0-23.666-9.8m22.746,56.214a32.168,32.168,0,1,1,9.422-22.746,31.957,31.957,0,0,1-9.422,22.746" transform="translate(-3272.19 -548.609)" fill="#6ac7f0"/>
        </g>
      </g>
      <g id="Group_27454" data-name="Group 27454" transform="translate(0 79.148)">
        <g id="Group_27435" data-name="Group 27435" transform="translate(0 0)">
          <g id="Group_27318" data-name="Group 27318" transform="translate(0 0)">
            <g id="Group_27314" data-name="Group 27314" transform="translate(0 0)">
              <g id="Group_27137" data-name="Group 27137" transform="translate(36.372 195.276)" opacity="0.1">
                <ellipse id="Ellipse_242" data-name="Ellipse 242" cx="93.276" cy="7.124" rx="93.276" ry="7.124" fill="#150d53"/>
              </g>
              <g id="monitor" transform="translate(0)">
                <g id="Group_27141" data-name="Group 27141" transform="translate(92.427 168.38)">
                  <path id="Path_40047" data-name="Path 40047" d="M949.441,265.508h-76s14.946-14.66,12.833-25.364h50.336C934.711,257.643,949.441,265.508,949.441,265.508Z" transform="translate(-873.439 -240.144)" fill="#0f7fb1"/>
                </g>
                <g id="Group_27142" data-name="Group 27142">
                  <rect id="Rectangle_8845" data-name="Rectangle 8845" width="260.856" height="168.379" rx="8.476" fill="#2196c9"/>
                </g>
                <g id="Group_27143" data-name="Group 27143" transform="translate(90.752 193.744)">
                  <rect id="Rectangle_8846" data-name="Rectangle 8846" width="79.353" height="9.475" rx="1.695" fill="#2196c9"/>
                </g>
                <g id="Group_27144" data-name="Group 27144" transform="translate(9.989 12.147)">
                  <rect id="Rectangle_8847" data-name="Rectangle 8847" width="240.877" height="144.086" rx="0.848" fill="#b1e7ff"/>
                </g>
                <g id="Group_27191" data-name="Group 27191" transform="translate(105.26 168.38)" opacity="0.2">
                  <path id="Path_40057" data-name="Path 40057" d="M936.631,244.664H886.456s.169-1.623.169-2.165a14.342,14.342,0,0,0-.2-2.355H936.76s-.159,1.814-.159,2.355S936.631,244.664,936.631,244.664Z" transform="translate(-886.424 -240.144)" fill="#253e58"/>
                </g>
              </g>
            </g>
          </g>
          <rect id="Rectangle_8988" data-name="Rectangle 8988" width="225.23" height="128.411" rx="1" transform="translate(17.875 19.198)" fill="#253e58"/>
        </g>
      </g>
      <g id="Group_38531" data-name="Group 38531" transform="translate(24.103 104.415)" opacity="0.393">
        <g id="Group_38530" data-name="Group 38530" transform="translate(0 0.003)" clip-path="url(#clip-path)">
          <path id="Path_105397" data-name="Path 105397" d="M55.829,3.839H.669A.669.669,0,0,1,0,3.17V.672A.669.669,0,0,1,.669,0h55.16A.669.669,0,0,1,56.5.672v2.5a.669.669,0,0,1-.669.669" transform="translate(0 -0.003)" fill="#b1e7ff"/>
          <path id="Path_105398" data-name="Path 105398" d="M93.287,71.581H61.811a.669.669,0,0,1-.669-.669v-2.5a.669.669,0,0,1,.669-.669H93.287a.669.669,0,0,1,.669.669v2.5a.669.669,0,0,1-.669.669" transform="translate(-54.532 -60.421)" fill="#0dce93"/>
          <path id="Path_105399" data-name="Path 105399" d="M194.645,139.323H159.327a.669.669,0,0,1-.669-.669v-2.5a.669.669,0,0,1,.669-.669h35.318a.669.669,0,0,1,.669.669v2.5a.669.669,0,0,1-.669.669" transform="translate(-141.505 -120.84)" fill="#fff"/>
          <path id="Path_105400" data-name="Path 105400" d="M214.487,207.066h-55.16a.669.669,0,0,1-.669-.669v-2.5a.669.669,0,0,1,.669-.669h55.16a.669.669,0,0,1,.669.669v2.5a.669.669,0,0,1-.669.669" transform="translate(-141.505 -181.259)" fill="#5bc5e0"/>
          <path id="Path_105401" data-name="Path 105401" d="M83.529,274.808H61.811a.669.669,0,0,1-.669-.669v-2.5a.669.669,0,0,1,.669-.669H83.529a.669.669,0,0,1,.669.669v2.5a.669.669,0,0,1-.669.669" transform="translate(-54.532 -241.677)" fill="#afc825"/>
          <path id="Path_105402" data-name="Path 105402" d="M96.678,342.55H61.812a.669.669,0,0,1-.669-.669v-2.5a.669.669,0,0,1,.669-.669H96.678a.669.669,0,0,1,.669.669v2.5a.669.669,0,0,1-.669.669" transform="translate(-54.533 -302.095)" fill="#fff"/>
          <path id="Path_105403" data-name="Path 105403" d="M171.344,410.292H159.326a.669.669,0,0,1-.669-.669v-2.5a.669.669,0,0,1,.669-.669h12.018a.669.669,0,0,1,.669.669v2.5a.669.669,0,0,1-.669.669" transform="translate(-141.504 -362.513)" fill="#fff"/>
          <path id="Path_105404" data-name="Path 105404" d="M451.843,71.581h-55.16a.669.669,0,0,1-.669-.669v-2.5a.669.669,0,0,1,.669-.669h55.16a.669.669,0,0,1,.669.669v2.5a.669.669,0,0,1-.669.669" transform="translate(-353.2 -60.421)" fill="#ffb831"/>
          <path id="Path_105405" data-name="Path 105405" d="M562.691,139.323H530.285a.669.669,0,0,1-.669-.669v-2.5a.669.669,0,0,1,.669-.669h32.406a.669.669,0,0,1,.669.669v2.5a.669.669,0,0,1-.669.669" transform="translate(-472.358 -120.84)" fill="#b1e7ff"/>
          <path id="Path_105406" data-name="Path 105406" d="M735.283,207.066h-22.81a.669.669,0,0,1-.669-.669v-2.5a.669.669,0,0,1,.669-.669h22.81a.669.669,0,0,1,.669.669v2.5a.669.669,0,0,1-.669.669" transform="translate(-634.849 -181.259)" fill="#0dce93"/>
          <path id="Path_105407" data-name="Path 105407" d="M363.826,274.808h-55.16a.669.669,0,0,1-.669-.669v-2.5a.669.669,0,0,1,.669-.669h55.16a.669.669,0,0,1,.669.669v2.5a.669.669,0,0,1-.669.669" transform="translate(-274.699 -241.677)" fill="#b1e7ff"/>
          <path id="Path_105408" data-name="Path 105408" d="M451.963,342.55H425.052a.669.669,0,0,1-.669-.669v-2.5a.669.669,0,0,1,.669-.669h26.911a.669.669,0,0,1,.669.669v2.5a.669.669,0,0,1-.669.669" transform="translate(-378.502 -302.095)" fill="#8c72b1"/>
          <path id="Path_105409" data-name="Path 105409" d="M343.982,410.292H319.818a.669.669,0,0,1-.669-.669v-2.5a.669.669,0,0,1,.669-.669h24.164a.669.669,0,0,1,.669.669v2.5a.669.669,0,0,1-.669.669" transform="translate(-284.645 -362.513)" fill="#fff"/>
          <path id="Path_105410" data-name="Path 105410" d="M982.692,71.581H946.21a.669.669,0,0,1-.669-.669v-2.5a.669.669,0,0,1,.669-.669h36.482a.669.669,0,0,1,.669.669v2.5a.669.669,0,0,1-.669.669" transform="translate(-843.316 -60.421)" fill="#5bc5e0"/>
          <path id="Path_105411" data-name="Path 105411" d="M1482.094,139.323h-36.482a.669.669,0,0,1-.669-.669v-2.5a.669.669,0,0,1,.669-.669h36.482a.669.669,0,0,1,.669.669v2.5a.669.669,0,0,1-.669.669" transform="translate(-1288.727 -120.84)" fill="#5bc5e0"/>
          <path id="Path_105412" data-name="Path 105412" d="M939.953,139.323h-55.16a.669.669,0,0,1-.669-.669v-2.5a.669.669,0,0,1,.669-.669h55.16a.669.669,0,0,1,.669.669v2.5a.669.669,0,0,1-.669.669" transform="translate(-788.539 -120.84)" fill="#0dce93"/>
          <path id="Path_105413" data-name="Path 105413" d="M1035.726,207.066h-55.16a.669.669,0,0,1-.669-.669v-2.5a.669.669,0,0,1,.669-.669h55.16a.669.669,0,0,1,.669.669v2.5a.669.669,0,0,1-.669.669" transform="translate(-873.958 -181.259)" fill="#b1e7ff"/>
          <path id="Path_105414" data-name="Path 105414" d="M880.463,274.808H859.83a.669.669,0,0,1-.669-.669v-2.5a.669.669,0,0,1,.669-.669h20.633a.669.669,0,0,1,.669.669v2.5a.669.669,0,0,1-.669.669" transform="translate(-766.275 -241.677)" fill="#fff"/>
          <path id="Path_105415" data-name="Path 105415" d="M635.86,410.292H598.538a.669.669,0,0,1-.669-.669v-2.5a.669.669,0,0,1,.669-.669H635.86a.669.669,0,0,1,.669.669v2.5a.669.669,0,0,1-.669.669" transform="translate(-533.232 -362.513)" fill="#ffb831"/>
          <path id="Path_105416" data-name="Path 105416" d="M40.231,504.047H.669A.669.669,0,0,1,0,503.378v-2.5a.669.669,0,0,1,.669-.669H40.231a.669.669,0,0,1,.669.669v2.5a.669.669,0,0,1-.669.669" transform="translate(0 -446.132)" fill="#5bc5e0"/>
          <path id="Path_105417" data-name="Path 105417" d="M93.287,571.79H61.811a.669.669,0,0,1-.669-.669v-2.5a.669.669,0,0,1,.669-.669H93.287a.669.669,0,0,1,.669.669v2.5a.669.669,0,0,1-.669.669" transform="translate(-54.532 -506.552)" fill="#fff"/>
          <path id="Path_105418" data-name="Path 105418" d="M194.645,639.532H159.327a.669.669,0,0,1-.669-.669v-2.5a.669.669,0,0,1,.669-.669h35.318a.669.669,0,0,1,.669.669v2.5a.669.669,0,0,1-.669.669" transform="translate(-141.505 -566.97)" fill="#0dce93"/>
          <path id="Path_105419" data-name="Path 105419" d="M214.487,707.274h-55.16a.669.669,0,0,1-.669-.669v-2.5a.669.669,0,0,1,.669-.669h55.16a.669.669,0,0,1,.669.669v2.5a.669.669,0,0,1-.669.669" transform="translate(-141.505 -627.388)" fill="#fff"/>
          <path id="Path_105420" data-name="Path 105420" d="M733.829,995.482H712.111a.669.669,0,0,1-.669-.669v-2.5a.669.669,0,0,1,.669-.669h21.719a.669.669,0,0,1,.669.669v2.5a.669.669,0,0,1-.669.669" transform="translate(-634.526 -884.437)" fill="#fff"/>
          <path id="Path_105421" data-name="Path 105421" d="M96.678,842.758H61.812a.669.669,0,0,1-.669-.669v-2.5a.669.669,0,0,1,.669-.669H96.678a.669.669,0,0,1,.669.669v2.5a.669.669,0,0,1-.669.669" transform="translate(-54.533 -748.225)" fill="#ffb831"/>
          <path id="Path_105422" data-name="Path 105422" d="M171.344,910.5H159.326a.669.669,0,0,1-.669-.669v-2.5a.669.669,0,0,1,.669-.669h12.018a.669.669,0,0,1,.669.669v2.5a.669.669,0,0,1-.669.669" transform="translate(-141.504 -808.644)" fill="#fff"/>
          <path id="Path_105423" data-name="Path 105423" d="M451.843,571.79h-55.16a.669.669,0,0,1-.669-.669v-2.5a.669.669,0,0,1,.669-.669h55.16a.669.669,0,0,1,.669.669v2.5a.669.669,0,0,1-.669.669" transform="translate(-353.2 -506.552)" fill="#ffb831"/>
          <path id="Path_105424" data-name="Path 105424" d="M562.691,639.532H530.285a.669.669,0,0,1-.669-.669v-2.5a.669.669,0,0,1,.669-.669h32.406a.669.669,0,0,1,.669.669v2.5a.669.669,0,0,1-.669.669" transform="translate(-472.358 -566.97)" fill="#b1e7ff"/>
          <path id="Path_105425" data-name="Path 105425" d="M735.283,707.274h-22.81a.669.669,0,0,1-.669-.669v-2.5a.669.669,0,0,1,.669-.669h22.81a.669.669,0,0,1,.669.669v2.5a.669.669,0,0,1-.669.669" transform="translate(-634.849 -627.388)" fill="#fff"/>
          <path id="Path_105426" data-name="Path 105426" d="M1014.127,995.482h-55.16a.669.669,0,0,1-.669-.669v-2.5a.669.669,0,0,1,.669-.669h55.16a.669.669,0,0,1,.669.669v2.5a.669.669,0,0,1-.669.669" transform="translate(-854.694 -884.437)" fill="#b1e7ff"/>
          <path id="Path_105427" data-name="Path 105427" d="M451.963,842.758H425.052a.669.669,0,0,1-.669-.669v-2.5a.669.669,0,0,1,.669-.669h26.911a.669.669,0,0,1,.669.669v2.5a.669.669,0,0,1-.669.669" transform="translate(-378.502 -748.225)" fill="#5bc5e0"/>
          <path id="Path_105428" data-name="Path 105428" d="M87.925,995.482H53.059a.669.669,0,0,1-.669-.669v-2.5a.669.669,0,0,1,.669-.669H87.925a.669.669,0,0,1,.669.669v2.5a.669.669,0,0,1-.669.669" transform="translate(-46.726 -884.437)" fill="#b1e7ff"/>
          <path id="Path_105429" data-name="Path 105429" d="M443.21,995.482H416.3a.669.669,0,0,1-.669-.669v-2.5a.669.669,0,0,1,.669-.669H443.21a.669.669,0,0,1,.669.669v2.5a.669.669,0,0,1-.669.669" transform="translate(-370.695 -884.437)" fill="#0dce93"/>
          <path id="Path_105430" data-name="Path 105430" d="M343.982,910.5H319.818a.669.669,0,0,1-.669-.669v-2.5a.669.669,0,0,1,.669-.669h24.164a.669.669,0,0,1,.669.669v2.5a.669.669,0,0,1-.669.669" transform="translate(-284.645 -808.644)" fill="#5bc5e0"/>
          <path id="Path_105431" data-name="Path 105431" d="M982.692,571.79H946.21a.669.669,0,0,1-.669-.669v-2.5a.669.669,0,0,1,.669-.669h36.482a.669.669,0,0,1,.669.669v2.5a.669.669,0,0,1-.669.669" transform="translate(-843.316 -506.552)" fill="#5bc5e0"/>
          <path id="Path_105432" data-name="Path 105432" d="M1004.367,707.274h-23.8a.669.669,0,0,1-.669-.669v-2.5a.669.669,0,0,1,.669-.669h23.8a.669.669,0,0,1,.669.669v2.5a.669.669,0,0,1-.669.669" transform="translate(-873.958 -627.388)" fill="#fff"/>
          <path id="Path_105433" data-name="Path 105433" d="M414.251,775.016h-22.81a.669.669,0,0,1-.669-.669v-2.5a.669.669,0,0,1,.669-.669h22.81a.669.669,0,0,1,.669.669v2.5a.669.669,0,0,1-.669.669" transform="translate(-348.525 -687.806)" fill="#b1e7ff"/>
          <path id="Path_105434" data-name="Path 105434" d="M683.335,775.016h-23.8a.669.669,0,0,1-.669-.669v-2.5a.669.669,0,0,1,.669-.669h23.8a.669.669,0,0,1,.669.669v2.5a.669.669,0,0,1-.669.669" transform="translate(-587.634 -687.806)" fill="#0dce93"/>
          <path id="Path_105435" data-name="Path 105435" d="M175.074,775.016H154.441a.669.669,0,0,1-.669-.669v-2.5a.669.669,0,0,1,.669-.669h20.633a.669.669,0,0,1,.669.669v2.5a.669.669,0,0,1-.669.669" transform="translate(-137.147 -687.806)" fill="#ffb831"/>
          <path id="Path_105436" data-name="Path 105436" d="M635.86,910.5H598.538a.669.669,0,0,1-.669-.669v-2.5a.669.669,0,0,1,.669-.669H635.86a.669.669,0,0,1,.669.669v2.5a.669.669,0,0,1-.669.669" transform="translate(-533.232 -808.644)" fill="#b1e7ff"/>
        </g>
      </g>
    </g>
    <g id="Group_28683" data-name="Group 28683" transform="translate(167.16 701.94)">
      <rect id="Rectangle_9927" data-name="Rectangle 9927" width="15.664" height="14.687" transform="translate(130.835 272.14)" fill="#6ac7f0"/>
      <path id="Path_74838" data-name="Path 74838" d="M1376.011,2835.729h-15.664a.67.67,0,0,0-.67.67v14.687a.67.67,0,0,0,.67.67h15.664a.67.67,0,0,0,.67-.67V2836.4a.67.67,0,0,0-.67-.67m-.67,14.687h-14.324v-13.347h14.324Z" transform="translate(-1229.512 -2564.259)" fill="#0c335b"/>
      <rect id="Rectangle_9928" data-name="Rectangle 9928" width="15.895" height="14.687" transform="translate(114.94 272.14)" fill="#2196c9"/>
      <path id="Path_74839" data-name="Path 74839" d="M1210.21,2835.729h-15.895a.67.67,0,0,0-.67.67v14.687a.67.67,0,0,0,.67.67h15.895a.67.67,0,0,0,.67-.67V2836.4a.67.67,0,0,0-.67-.67m-.67,14.687h-14.554v-13.347h14.554Z" transform="translate(-1079.375 -2564.259)" fill="#0c335b"/>
      <rect id="Rectangle_9929" data-name="Rectangle 9929" width="15.696" height="14.458" transform="translate(139.132 286.827)" fill="#2196c9"/>
      <path id="Path_74840" data-name="Path 74840" d="M1462.714,2989.146h-15.7a.67.67,0,0,0-.67.67v14.458a.67.67,0,0,0,.67.67h15.7a.67.67,0,0,0,.67-.67v-14.458a.67.67,0,0,0-.67-.67m-.67,14.458h-14.356v-13.118h14.356Z" transform="translate(-1307.887 -2702.989)" fill="#0c335b"/>
      <rect id="Rectangle_9930" data-name="Rectangle 9930" width="27.403" height="14.458" transform="translate(111.729 286.827)" fill="#6ac7f0"/>
      <path id="Path_74841" data-name="Path 74841" d="M1188.177,2989.146h-27.4a.67.67,0,0,0-.67.67v14.458a.67.67,0,0,0,.67.67h27.4a.67.67,0,0,0,.67-.67v-14.458a.67.67,0,0,0-.67-.67m-.67,14.458h-26.063v-13.118h26.063Z" transform="translate(-1049.045 -2702.989)" fill="#0c335b"/>
      <line id="Line_192" data-name="Line 192" y1="9.175" x2="29.116" transform="translate(172.072 122.224)" fill="#c5edf9"/>
      <line id="Line_193" data-name="Line 193" x1="29.116" y1="9.175" transform="translate(201.188 122.224)" fill="#c5edf9"/>
      <g id="Group_38532" data-name="Group 38532">
        <path id="Path_74871" data-name="Path 74871" d="M1916.933,636.8a.622.622,0,0,0-.622.622v58.533a.622.622,0,1,0,1.245,0V637.418a.622.622,0,0,0-.622-.622" transform="translate(-1715.746 -575.834)" fill="#0c335b"/>
        <path id="Path_74872" data-name="Path 74872" d="M1648.386,1269.764l-36.135,11.387a.832.832,0,1,0,.5,1.586l36.135-11.387a.832.832,0,0,0-.5-1.587" transform="translate(-1447.29 -1152.448)" fill="#0c335b"/>
        <path id="Path_74873" data-name="Path 74873" d="M1953.026,1281.152l-36.135-11.387a.832.832,0,0,0-.5,1.587l36.135,11.388a.832.832,0,0,0,.5-1.587" transform="translate(-1715.293 -1152.449)" fill="#0c335b"/>
        <path id="Path_74875" data-name="Path 74875" d="M1886.682,1215.728a4.877,4.877,0,0,0-4.872,4.871v4.752a4.871,4.871,0,1,0,9.743,0V1220.6a4.877,4.877,0,0,0-4.871-4.871m3.208,9.624a3.208,3.208,0,1,1-6.416,0V1220.6a3.208,3.208,0,1,1,6.416,0Z" transform="translate(-1685.335 -1104.867)" fill="#0c335b"/>
      </g>
      <path id="Path_74874" data-name="Path 74874" d="M1892.85,1222.728h0a4.039,4.039,0,0,0-4.039,4.04v4.753a4.04,4.04,0,0,0,8.079,0v-4.753a4.04,4.04,0,0,0-4.04-4.04" transform="translate(-1691.504 -1111.035)" fill="#6ac7f0"/>
      <path id="Path_74876" data-name="Path 74876" d="M238.272,544.944a.622.622,0,0,0-.622.622V678.058a.622.622,0,0,0,1.245,0V545.566a.622.622,0,0,0-.622-.622" transform="translate(-214.899 -492.775)" fill="#0c335b"/>
      <rect id="Rectangle_9934" data-name="Rectangle 9934" width="45.406" height="45.406" transform="translate(68.779 52.791)" fill="#6ac7f0"/>
      <path id="Path_74877" data-name="Path 74877" d="M757.528,544.444H712.122a.67.67,0,0,0-.67.67V590.52a.67.67,0,0,0,.67.67h45.406a.67.67,0,0,0,.67-.67V545.114a.67.67,0,0,0-.67-.67m-.67,45.406H712.792V545.784h44.065Z" transform="translate(-643.344 -492.323)" fill="#0c335b"/>
      <rect id="Rectangle_9935" data-name="Rectangle 9935" width="19.669" height="36.657" transform="translate(94.515 61.54)" fill="#2196c9"/>
      <path id="Path_74878" data-name="Path 74878" d="M1001.08,636.328H981.41a.622.622,0,0,0-.622.622v36.657a.622.622,0,0,0,.622.622h19.67a.622.622,0,0,0,.622-.622V636.95a.622.622,0,0,0-.622-.622m-.622,36.657H982.033V637.573h18.425Z" transform="translate(-886.896 -575.411)" fill="#0c335b"/>
      <rect id="Rectangle_9936" data-name="Rectangle 9936" width="90.812" height="8.748" transform="translate(114.185 52.791)" fill="#6ac7f0"/>
      <path id="Path_74879" data-name="Path 74879" d="M1277.234,544.444h-90.812a.67.67,0,0,0-.67.67v8.748a.67.67,0,0,0,.67.67h90.812a.67.67,0,0,0,.67-.67v-8.748a.67.67,0,0,0-.67-.67m-.67,8.748h-89.471v-7.408h89.471Z" transform="translate(-1072.238 -492.323)" fill="#0c335b"/>
      <rect id="Rectangle_9937" data-name="Rectangle 9937" width="45.406" height="8.748" transform="translate(0.67 52.791)" fill="#6ac7f0"/>
      <path id="Path_74880" data-name="Path 74880" d="M46.076,544.444H.67a.67.67,0,0,0-.67.67v8.748a.67.67,0,0,0,.67.67H46.076a.67.67,0,0,0,.67-.67v-8.748a.67.67,0,0,0-.67-.67m-.67,8.748H1.34v-7.408H45.406Z" transform="translate(0 -492.323)" fill="#0c335b"/>
      <path id="Path_74881" data-name="Path 74881" d="M498.126,1730.693h-22.7a.622.622,0,0,0-.622.622v22.7a.622.622,0,0,0,.622.622h22.7a.622.622,0,0,0,.622-.622v-22.7a.622.622,0,0,0-.622-.622m-.622,22.7H476.046v-21.458H497.5Z" transform="translate(-429.347 -1565.01)" fill="#0c335b"/>
      <path id="Path_74882" data-name="Path 74882" d="M475.863,1730.876a.622.622,0,0,0-.88.88l22.7,22.7a.622.622,0,1,0,.88-.88Z" transform="translate(-429.347 -1565.011)" fill="#0c335b"/>
      <path id="Path_74883" data-name="Path 74883" d="M498.126,1967.844h-22.7a.622.622,0,0,0-.622.622v22.7a.622.622,0,0,0,.622.622h22.7a.622.622,0,0,0,.622-.622v-22.7a.622.622,0,0,0-.622-.622m-.622,22.7H476.046v-21.458H497.5Z" transform="translate(-429.347 -1779.458)" fill="#0c335b"/>
      <path id="Path_74884" data-name="Path 74884" d="M475.863,1968.026a.622.622,0,0,0-.88.88l22.7,22.7a.622.622,0,1,0,.88-.88Z" transform="translate(-429.347 -1779.458)" fill="#0c335b"/>
      <path id="Path_74885" data-name="Path 74885" d="M498.126,1256.394h-22.7a.622.622,0,0,0-.622.622v22.7a.622.622,0,0,0,.622.622h22.7a.622.622,0,0,0,.622-.622v-22.7a.622.622,0,0,0-.622-.622m-.622,22.7H476.046v-21.458H497.5Z" transform="translate(-429.347 -1136.117)" fill="#0c335b"/>
      <path id="Path_74886" data-name="Path 74886" d="M475.863,1256.576a.622.622,0,1,0-.88.88l22.7,22.7a.622.622,0,0,0,.88-.88Z" transform="translate(-429.347 -1136.116)" fill="#0c335b"/>
      <path id="Path_74887" data-name="Path 74887" d="M498.126,1493.544h-22.7a.622.622,0,0,0-.622.622v22.7a.622.622,0,0,0,.622.622h22.7a.622.622,0,0,0,.622-.622v-22.7a.622.622,0,0,0-.622-.622m-.622,22.7H476.046v-21.458H497.5Z" transform="translate(-429.347 -1350.564)" fill="#0c335b"/>
      <path id="Path_74888" data-name="Path 74888" d="M475.863,1493.727a.622.622,0,1,0-.88.88l22.7,22.7a.622.622,0,1,0,.88-.88Z" transform="translate(-429.347 -1350.564)" fill="#0c335b"/>
      <path id="Path_74889" data-name="Path 74889" d="M498.126,2679.294h-22.7a.622.622,0,0,0-.622.622v22.7a.622.622,0,0,0,.622.622h22.7a.622.622,0,0,0,.622-.622v-22.7a.622.622,0,0,0-.622-.622M497.5,2702H476.046v-21.458H497.5Z" transform="translate(-429.347 -2422.799)" fill="#0c335b"/>
      <path id="Path_74890" data-name="Path 74890" d="M475.863,2679.476a.622.622,0,0,0-.88.88l22.7,22.7a.622.622,0,0,0,.88-.88Z" transform="translate(-429.347 -2422.799)" fill="#0c335b"/>
      <path id="Path_74891" data-name="Path 74891" d="M498.126,2204.994h-22.7a.622.622,0,0,0-.622.622v22.7a.622.622,0,0,0,.622.623h22.7a.622.622,0,0,0,.622-.623v-22.7a.622.622,0,0,0-.622-.622m-.622,22.7H476.046v-21.458H497.5Z" transform="translate(-429.347 -1993.905)" fill="#0c335b"/>
      <path id="Path_74892" data-name="Path 74892" d="M475.863,2205.177a.622.622,0,0,0-.88.88l22.7,22.7a.622.622,0,0,0,.88-.88Z" transform="translate(-429.347 -1993.906)" fill="#0c335b"/>
      <path id="Path_74893" data-name="Path 74893" d="M498.126,2442.144h-22.7a.622.622,0,0,0-.622.622v22.7a.622.622,0,0,0,.622.622h22.7a.622.622,0,0,0,.622-.622v-22.7a.622.622,0,0,0-.622-.622m-.622,22.7H476.046v-21.458H497.5Z" transform="translate(-429.347 -2208.353)" fill="#0c335b"/>
      <path id="Path_74894" data-name="Path 74894" d="M475.863,2442.326a.622.622,0,0,0-.88.88l22.7,22.7a.622.622,0,0,0,.88-.88Z" transform="translate(-429.347 -2208.353)" fill="#0c335b"/>
      <path id="Path_74895" data-name="Path 74895" d="M498.126,782.094h-22.7a.622.622,0,0,0-.622.622v22.7a.622.622,0,0,0,.622.622h22.7a.622.622,0,0,0,.622-.622v-22.7a.622.622,0,0,0-.622-.622m-.622,22.7H476.046V783.339H497.5Z" transform="translate(-429.347 -707.222)" fill="#0c335b"/>
      <path id="Path_74896" data-name="Path 74896" d="M475.863,782.277a.622.622,0,0,0-.88.88l22.7,22.7a.622.622,0,0,0,.88-.88Z" transform="translate(-429.347 -707.223)" fill="#0c335b"/>
      <path id="Path_74897" data-name="Path 74897" d="M498.126,1019.244h-22.7a.622.622,0,0,0-.622.622v22.7a.622.622,0,0,0,.622.622h22.7a.622.622,0,0,0,.622-.622v-22.7a.622.622,0,0,0-.622-.622m-.622,22.7H476.046v-21.458H497.5Z" transform="translate(-429.347 -921.669)" fill="#0c335b"/>
      <path id="Path_74898" data-name="Path 74898" d="M475.863,1019.426a.622.622,0,0,0-.88.88l22.7,22.7a.622.622,0,1,0,.88-.88Z" transform="translate(-429.347 -921.67)" fill="#0c335b"/>
      <path id="Path_74899" data-name="Path 74899" d="M498.126,544.944h-22.7a.622.622,0,0,0-.622.622v22.7a.622.622,0,0,0,.622.622h22.7a.622.622,0,0,0,.622-.622v-22.7a.622.622,0,0,0-.622-.622m-.622,22.7H476.046V546.189H497.5Z" transform="translate(-429.347 -492.775)" fill="#0c335b"/>
      <path id="Path_74900" data-name="Path 74900" d="M475.863,545.127a.622.622,0,1,0-.88.88l22.7,22.7a.622.622,0,0,0,.88-.88Z" transform="translate(-429.347 -492.775)" fill="#0c335b"/>
      <rect id="Rectangle_9938" data-name="Rectangle 9938" width="47.483" height="7.276" transform="translate(33.686 279.82)" fill="#2196c9"/>
      <path id="Path_74901" data-name="Path 74901" d="M393.029,2915.943H345.546a.67.67,0,0,0-.67.67v7.276a.67.67,0,0,0,.67.67h47.483a.67.67,0,0,0,.67-.67v-7.276a.67.67,0,0,0-.67-.67m-.67,7.276H346.216v-5.935h46.143Z" transform="translate(-311.86 -2636.794)" fill="#0c335b"/>
      <rect id="Rectangle_9939" data-name="Rectangle 9939" width="58.003" height="14.148" transform="translate(28.426 287.095)" fill="#6ac7f0"/>
      <path id="Path_74902" data-name="Path 74902" d="M349.055,2992.443h-58a.622.622,0,0,0-.622.622v14.148a.622.622,0,0,0,.622.622h58a.622.622,0,0,0,.622-.622v-14.148a.622.622,0,0,0-.622-.622m-.622,14.148H291.673v-12.9h56.759Z" transform="translate(-262.626 -2705.97)" fill="#0c335b"/>
      <path id="Path_74903" data-name="Path 74903" d="M735.277,307.794h-22.7a.622.622,0,0,0-.622.622v22.7a.622.622,0,0,0,.622.622h22.7a.622.622,0,0,0,.622-.622v-22.7a.622.622,0,0,0-.622-.622m-.622,22.7H713.2V309.039h21.458Z" transform="translate(-643.795 -278.328)" fill="#0c335b"/>
      <path id="Path_74904" data-name="Path 74904" d="M713.014,307.977a.622.622,0,0,0-.88.88l22.7,22.7a.622.622,0,0,0,.88-.88Z" transform="translate(-643.795 -278.328)" fill="#0c335b"/>
      <path id="Path_74905" data-name="Path 74905" d="M972.427,307.794h-22.7a.622.622,0,0,0-.622.622v22.7a.622.622,0,0,0,.622.622h22.7a.622.622,0,0,0,.622-.622v-22.7a.622.622,0,0,0-.622-.622m-.622,22.7H950.346V309.039H971.8Z" transform="translate(-858.243 -278.328)" fill="#0c335b"/>
      <path id="Path_74906" data-name="Path 74906" d="M950.164,307.977a.622.622,0,0,0-.88.88l22.7,22.7a.622.622,0,0,0,.88-.88Z" transform="translate(-858.242 -278.328)" fill="#0c335b"/>
      <path id="Path_74907" data-name="Path 74907" d="M260.975,307.794h-22.7a.622.622,0,0,0-.622.622v22.7a.622.622,0,0,0,.622.622h22.7a.622.622,0,0,0,.622-.622v-22.7a.622.622,0,0,0-.622-.622m-.622,22.7H238.895V309.039h21.458Z" transform="translate(-214.899 -278.328)" fill="#0c335b"/>
      <path id="Path_74908" data-name="Path 74908" d="M238.713,307.977a.622.622,0,0,0-.88.88l22.7,22.7a.622.622,0,1,0,.88-.88Z" transform="translate(-214.9 -278.328)" fill="#0c335b"/>
      <path id="Path_74909" data-name="Path 74909" d="M475.994.37A.622.622,0,0,0,474.8.618V52.787a.622.622,0,0,0,.622.622h22.7a.622.622,0,0,0,.571-.871Zm.052,51.795V3.608l21.131,48.557Z" transform="translate(-429.347 0.004)" fill="#0c335b"/>
      <path id="Path_74910" data-name="Path 74910" d="M24.063,307.841a.622.622,0,0,0-.678.135l-22.7,22.7a.622.622,0,0,0,.44,1.062h22.7a.622.622,0,0,0,.622-.622v-22.7a.622.622,0,0,0-.384-.575M23.2,330.5H2.624L23.2,309.919Z" transform="translate(-0.451 -278.328)" fill="#0c335b"/>
      <path id="Path_74911" data-name="Path 74911" d="M1683.878,307.794h-22.7a.622.622,0,0,0-.622.622v22.7a.622.622,0,0,0,.622.622h22.7a.622.622,0,0,0,.622-.622v-22.7a.622.622,0,0,0-.622-.622m-.622,22.7H1661.8V309.039h21.458Z" transform="translate(-1501.585 -278.328)" fill="#0c335b"/>
      <path id="Path_74912" data-name="Path 74912" d="M1661.615,307.977a.622.622,0,0,0-.88.88l22.7,22.7a.622.622,0,0,0,.88-.88Z" transform="translate(-1501.584 -278.328)" fill="#0c335b"/>
      <path id="Path_74913" data-name="Path 74913" d="M1209.577,307.794h-22.7a.622.622,0,0,0-.622.622v22.7a.622.622,0,0,0,.622.622h22.7a.622.622,0,0,0,.622-.622v-22.7a.622.622,0,0,0-.622-.622m-.622,22.7H1187.5V309.039h21.458Z" transform="translate(-1072.69 -278.328)" fill="#0c335b"/>
      <path id="Path_74914" data-name="Path 74914" d="M1187.315,307.977a.622.622,0,1,0-.88.88l22.7,22.7a.622.622,0,0,0,.88-.88Z" transform="translate(-1072.69 -278.328)" fill="#0c335b"/>
      <path id="Path_74915" data-name="Path 74915" d="M1446.728,307.794h-22.7a.622.622,0,0,0-.622.622v22.7a.622.622,0,0,0,.622.622h22.7a.622.622,0,0,0,.622-.622v-22.7a.622.622,0,0,0-.622-.622m-.623,22.7h-21.458V309.039h21.458Z" transform="translate(-1287.138 -278.328)" fill="#0c335b"/>
      <path id="Path_74916" data-name="Path 74916" d="M1424.465,307.977a.622.622,0,1,0-.88.88l22.7,22.7a.622.622,0,1,0,.88-.88Z" transform="translate(-1287.138 -278.328)" fill="#0c335b"/>
      <path id="Path_74917" data-name="Path 74917" d="M1898.766,307.976a.622.622,0,0,0-1.062.44v22.7a.622.622,0,0,0,.622.622h22.7a.622.622,0,0,0,.44-1.062Zm.182,22.521V309.918l20.578,20.578Z" transform="translate(-1716.033 -278.328)" fill="#0c335b"/>
      <path id="Path_74918" data-name="Path 74918" d="M397.324,29.477,261.107.011a.622.622,0,0,0-.624.228l-22.7,29.466a.622.622,0,1,0,.986.76L261.228,1.31,397.061,30.693a.622.622,0,0,0,.263-1.216" transform="translate(-214.899 0.003)" fill="#0c335b"/>
      <path id="Path_74919" data-name="Path 74919" d="M205.521,1935.435a4.09,4.09,0,1,0,4.089,4.09,4.09,4.09,0,0,0-4.089-4.09" transform="translate(-182.149 -1750.151)" fill="#6ac7f0"/>
      <path id="Path_74920" data-name="Path 74920" d="M199.192,1928.434a4.76,4.76,0,1,0,4.76,4.76,4.765,4.765,0,0,0-4.76-4.76m0,8.179a3.419,3.419,0,1,1,3.419-3.419,3.423,3.423,0,0,1-3.419,3.419" transform="translate(-175.819 -1743.821)" fill="#0c335b"/>
      <g id="Group_28692" data-name="Group 28692" transform="translate(161.359 128.665)">
        <rect id="Rectangle_8854" data-name="Rectangle 8854" width="79.657" height="37.019" rx="2.123" transform="translate(0)" fill="#b1e7ff"/>
      </g>
      <g id="Group_38533" data-name="Group 38533" transform="translate(76.616 -143.624)">
        <path id="Path_105140" data-name="Path 105140" d="M490.2,1328.71l11.07-4.961v3.734l-7.023,2.768,7.023,2.767v3.76l-11.07-4.961Z" transform="translate(-384.065 -1038.665)" fill="#0c335b"/>
        <path id="Path_105141" data-name="Path 105141" d="M569.956,1316.458H566.17l7.807-22.4h3.786Z" transform="translate(-447.478 -1013.88)" fill="#0c335b"/>
        <path id="Path_105142" data-name="Path 105142" d="M656.371,1331.817l-11.07,4.961v-3.76l7.023-2.767-7.023-2.768v-3.734l11.07,4.961Z" transform="translate(-513.528 -1038.665)" fill="#0c335b"/>
      </g>
    </g>
    <g id="Group_28700" data-name="Group 28700" transform="translate(529.032 884.2)">
      <rect id="Rectangle_9923" data-name="Rectangle 9923" width="27.479" height="23.512" transform="translate(15.225 39.135)" fill="#6ac7f0"/>
      <path id="Path_74834" data-name="Path 74834" d="M3410.205,2362.362h-27.479a.662.662,0,0,0-.662.662v23.512a.662.662,0,0,0,.662.662h27.479a.662.662,0,0,0,.662-.662v-23.512a.662.662,0,0,0-.662-.662m-.662,23.512h-26.155v-22.188h26.155Z" transform="translate(-3367.501 -2323.889)" fill="#0c335b"/>
      <rect id="Rectangle_9924" data-name="Rectangle 9924" width="27.883" height="23.512" transform="translate(42.704 39.135)" fill="#2196c9"/>
      <path id="Path_74835" data-name="Path 74835" d="M3701.179,2362.362H3673.3a.662.662,0,0,0-.662.662v23.512a.662.662,0,0,0,.662.662h27.884a.662.662,0,0,0,.662-.662v-23.512a.662.662,0,0,0-.662-.662m-.662,23.512h-26.56v-22.188h26.56Z" transform="translate(-3630.592 -2323.889)" fill="#0c335b"/>
      <rect id="Rectangle_9925" data-name="Rectangle 9925" width="27.534" height="50.003" transform="translate(0.614 62.647)" fill="#2196c9"/>
      <path id="Path_74836" data-name="Path 74836" d="M3256.212,2611.486h-27.534a.615.615,0,0,0-.615.615v50a.614.614,0,0,0,.615.614h27.534a.615.615,0,0,0,.615-.614v-50a.615.615,0,0,0-.615-.615m-.615,50h-26.3v-48.773h26.3Z" transform="translate(-3228.063 -2549.454)" fill="#0c335b"/>
      <rect id="Rectangle_9926" data-name="Rectangle 9926" width="48.072" height="50.003" transform="translate(28.149 62.647)" fill="#6ac7f0"/>
      <path id="Path_74837" data-name="Path 74837" d="M3567.906,2611.486h-48.072a.615.615,0,0,0-.614.615v50a.614.614,0,0,0,.614.614h48.072a.614.614,0,0,0,.615-.614v-50a.615.615,0,0,0-.615-.615m-.614,50h-46.843v-48.773h46.843Z" transform="translate(-3491.686 -2549.454)" fill="#0c335b"/>
      <rect id="Rectangle_9931" data-name="Rectangle 9931" width="11.359" height="14.936" transform="translate(84.155 0.615)" fill="#2196c9"/>
      <path id="Path_74842" data-name="Path 74842" d="M4123.423,1955.537h-11.359a.615.615,0,0,0-.615.615v14.936a.615.615,0,0,0,.615.615h11.359a.615.615,0,0,0,.614-.615v-14.936a.614.614,0,0,0-.614-.615m-.615,14.936h-10.129v-13.707h10.129Z" transform="translate(-4027.909 -1955.537)" fill="#0c335b"/>
      <rect id="Rectangle_9932" data-name="Rectangle 9932" width="11.359" height="14.936" transform="translate(95.515 0.615)" fill="#6ac7f0"/>
      <path id="Path_74843" data-name="Path 74843" d="M4243.538,1955.537h-11.359a.614.614,0,0,0-.615.615v14.936a.615.615,0,0,0,.615.615h11.359a.615.615,0,0,0,.615-.615v-14.936a.615.615,0,0,0-.615-.615m-.614,14.936h-10.129v-13.707h10.129Z" transform="translate(-4136.666 -1955.537)" fill="#0c335b"/>
      <path id="Path_74844" data-name="Path 74844" d="M4235.114,2166.217l22.844,92.768h4.062l-22.845-92.768Z" transform="translate(-4139.879 -2146.293)" fill="#2196c9"/>
      <path id="Path_74845" data-name="Path 74845" d="M4233.887,2160.185a.616.616,0,0,0-.6-.468h-4.06a.615.615,0,0,0-.6.762l22.844,92.768a.616.616,0,0,0,.6.468h4.062a.614.614,0,0,0,.6-.762Zm18.668,92.3-22.542-91.538h2.795l22.542,91.538Z" transform="translate(-4133.993 -2140.408)" fill="#0c335b"/>
      <path id="Path_74846" data-name="Path 74846" d="M4278.9,2159.717h-18.505a.615.615,0,1,0,0,1.229H4278.9a.615.615,0,1,0,0-1.229" transform="translate(-4162.21 -2140.408)" fill="#1977cc"/>
      <path id="Path_74847" data-name="Path 74847" d="M4309.471,2282.336h-18.505a.615.615,0,0,0,0,1.229h18.505a.615.615,0,1,0,0-1.229" transform="translate(-4189.894 -2251.431)" fill="#0c335b"/>
      <path id="Path_74848" data-name="Path 74848" d="M4431.761,2772.813h-18.506a.615.615,0,0,0,0,1.23h18.506a.615.615,0,0,0,0-1.23" transform="translate(-4300.617 -2695.524)" fill="#0c335b"/>
      <path id="Path_74849" data-name="Path 74849" d="M4340.044,2404.955h-18.506a.615.615,0,1,0,0,1.229h18.506a.615.615,0,0,0,0-1.229" transform="translate(-4217.572 -2362.454)" fill="#0c335b"/>
      <path id="Path_74850" data-name="Path 74850" d="M4462.333,2895.432h-18.506a.615.615,0,0,0,0,1.23h18.506a.615.615,0,1,0,0-1.23" transform="translate(-4328.298 -2806.547)" fill="#0c335b"/>
      <path id="Path_74851" data-name="Path 74851" d="M4370.616,2527.574H4352.11a.615.615,0,0,0,0,1.229h18.506a.615.615,0,1,0,0-1.229" transform="translate(-4245.255 -2473.477)" fill="#0c335b"/>
      <path id="Path_74852" data-name="Path 74852" d="M4401.188,2650.193h-18.505a.615.615,0,1,0,0,1.229h18.505a.615.615,0,1,0,0-1.229" transform="translate(-4272.935 -2584.5)" fill="#0c335b"/>
      <path id="Path_74853" data-name="Path 74853" d="M4523.479,3140.67h-18.505a.615.615,0,1,0,0,1.229h18.505a.615.615,0,1,0,0-1.229" transform="translate(-4383.66 -3028.593)" fill="#0c335b"/>
      <path id="Path_74854" data-name="Path 74854" d="M4492.906,3018.051H4474.4a.615.615,0,0,0,0,1.229h18.506a.615.615,0,0,0,0-1.229" transform="translate(-4355.979 -2917.57)" fill="#0c335b"/>
      <path id="Path_74855" data-name="Path 74855" d="M4443.2,2166.217l22.844,92.768h4.062l-22.845-92.768Z" transform="translate(-4328.282 -2146.293)" fill="#2196c9"/>
      <path id="Path_74856" data-name="Path 74856" d="M4441.966,2160.185a.614.614,0,0,0-.6-.468h-4.06a.615.615,0,0,0-.6.762l22.844,92.768a.614.614,0,0,0,.6.468h4.061a.614.614,0,0,0,.6-.762Zm18.669,92.3-22.542-91.538h2.795l22.542,91.538Z" transform="translate(-4322.396 -2140.408)" fill="#0c335b"/>
      <path id="Path_74857" data-name="Path 74857" d="M3871.345,2258.984h4.06l22.845-92.768h-4.061Z" transform="translate(-3810.512 -2146.293)" fill="#2196c9"/>
      <path id="Path_74858" data-name="Path 74858" d="M3892.364,2159.717H3888.3a.615.615,0,0,0-.6.468l-22.844,92.768a.614.614,0,0,0,.6.762h4.061a.615.615,0,0,0,.6-.468l22.844-92.768a.615.615,0,0,0-.6-.762m-23.326,92.768h-2.794l22.542-91.538h2.795Z" transform="translate(-3804.625 -2140.408)" fill="#0c335b"/>
      <path id="Path_74859" data-name="Path 74859" d="M4149.7,2159.717h-18.506a.615.615,0,1,0,0,1.229H4149.7a.615.615,0,1,0,0-1.229" transform="translate(-4045.227 -2140.408)" fill="#1977cc"/>
      <path id="Path_74860" data-name="Path 74860" d="M4119.124,2282.336h-18.506a.615.615,0,1,0,0,1.229h18.506a.615.615,0,0,0,0-1.229" transform="translate(-4017.544 -2251.431)" fill="#0c335b"/>
      <path id="Path_74861" data-name="Path 74861" d="M3996.835,2772.813h-18.506a.615.615,0,0,0,0,1.23h18.506a.615.615,0,0,0,0-1.23" transform="translate(-3906.822 -2695.524)" fill="#0c335b"/>
      <path id="Path_74862" data-name="Path 74862" d="M4088.552,2404.955h-18.507a.615.615,0,0,0,0,1.229h18.507a.615.615,0,1,0,0-1.229" transform="translate(-3989.864 -2362.454)" fill="#0c335b"/>
      <path id="Path_74863" data-name="Path 74863" d="M3966.261,2895.432h-18.505a.615.615,0,0,0,0,1.23h18.505a.615.615,0,1,0,0-1.23" transform="translate(-3879.139 -2806.547)" fill="#0c335b"/>
      <path id="Path_74864" data-name="Path 74864" d="M4057.98,2527.574h-18.506a.615.615,0,1,0,0,1.229h18.506a.615.615,0,0,0,0-1.229" transform="translate(-3962.184 -2473.477)" fill="#0c335b"/>
      <path id="Path_74865" data-name="Path 74865" d="M4027.408,2650.193H4008.9a.615.615,0,1,0,0,1.229h18.506a.615.615,0,1,0,0-1.229" transform="translate(-3934.503 -2584.5)" fill="#0c335b"/>
      <path id="Path_74866" data-name="Path 74866" d="M3905.118,3140.67h-18.505a.615.615,0,1,0,0,1.229h18.505a.615.615,0,1,0,0-1.229" transform="translate(-3823.777 -3028.593)" fill="#0c335b"/>
      <path id="Path_74867" data-name="Path 74867" d="M3935.69,3018.051h-18.506a.615.615,0,0,0,0,1.229h18.506a.615.615,0,0,0,0-1.229" transform="translate(-3851.458 -2917.57)" fill="#0c335b"/>
      <path id="Path_74868" data-name="Path 74868" d="M4079.426,2258.984h4.06l22.845-92.768h-4.061Z" transform="translate(-3998.914 -2146.293)" fill="#6ac7f0"/>
      <path id="Path_74869" data-name="Path 74869" d="M4100.445,2159.717h-4.061a.616.616,0,0,0-.6.468l-22.844,92.768a.614.614,0,0,0,.6.762h4.061a.615.615,0,0,0,.6-.468l22.844-92.768a.614.614,0,0,0-.6-.762m-23.326,92.768h-2.795l22.542-91.538h2.795Z" transform="translate(-3993.028 -2140.408)" fill="#0c335b"/>
      <rect id="Rectangle_9933" data-name="Rectangle 9933" width="42.675" height="4.373" transform="translate(79.989 15.551)" fill="#6ac7f0"/>
      <path id="Path_74870" data-name="Path 74870" d="M4110.683,2113.477h-42.675a.615.615,0,0,0-.615.615v4.373a.615.615,0,0,0,.615.615h42.675a.615.615,0,0,0,.615-.615v-4.373a.614.614,0,0,0-.615-.615m-.614,4.373h-41.446v-3.144h41.446Z" transform="translate(-3988.019 -2098.541)" fill="#0c335b"/>
    </g>
  </g>
</svg>
