<svg id="ebpf_white" xmlns="http://www.w3.org/2000/svg" width="88.008" height="30.635" viewBox="0 0 88.008 30.635">
  <path id="Path_38495" data-name="Path 38495" d="M29.08,6.866a1.3,1.3,0,0,0-.893.394A7.96,7.96,0,0,1,24.078,9.4a.8.8,0,0,1-.56-.187,8.188,8.188,0,0,0-3.217-2.2c-.332-.125-.374-.332-.394-.623A8.227,8.227,0,0,1,20.8,1.843c.415-.768.353-1.017-.27-1.557h-.623a7.416,7.416,0,0,0-.623.789A9.392,9.392,0,0,0,18.2,6.265v.27a5.352,5.352,0,0,0-5.168,2.7c-.83-.166-1.64-.374-2.47-.5a15.492,15.492,0,0,0-7.223.415A4.462,4.462,0,0,0,0,12.18v1.142c.664,2.553,2.553,3.944,4.774,5,0,.062,0,.1-.021.125-.021.083-.062.166-.083.249a7.07,7.07,0,0,0,1.266,7.535,1.012,1.012,0,0,1,.249.976c-.208,1.017-.374,2.013-.56,3.113,1.017-.519,1.972-.976,2.906-1.453a.9.9,0,0,1,.913-.021,6.963,6.963,0,0,0,5.957.1c.706-.311,1.349-.789,2.055-1.183.062.083.166.187.249.291a8.438,8.438,0,0,0,4.151,2.7,3.516,3.516,0,0,0,4.649-2.781,7.721,7.721,0,0,0,.166-1.391,13.838,13.838,0,0,0-1.1-5.791c-.5-1.2-1.121-2.345-1.681-3.57,1.723-1.806,1.785-3.923.872-6.206.249-.083.436-.125.623-.187A9.286,9.286,0,0,0,29.5,8.319a1.131,1.131,0,0,0,.249-.913A.978.978,0,0,0,29.08,6.866ZM11.4,18.594a10.2,10.2,0,0,0,3.425-1.93c.457.353.893.664,1.266.955-.249.976-.5,1.91-.706,2.864a7.423,7.423,0,0,0-.083.976c-.021.291-.145.415-.457.436a4.064,4.064,0,0,1-3.674-2.781C11.1,18.843,11.1,18.677,11.4,18.594ZM7.784,17.286A4.363,4.363,0,0,1,9.61,13.529a.707.707,0,0,1,.415-.166c1.557.166,3.093.332,4.691.519C13.886,15.937,10.191,17.7,7.784,17.286ZM6.455,10.25a16.053,16.053,0,0,1,7.452,1.162c.955.394,1.287.893,1.225,1.64,0,.042-.042.1-.042.125-1.142-.166-2.283-.353-3.425-.5a21.866,21.866,0,0,0-5.21.042,1.358,1.358,0,0,1-.851-.187,3.749,3.749,0,0,1-1.453-1.91C4.919,10.5,5.687,10.312,6.455,10.25Zm-3.176.809c.477.664.934,1.308,1.411,1.93-.81.311-1.681.643-2.574,1A1.8,1.8,0,0,1,3.28,11.059Zm-.643,3.653a13.449,13.449,0,0,1,5.708-1.349,16.124,16.124,0,0,0-.976,1.744,14.275,14.275,0,0,0-.5,2.013A6.885,6.885,0,0,1,2.636,14.712Zm8.718,12.952a7.045,7.045,0,0,1-5.334-4.982,4.82,4.82,0,0,1,.228-3.28c.1-.249.145-.519.54-.477.374.042.457.249.54.56a7.535,7.535,0,0,0,5.438,5.874,9.787,9.787,0,0,0,2.7.291c.5,0,.768.125.872.664A5.2,5.2,0,0,1,11.354,27.665ZM17.6,24.572c-1.121-2.2-.519-6.04,1.183-7.535a18.7,18.7,0,0,1,1.889,4.338c.1.374-.208.913-.457,1.328A4.448,4.448,0,0,1,17.6,24.572Zm3.923,4.3a7.043,7.043,0,0,1-3.549-3.549,5.621,5.621,0,0,0,3.134-2.491A14.526,14.526,0,0,1,21.525,28.868Zm.81.249c.083-.934.166-1.868.228-2.761.685.228,1.37.436,2.055.664a.363.363,0,0,1,.208.311A1.818,1.818,0,0,1,22.334,29.117Zm2.595-3.446c0,.125.021.249.021.353,0,.042-.021.1-.042.27a13.232,13.232,0,0,1-1.453-.5A1.866,1.866,0,0,1,22.23,24.24,22.052,22.052,0,0,0,19.7,17.016c-.1-.187-.187-.353-.291-.54a1.131,1.131,0,0,1,1.619.166,14.623,14.623,0,0,1,1.744,2.345A14.946,14.946,0,0,1,24.929,25.672Z" transform="translate(0 -0.287)" fill="#fff"/>
  <path id="Path_38496" data-name="Path 38496" d="M112.059,36.784a9.033,9.033,0,0,0-1.494-.685c.1-.042.228-.1.332-.145a3.5,3.5,0,0,0,2.283-3.383,3.728,3.728,0,0,0-2.013-3.674,6.265,6.265,0,0,0-3.01-.664c-2.532-.021-5.085,0-7.617,0-.145,0-.291.021-.477.021v.6c0,2.636,0,5.272-.021,7.908a1.292,1.292,0,0,1-.166.685,12.087,12.087,0,0,1-4.566,4.11,6.258,6.258,0,0,1-4.359.726,3.683,3.683,0,0,1-2.885-3.051c.166-.042.332-.062.477-.1A29.716,29.716,0,0,0,91.925,37.9a8,8,0,0,0,3.8-3.466,2.81,2.81,0,0,0-1.432-4.048,4.53,4.53,0,0,0-3.674.042,8.27,8.27,0,0,0-4.961,8.739,6.138,6.138,0,0,0,6.082,5.376A9.375,9.375,0,0,0,97.9,42.368a27.827,27.827,0,0,0,2.117-2.034v4.421a3.38,3.38,0,0,0,.374.042c2.657,0,5.314.021,7.991-.021a8.909,8.909,0,0,0,2.346-.353,3.933,3.933,0,0,0,3.01-3.446A4,4,0,0,0,112.059,36.784ZM89.725,33.629a4.481,4.481,0,0,1,2.968-1.619,2.155,2.155,0,0,1,.726.062,1.1,1.1,0,0,1,.789,1.723,6.665,6.665,0,0,1-2.968,2.7,8.533,8.533,0,0,1-3.363,1.059A6.285,6.285,0,0,1,89.725,33.629Zm14.239-2.1c1.37,0,2.7-.062,4.027.021a1.3,1.3,0,0,1,1.183,1.494,1.417,1.417,0,0,1-1.37,1.515c-1.266.062-2.532.021-3.84.021Zm4.172,9.922c-1.287.1-2.574.062-3.882.062-.1,0-.27-.208-.27-.311-.021-1.1-.021-2.2-.021-3.363,1.411,0,2.74-.042,4.048.021a1.814,1.814,0,0,1,.124,3.591Z" transform="translate(-55.082 -18.269)" fill="#fff"/>
  <path id="Path_38497" data-name="Path 38497" d="M180.509,28.493a8.954,8.954,0,0,0-2.1-.291c-2.387-.042-4.774-.021-7.14-.021-.1,0-.208.021-.311.021a.887.887,0,0,0-.042.228V44.413c0,.332.145.394.436.394q1.556-.031,3.113,0c.394,0,.456-.166.456-.5-.021-1.494,0-2.989,0-4.5,0-.187.021-.374.021-.6h2.989a7.637,7.637,0,0,0,3.653-.789c2.18-1.225,2.761-3.217,2.595-5.542A4.667,4.667,0,0,0,180.509,28.493ZM178.5,35.737a34.076,34.076,0,0,1-3.57.021V31.585c1.163,0,2.263-.042,3.363.021a1.831,1.831,0,0,1,1.806,1.951A1.887,1.887,0,0,1,178.5,35.737Z" transform="translate(-110.019 -18.239)" fill="#fff"/>
  <path id="Path_38498" data-name="Path 38498" d="M225.626,31.774V28.307H213.8V44.892c1.162,0,2.3-.021,3.445,0,.394,0,.5-.1.5-.5-.021-1.785,0-3.549,0-5.334v-.6h1.515c1.66,0,3.321,0,4.982-.021.145,0,.436-.166.436-.249.042-1.038.021-2.055.021-3.155H217.78v-3.3C220.4,31.774,223.011,31.774,225.626,31.774Z" transform="translate(-137.618 -18.323)" fill="#fff"/>
</svg>
