<svg id="Hero_Graphic" data-name="Hero Graphic" xmlns="http://www.w3.org/2000/svg" xmlns:xlink="http://www.w3.org/1999/xlink" width="1174.374" height="598.519" viewBox="0 0 1174.374 598.519">
  <defs>
    <linearGradient id="linear-gradient" x1="0.5" x2="0.5" y2="1" gradientUnits="objectBoundingBox">
      <stop offset="0" stop-color="#0f7fb1"/>
      <stop offset="0.207" stop-color="#2196c9"/>
      <stop offset="0.458" stop-color="#54b7e3"/>
      <stop offset="1" stop-color="#0dce93"/>
    </linearGradient>
  </defs>
  <path id="Path_74922" data-name="Path 74922" d="M1410.645,342.519l-47.957-27.688V259.455l47.957-27.687,47.955,27.687v55.375ZM1364.821,313.6l45.824,26.46,45.827-26.46V260.684l-45.827-26.456-45.824,26.456Z" transform="translate(-565.585 -96.196)" fill="#ffb831"/>
  <path id="Path_74924" data-name="Path 74924" d="M1089.994,527.648l-47.957-27.688V444.586l47.957-27.687,47.955,27.687V499.96Zm-45.829-28.916,45.829,26.457,45.824-26.457V445.814l-45.824-26.456-45.829,26.456Z" transform="translate(-432.499 -173.035)" fill="#ffb831"/>
  <path id="Path_74925" data-name="Path 74925" d="M1570.974,249.954l-47.958-27.687V166.894l47.958-27.688,47.956,27.688v55.372Zm-45.83-28.916,45.83,26.458,45.826-26.458V168.124l-45.826-26.459-45.83,26.459Z" transform="translate(-632.13 -57.778)" fill="#0f7fb1"/>
  <path id="Path_74927" data-name="Path 74927" d="M1410.645,620.214l-47.957-27.69V537.151l47.957-27.688,47.955,27.688v55.372ZM1364.821,591.3l45.824,26.46,45.827-26.46V538.379l-45.827-26.459-45.824,26.459Z" transform="translate(-565.585 -211.454)" fill="#0f7fb1"/>
  <path id="Path_74928" data-name="Path 74928" d="M1330.484,759.477l-47.955-27.69V676.413l47.955-27.687,47.956,27.687v55.374l-.533.307Zm-45.828-28.919,45.828,26.457,45.825-26.457V677.643l-45.825-26.458-45.828,26.458Z" transform="translate(-532.315 -269.255)" fill="#0f7fb1"/>
  <path id="Path_74929" data-name="Path 74929" d="M1170.156,295.884,1122.2,268.2V212.82l47.957-27.687,47.955,27.687V268.2Zm-45.824-28.92,45.824,26.461,45.829-26.461V214.049l-45.829-26.457-45.824,26.457Z" transform="translate(-465.77 -76.84)" fill="#0f7fb1"/>
  <path id="Path_74930" data-name="Path 74930" d="M1570.974,435.085,1523.016,407.4V352.021l47.958-27.688,47.956,27.688V407.4Zm-45.83-28.919,45.83,26.459,45.826-26.459V353.25l-45.826-26.459-45.83,26.459Z" transform="translate(-632.13 -134.615)" fill="#0f7fb1"/>
  <path id="Path_74933" data-name="Path 74933" d="M1170.156,852.04,1122.2,824.351V768.979l.535-.309,47.422-27.381,47.955,27.69v55.372l-.531.309Zm-45.824-28.917,45.824,26.46,45.829-26.46V770.208l-45.829-26.459-45.824,26.459Z" transform="translate(-465.77 -307.673)" fill="#0f7fb1"/>
  <path id="Path_74935" data-name="Path 74935" d="M929.666,435.085l-47.958-27.691V352.019l47.958-27.686,47.954,27.686v55.375ZM883.84,406.166l45.826,26.459,45.827-26.459V353.25l-45.827-26.459L883.84,353.25Z" transform="translate(-365.953 -134.615)" fill="#ffb831"/>
  <path id="Path_74937" data-name="Path 74937" d="M1330.484,203.317l-47.955-27.687V120.254l47.955-27.688,47.956,27.688v55.375ZM1284.656,174.4l45.828,26.458,45.825-26.458V121.483l-45.825-26.457-45.828,26.457Z" transform="translate(-532.315 -38.42)" fill="#ffb831"/>
  <path id="Path_74939" data-name="Path 74939" d="M1490.808,110.752l-47.957-27.689V27.69L1490.808,0l47.959,27.689V83.064Zm-45.826-28.918,45.826,26.46,45.828-26.46V28.92L1490.808,2.462,1444.982,28.92Z" transform="translate(-598.856 -0.001)" fill="#0f7fb1"/>
  <path id="Path_74940" data-name="Path 74940" d="M769.339,342.519,721.38,314.831V259.455l47.959-27.687,47.956,27.687v55.375ZM723.511,313.6l45.828,26.458L815.164,313.6V260.684l-45.826-26.458-45.828,26.458Z" transform="translate(-299.41 -96.196)" fill="#0f7fb1"/>
  <path id="Path_74941" data-name="Path 74941" d="M1570.974,805.345l-47.958-27.689V722.283l.534-.309,47.425-27.38,47.956,27.689v55.374l-.535.307Zm-45.83-28.918,45.83,26.456,45.826-26.456V723.512l-45.826-26.459-45.83,26.459Z" transform="translate(-632.13 -288.292)" fill="#0f7fb1"/>
  <path id="Path_74943" data-name="Path 74943" d="M689.176,666.913l-47.955-27.689V583.849l47.955-27.689,47.956,27.689v55.375ZM643.35,637.994l45.826,26.457L735,637.994V585.079l-45.827-26.458L643.35,585.079Z" transform="translate(-266.14 -230.835)" fill="#ffb831"/>
  <path id="Path_74946" data-name="Path 74946" d="M1089.994,712.778l-47.957-27.687V629.715l47.957-27.688,47.955,27.688v55.377l-.531.306Zm-45.829-28.915,45.829,26.454,45.824-26.454V630.945l-45.824-26.46-45.829,26.46Z" transform="translate(-432.499 -249.873)" fill="#0f7fb1"/>
  <path id="Path_74947" data-name="Path 74947" d="M368.607,481.348,320.651,453.66V398.285L368.607,370.6l47.958,27.689V453.66l-.534.307ZM322.781,452.43l45.826,26.457,45.828-26.457V399.514l-45.828-26.46-45.826,26.46Z" transform="translate(-133.086 -153.817)" fill="#ffb831"/>
  <path id="Path_74948" data-name="Path 74948" d="M208.054,388.728,160.1,361.041V305.666l47.956-27.689,47.957,27.689v55.375l-.533.308Zm-45.826-28.916,45.826,26.457,45.826-26.457V306.9l-45.826-26.458L162.229,306.9Z" transform="translate(-66.449 -115.375)" fill="#0f7fb1"/>
  <path id="Path_74949" data-name="Path 74949" d="M208.295,759.486,160.339,731.8V676.424l47.956-27.69,47.958,27.69V731.8l-.534.311Zm-45.826-28.919,45.826,26.457,45.829-26.457V677.653l-45.829-26.458-45.826,26.458Z" transform="translate(-66.549 -269.258)" fill="#ffb831"/>
  <path id="Path_74950" data-name="Path 74950" d="M368.619,572.294l-47.956-27.687V489.23l47.956-27.687,47.955,27.687v55.377l-.532.307Zm-45.828-28.918,45.828,26.457,45.826-26.457V490.459L368.619,464l-45.828,26.457Z" transform="translate(-133.091 -191.564)" fill="#0f7fb1"/>
  <g id="Group_28702" data-name="Group 28702" transform="translate(0 0.008)" opacity="0.197">
    <path id="Path_74951" data-name="Path 74951" d="M1731.3,342.563l-47.956-27.687V259.5l47.956-27.688,47.958,27.688v55.374Zm-45.825-28.916L1731.3,340.1l45.829-26.457V260.732L1731.3,234.274l-45.825,26.458Z" transform="translate(-698.674 -96.223)" fill="url(#linear-gradient)"/>
    <path id="Path_74952" data-name="Path 74952" d="M1731.285,712.791,1683.326,685.1V629.729l47.959-27.686,47.955,27.686V685.1Zm-45.828-28.917,45.828,26.459,45.825-26.459V630.96L1731.285,604.5l-45.828,26.459Z" transform="translate(-698.666 -249.887)" fill="url(#linear-gradient)"/>
    <path id="Path_74954" data-name="Path 74954" d="M126.072,526.547,78.117,498.859V443.487L126.072,415.8l47.956,27.689v55.372ZM80.244,497.63l45.828,26.458L171.9,497.63V444.714l-45.827-26.458L80.244,444.714Z" transform="translate(-32.422 -172.586)" fill="url(#linear-gradient)"/>
    <path id="Path_74955" data-name="Path 74955" d="M47.956,761.6,0,733.914V678.541l47.956-27.689,47.958,27.689v55.373ZM2.129,732.686l45.827,26.458,45.826-26.458V679.769L47.956,653.311,2.129,679.769Z" transform="translate(0 -270.145)" fill="url(#linear-gradient)"/>
    <path id="Path_74956" data-name="Path 74956" d="M1570.97,620.214l-47.955-27.69V537.151l47.955-27.688,47.959,27.688v55.372Zm-45.826-28.919,45.826,26.457,45.829-26.457V538.379L1570.97,511.92l-45.826,26.459Z" transform="translate(-632.13 -211.461)" fill="url(#linear-gradient)"/>
    <path id="Path_74957" data-name="Path 74957" d="M1090.079,342.528l-47.953-27.687V259.467l47.953-27.689,47.956,27.689v55.374Zm-45.826-28.916,45.826,26.458,45.827-26.458V260.7l-45.827-26.457L1044.254,260.7Z" transform="translate(-432.535 -96.208)" fill="url(#linear-gradient)"/>
    <path id="Path_74959" data-name="Path 74959" d="M769.425,527.658,721.467,499.97V444.6l.534-.308,47.424-27.379L817.381,444.6V499.97l-.531.308ZM723.6,498.739,769.425,525.2l45.827-26.459V445.825l-45.827-26.458L723.6,445.825Z" transform="translate(-299.445 -173.046)" fill="url(#linear-gradient)"/>
    <path id="Path_74960" data-name="Path 74960" d="M1250.407,249.966l-47.958-27.689V166.9l47.958-27.687,47.956,27.687v55.374Zm-45.829-28.919,45.829,26.458,45.825-26.458V168.133l-45.825-26.458-45.829,26.458Z" transform="translate(-499.078 -57.79)" fill="url(#linear-gradient)"/>
    <path id="Path_74961" data-name="Path 74961" d="M929.75,620.221,881.8,592.534V537.157l.533-.307L929.75,509.47l47.958,27.687v55.376l-.532.307ZM883.926,591.3l45.824,26.46,45.831-26.46V538.389L929.75,511.931l-45.824,26.458Z" transform="translate(-365.99 -211.464)" fill="url(#linear-gradient)"/>
    <path id="Path_74964" data-name="Path 74964" d="M849.591,295.893l-47.958-27.687V212.831l47.958-27.689,47.954,27.689v55.375Zm-45.827-28.917,45.827,26.458,45.824-26.458V214.059L849.591,187.6l-45.827,26.458Z" transform="translate(-332.718 -76.852)" fill="url(#linear-gradient)"/>
    <path id="Path_74965" data-name="Path 74965" d="M1250.407,435.094l-47.958-27.688V352.031l47.958-27.688,47.956,27.688v55.375l-.535.308Zm-45.829-28.918,45.829,26.459,45.825-26.459V353.259L1250.407,326.8l-45.829,26.456Z" transform="translate(-499.078 -134.627)" fill="url(#linear-gradient)"/>
    <path id="Path_74966" data-name="Path 74966" d="M1410.731,527.659l-47.956-27.688V444.6l.533-.307,47.422-27.381,47.956,27.687v55.375l-.531.308Zm-45.824-28.918,45.824,26.457,45.829-26.457V445.825l-45.829-26.458-45.824,26.458Z" transform="translate(-565.622 -173.046)" fill="url(#linear-gradient)"/>
    <path id="Path_74969" data-name="Path 74969" d="M609.1,620.221l-47.958-27.687V537.159l.533-.307L609.1,509.47l47.955,27.689v55.375l-.533.307ZM563.272,591.3l45.828,26.46,45.824-26.46V538.389L609.1,511.931l-45.828,26.458Z" transform="translate(-232.902 -211.464)" fill="url(#linear-gradient)"/>
    <path id="Path_74970" data-name="Path 74970" d="M609.1,435.094l-47.958-27.688V352.031L609.1,324.343l47.955,27.688v55.375l-.533.308Zm-45.828-28.918L609.1,432.633l45.824-26.457V353.259L609.1,326.8l-45.828,26.458Z" transform="translate(-232.902 -134.627)" fill="url(#linear-gradient)"/>
    <path id="Path_74971" data-name="Path 74971" d="M689.263,203.327l-47.955-27.687V120.265l47.955-27.689,47.958,27.689v55.374Zm-45.826-28.916,45.826,26.458,45.827-26.458V121.495L689.263,95.036l-45.826,26.458Z" transform="translate(-266.175 -38.432)" fill="url(#linear-gradient)"/>
    <path id="Path_74972" data-name="Path 74972" d="M1009.915,203.327l-47.958-27.687V120.265l47.958-27.689,47.958,27.689v55.374Zm-45.828-28.916,45.828,26.458,45.826-26.458V121.495l-45.826-26.458-45.828,26.458Z" transform="translate(-399.262 -38.432)" fill="url(#linear-gradient)"/>
    <path id="Path_74973" data-name="Path 74973" d="M1410.731,157.4l-47.956-27.689V74.337l47.956-27.687,47.956,27.687v55.375Zm-45.824-28.919,45.824,26.458,45.829-26.458V75.566l-45.829-26.457-45.824,26.457Z" transform="translate(-565.622 -19.37)" fill="url(#linear-gradient)"/>
    <path id="Path_74974" data-name="Path 74974" d="M1170.24,110.766l-47.954-27.689V27.7L1170.24.014,1218.2,27.7V83.077Zm-45.822-28.919L1170.24,108.3l45.83-26.457V28.93L1170.24,2.471,1124.418,28.93Z" transform="translate(-465.806 -0.014)" fill="url(#linear-gradient)"/>
    <path id="Path_74975" data-name="Path 74975" d="M448.772,342.528l-47.959-27.687V259.467l47.959-27.689,47.955,27.689v55.374Zm-45.827-28.916,45.827,26.458L494.6,313.612V260.7l-45.826-26.457L402.945,260.7Z" transform="translate(-166.358 -96.208)" fill="url(#linear-gradient)"/>
    <path id="Path_74976" data-name="Path 74976" d="M1250.407,805.353l-47.958-27.687V722.291l.533-.305,47.425-27.383,47.956,27.688v55.375l-.535.306Zm-45.829-28.916,45.829,26.458,45.825-26.458V723.522l-45.825-26.461-45.829,26.461Z" transform="translate(-499.078 -288.304)" fill="url(#linear-gradient)"/>
    <path id="Path_74977" data-name="Path 74977" d="M528.936,759.486,480.98,731.8V676.424l.532-.31,47.423-27.381,47.956,27.69V731.8l-.532.307Zm-45.827-28.919,45.827,26.457,45.828-26.457V677.653l-45.828-26.458-45.827,26.458Z" transform="translate(-199.632 -269.266)" fill="url(#linear-gradient)"/>
    <path id="Path_74978" data-name="Path 74978" d="M368.607,666.922l-47.956-27.689V583.859l.533-.307,47.422-27.382,47.958,27.689v55.374l-.534.309Zm-45.826-28.917,45.826,26.457,45.828-26.457V585.089l-45.828-26.458-45.826,26.458Z" transform="translate(-133.086 -230.847)" fill="url(#linear-gradient)"/>
    <path id="Path_74979" data-name="Path 74979" d="M528.936,944.615,480.98,916.927V861.552l.532-.305,47.423-27.383,47.956,27.689v55.375l-.532.307ZM483.109,915.7l45.827,26.456L574.764,915.7V862.783l-45.828-26.458-45.827,26.458Z" transform="translate(-199.632 -346.104)" fill="url(#linear-gradient)"/>
    <path id="Path_74980" data-name="Path 74980" d="M448.772,157.4l-47.959-27.689V74.337L448.772,46.65l47.955,27.687v55.375Zm-45.827-28.919,45.827,26.458L494.6,128.483V75.568l-45.826-26.46-45.827,26.46Z" transform="translate(-166.358 -19.37)" fill="url(#linear-gradient)"/>
    <path id="Path_74981" data-name="Path 74981" d="M769.425,712.788,721.467,685.1V629.725l.534-.307,47.424-27.383,47.956,27.69V685.1l-.531.306ZM723.6,683.869l45.827,26.459,45.827-26.459V630.954L769.425,604.5,723.6,630.954Z" transform="translate(-299.445 -249.883)" fill="url(#linear-gradient)"/>
    <path id="Path_74953" data-name="Path 74953" d="M1891.64,435.087,1843.684,407.4V352.024l47.956-27.688,47.957,27.688V407.4Zm-45.826-28.917,45.826,26.458,45.826-26.458V353.254L1891.64,326.8l-45.826,26.457Z" transform="translate(-765.222 -134.624)" fill="url(#linear-gradient)"/>
    <path id="Path_74982" data-name="Path 74982" d="M1731.3,527.65l-47.959-27.689V444.586L1731.3,416.9l47.955,27.687V499.96Zm-45.828-28.917,45.828,26.457,45.826-26.457V445.816L1731.3,419.358l-45.828,26.458Z" transform="translate(-698.674 -173.043)" fill="url(#linear-gradient)"/>
    <path id="Path_74983" data-name="Path 74983" d="M1731.3,157.389,1683.343,129.7V74.326l47.959-27.69,47.955,27.69V129.7Zm-45.828-28.917,45.828,26.457,45.826-26.457V75.555L1731.3,49.1l-45.828,26.458Z" transform="translate(-698.674 -19.365)" fill="url(#linear-gradient)"/>
    <path id="Path_74984" data-name="Path 74984" d="M849.5,944.606l-47.957-27.69V861.542l.535-.31,47.422-27.38,47.958,27.69v55.374l-.533.308Zm-45.828-28.919L849.5,942.145l45.828-26.458V862.771L849.5,836.314l-45.828,26.457Z" transform="translate(-332.682 -346.099)" fill="url(#linear-gradient)"/>
    <path id="Path_74985" data-name="Path 74985" d="M1090.079,620.221l-47.953-27.687V537.157l.533-.307,47.421-27.381,47.956,27.687v55.376l-.53.307ZM1044.254,591.3l45.826,26.46,45.827-26.46V538.389l-45.827-26.458-45.826,26.458Z" transform="translate(-432.535 -211.464)" fill="url(#linear-gradient)"/>
    <path id="Path_74986" data-name="Path 74986" d="M1009.915,759.486,961.957,731.8V676.421l.534-.307,47.424-27.381,47.958,27.687V731.8l-.535.307Zm-45.828-28.919,45.828,26.457,45.826-26.457V677.652l-45.826-26.457-45.828,26.457Z" transform="translate(-399.262 -269.266)" fill="url(#linear-gradient)"/>
    <path id="Path_74987" data-name="Path 74987" d="M1250.407,620.221l-47.958-27.687V537.159l.533-.307,47.425-27.383,47.956,27.689v55.375l-.535.307ZM1204.578,591.3l45.829,26.46,45.825-26.46V538.389l-45.825-26.458-45.829,26.458Z" transform="translate(-499.078 -211.464)" fill="url(#linear-gradient)"/>
    <path id="Path_74988" data-name="Path 74988" d="M849.591,852.052l-47.958-27.687V768.989l.531-.308L849.591,741.3l47.954,27.687v55.376l-.533.307Zm-45.827-28.918,45.827,26.458,45.824-26.458V770.218L849.591,743.76l-45.827,26.458Z" transform="translate(-332.718 -307.686)" fill="url(#linear-gradient)"/>
  </g>
  <path id="Path_74926" data-name="Path 74926" d="M1250.32,620.214l-47.959-27.69V537.151l47.959-27.688,47.956,27.688v55.372ZM1204.492,591.3l45.828,26.46,45.824-26.46V538.379L1250.32,511.92l-45.828,26.459Z" transform="translate(-499.041 -211.454)" fill="#ffb831"/>
  <path id="Path_74942" data-name="Path 74942" d="M849.5,759.477,801.545,731.79V676.413L849.5,648.726l47.958,27.687V731.79l-.533.307Zm-45.828-28.916L849.5,757.015l45.828-26.454V677.643L849.5,651.185l-45.828,26.459Z" transform="translate(-332.682 -269.255)" fill="#0f7fb1"/>
  <path id="Path_74934" data-name="Path 74934" d="M929.666,620.214l-47.958-27.688V537.151l47.958-27.688,47.954,27.688v55.375ZM883.84,591.3l45.826,26.46,45.827-26.46V538.379L929.666,511.92,883.84,538.379Z" transform="translate(-365.953 -211.454)" fill="#0f7fb1"/>
  <path id="Path_74932" data-name="Path 74932" d="M1570.974,620.214l-47.958-27.688V537.151l47.958-27.688,47.956,27.688v55.375Zm-45.83-28.918,45.83,26.46L1616.8,591.3V538.379l-45.826-26.459-45.83,26.459Z" transform="translate(-632.13 -211.454)" fill="#0f7fb1"/>
  <path id="Path_74923" data-name="Path 74923" d="M1250.32,435.085l-47.959-27.691V352.019l47.959-27.686,47.956,27.686v55.375Zm-45.828-28.919,45.828,26.459,45.824-26.459V353.25l-45.824-26.459-45.828,26.459Z" transform="translate(-499.041 -134.615)" fill="#ffb831"/>
</svg>
