<svg xmlns="http://www.w3.org/2000/svg" viewBox="0 0 21.234 21.234"><defs><style>.InfoCircleA{fill:#eaf8ff;}.InfoCircleB{fill:#2196c9;}</style></defs><circle class="InfoCircleA" cx="10.617" cy="10.617" r="10.617" transform="translate(0)"/><path class="InfoCircleB" d="M523.214,423.262a10.617,10.617,0,1,1,10.617-10.617A10.629,10.629,0,0,1,523.214,423.262Zm0-19.907a9.29,9.29,0,1,0,9.29,9.29A9.3,9.3,0,0,0,523.214,403.355Z" transform="translate(-512.597 -402.027)"/><path class="InfoCircleB" d="M524.472,410.154a.961.961,0,1,0-.961-.962A.962.962,0,0,0,524.472,410.154Z" transform="translate(-513.855 -402.742)"/><path class="InfoCircleB" d="M524.5,412.415a.763.763,0,0,0-.764.763v6.048a.763.763,0,0,0,1.525,0v-6.048A.763.763,0,0,0,524.5,412.415Z" transform="translate(-513.881 -403.225)"/></svg>