<svg xmlns="http://www.w3.org/2000/svg" viewBox="0 0 27 27"><defs><style>.MeshA,.MeshB{fill:#fff;}.MeshA{opacity:0;}</style></defs><rect class="MeshA" width="27" height="27"/><rect class="MeshB" width="0.633" height="0.745" transform="translate(2.726 9.943)"/><rect class="MeshB" width="0.633" height="0.745" transform="translate(2.726 11.023)"/><rect class="MeshB" width="0.745" height="0.633" transform="translate(10.035 2.733) rotate(-28.215)"/><rect class="MeshB" width="0.745" height="0.633" transform="translate(9.053 3.226) rotate(-28.215)"/><rect class="MeshB" width="0.633" height="0.745" transform="translate(20.668 6.076) rotate(-61.156)"/><rect class="MeshB" width="0.633" height="0.745" transform="translate(19.711 5.567) rotate(-61.156)"/><rect class="MeshB" width="0.745" height="0.633" transform="translate(15.281 24.043) rotate(-28.231)"/><rect class="MeshB" width="0.745" height="0.633" transform="translate(16.252 23.51) rotate(-28.215)"/><rect class="MeshB" width="0.633" height="0.745" transform="translate(4.671 21.493) rotate(-61.156)"/><rect class="MeshB" width="0.633" height="0.745" transform="translate(5.61 22.034) rotate(-61.156)"/><rect class="MeshB" width="0.633" height="0.745" transform="translate(22.837 16.386)"/><rect class="MeshB" width="0.633" height="0.745" transform="translate(22.837 15.269)"/><path class="MeshB" d="M-56.065,9.692a1.963,1.963,0,0,0-1.713,1.043l-4.953-3.166a3.908,3.908,0,0,0,.41-1.75,3.635,3.635,0,0,0-.372-1.639l5.251-2.83a1.709,1.709,0,0,0,1.154.559V7.234h.633V1.908A1.915,1.915,0,0,0-54.166.046a1.907,1.907,0,0,0-1.9-1.9h0a1.907,1.907,0,0,0-1.9,1.9h0a2,2,0,0,0,.186.782l-5.214,2.83a3.785,3.785,0,0,0-2.644-1.564V-3.939A2.039,2.039,0,0,0-64.3-4.87l4.618,2.532.3-.559-4.692-2.57a1.031,1.031,0,0,0,.037-.335,1.907,1.907,0,0,0-1.9-1.9,1.907,1.907,0,0,0-1.9,1.9,1.883,1.883,0,0,0,1.564,1.862V2.02a3.837,3.837,0,0,0-3.017,1.75L-74.127.717a2.175,2.175,0,0,0,.149-.67,1.916,1.916,0,0,0-.559-1.341l4.543-2.421-.3-.559-4.841,2.607a1.469,1.469,0,0,0-.745-.186,1.907,1.907,0,0,0-1.9,1.9,1.907,1.907,0,0,0,1.9,1.9,1.842,1.842,0,0,0,1.415-.67l4.879,3.091a3.894,3.894,0,0,0-.3,1.452A3.528,3.528,0,0,0-69.4,7.643l-5.214,2.793a2,2,0,0,0-1.117-.708V4.4h-.633V9.729A1.886,1.886,0,0,0-78,11.591a1.907,1.907,0,0,0,1.9,1.9,1.907,1.907,0,0,0,1.9-1.9,1.687,1.687,0,0,0-.112-.6l5.251-2.83A3.74,3.74,0,0,0-66.269,9.58v5.959a1.842,1.842,0,0,0-1.452,1.192l-4.543-2.5-.3.559L-67.87,17.4h0a1.907,1.907,0,0,0,1.9,1.9,1.907,1.907,0,0,0,1.9-1.9,1.883,1.883,0,0,0-1.564-1.862V9.58a3.83,3.83,0,0,0,2.57-1.49l5.139,3.277v.186a1.861,1.861,0,0,0,.521,1.3l-4.506,2.421.3.559,4.767-2.57a2,2,0,0,0,.782.186,1.907,1.907,0,0,0,1.9-1.9,1.9,1.9,0,0,0-1.9-1.862Zm0,3.166a1.256,1.256,0,0,1-1.266-1.266,1.256,1.256,0,0,1,1.266-1.266A1.256,1.256,0,0,1-54.8,11.591,1.28,1.28,0,0,1-56.065,12.857ZM-65.971,18.7a1.256,1.256,0,0,1-1.266-1.266,1.256,1.256,0,0,1,1.266-1.266A1.256,1.256,0,0,1-64.7,17.438,1.28,1.28,0,0,1-65.971,18.7Zm-.112-9.757a3.187,3.187,0,0,1-3.166-3.166,3.139,3.139,0,0,1,3.091-3.128h.074a1.031,1.031,0,0,1,.335.037,3.144,3.144,0,0,1,2.793,3.128,3.123,3.123,0,0,1-3.128,3.128Zm.112-16.014A1.256,1.256,0,0,1-64.7-5.8a1.256,1.256,0,0,1-1.266,1.266A1.256,1.256,0,0,1-67.237-5.8a1.3,1.3,0,0,1,1.266-1.266Zm9.906,5.847A1.256,1.256,0,0,1-54.8.046a1.256,1.256,0,0,1-1.266,1.266A1.256,1.256,0,0,1-57.331.046,1.256,1.256,0,0,1-56.065-1.22ZM-75.877,1.312A1.256,1.256,0,0,1-77.143.046,1.256,1.256,0,0,1-75.877-1.22,1.256,1.256,0,0,1-74.611.046,1.28,1.28,0,0,1-75.877,1.312Zm-.261,11.545A1.256,1.256,0,0,1-77.4,11.591a1.256,1.256,0,0,1,1.266-1.266,1.256,1.256,0,0,1,1.266,1.266,1.256,1.256,0,0,1-1.266,1.266Z" transform="translate(79.125 7.7)"/><path class="MeshB" d="M-49.425,19.776a3.877,3.877,0,0,0-2.644-1.639L-52.4,18.1h-.3a3.862,3.862,0,0,0-3.8,3.91,3.648,3.648,0,0,0,.559,1.937l.149.223a3.788,3.788,0,0,0,2.5,1.6,4.563,4.563,0,0,0,.708.074,3.708,3.708,0,0,0,2.16-.67A3.892,3.892,0,0,0-49.425,19.776Zm-3.017-.857.186.037a2.91,2.91,0,0,1,2.048,1.117,3.072,3.072,0,0,1,.67,2.234,2.91,2.91,0,0,1-1.117,2.048,3.248,3.248,0,0,1-2.234.67,2.91,2.91,0,0,1-2.048-1.117,3.072,3.072,0,0,1-.67-2.234,3.086,3.086,0,0,1,2.979-2.756Z" transform="translate(65.633 -8.492)"/></svg>