<svg xmlns="http://www.w3.org/2000/svg" xmlns:xlink="http://www.w3.org/1999/xlink" width="479.537" height="309.516" viewBox="0 0 479.537 309.516"><defs><style>.a{fill:none;}.b{clip-path:url(#a);}.c{fill:#fff;}.d{fill:#0c335b;}.e{fill:#ffb831;}.f{fill:#264655;}.g{fill:#2196c9;}.h{fill:#0f7fb1;}.i{fill:#13719e;}.j{fill:#f0f1f2;}.k{fill:#f0ebf1;}.l{fill:#6ac7f0;}.m{fill:#0dce93;}.n{clip-path:url(#b);}.o{fill:#54b7e3;}.p{fill:#beb2bd;}</style><clipPath id="a"><rect class="a" width="479.537" height="309.516" transform="translate(0 0)"/></clipPath><clipPath id="b"><rect class="a" width="168.529" height="105.438"/></clipPath></defs><g transform="translate(0 -0.005)"><g class="b" transform="translate(0 0.005)"><line class="c" x2="40.48" transform="translate(225.771 60.768)"/><g transform="translate(-93.3 -78.323)"><path class="d" d="M490.2,1330.246l14.5-6.5v4.89l-9.2,3.625,9.2,3.625v4.924l-14.5-6.5Z" transform="translate(-384.065 -1037.144)"/><path class="d" d="M571.129,1323.4H566.17l10.225-29.34h4.958Z" transform="translate(-443.588 -1013.88)"/><path class="d" d="M659.8,1334.315l-14.5,6.5v-4.924l9.2-3.625-9.2-3.625v-4.89l14.5,6.5Z" transform="translate(-505.587 -1037.144)"/></g><path class="e" d="M2038.781,890.34v4.753c0,1.744.787,2.872,3.009,2.872v4.924c-5.95,0-8.652-2.941-8.652-7.9v-3.556c0-2.428-1.539-2.838-2.462-2.838v-5.4c.923,0,2.462-.41,2.462-2.838V876.8c0-4.958,2.7-7.9,8.652-7.9v4.924c-2.223,0-3.009,1.129-3.009,2.872v4.754a4.83,4.83,0,0,0,0,8.891" transform="translate(-1591.014 -680.774)"/><path class="e" d="M2166.517,881.449V876.7c0-1.744-.786-2.873-3.009-2.873V868.9c5.95,0,8.652,2.941,8.652,7.9v3.556c0,2.428,1.539,2.838,2.462,2.838v5.4c-.924,0-2.462.411-2.462,2.838v3.556c0,4.959-2.7,7.9-8.652,7.9v-4.924c2.223,0,3.009-1.128,3.009-2.872V890.34a4.83,4.83,0,0,0,0-8.891" transform="translate(-1695.085 -680.774)"/><rect class="f" width="170.429" height="103.019" rx="9" transform="translate(100.99 111.766)"/><path class="g" d="M620.387,602.753H457.1v-95.88h163.29Zm0-103.019H457.1a7.139,7.139,0,0,0-7.139,7.139v95.88a7.139,7.139,0,0,0,7.139,7.139h163.29a7.139,7.139,0,0,0,7.139-7.139v-95.88a7.139,7.139,0,0,0-7.139-7.139" transform="translate(-352.537 -391.537)"/><rect class="h" width="44.35" height="22.73" transform="translate(164.03 225.819)"/><rect class="i" width="44.35" height="8.069" transform="translate(164.03 225.819)"/><path class="h" d="M449.957,949.009v13.21a7.139,7.139,0,0,0,7.139,7.139h163.29a7.139,7.139,0,0,0,7.139-7.139v-13.21Z" transform="translate(-352.536 -743.539)"/><path class="g" d="M738.7,1147.979H664.872a6.815,6.815,0,0,0-6.815,6.815h87.456a6.815,6.815,0,0,0-6.815-6.815" transform="translate(-515.581 -899.43)"/><path class="j" d="M1262.494,920.933H1107.709a7.788,7.788,0,0,1-7.788-7.788V807.035a7.788,7.788,0,0,1,7.788-7.788h154.784a7.788,7.788,0,0,1,7.788,7.788v106.11a7.788,7.788,0,0,1-7.788,7.788" transform="translate(-861.776 -626.203)"/><path class="g" d="M1099.921,813.625v-6.589a7.788,7.788,0,0,1,7.788-7.788h154.784a7.788,7.788,0,0,1,7.788,7.788v6.589Z" transform="translate(-861.776 -626.203)"/><path class="k" d="M1142.222,821.1a3.137,3.137,0,1,1-3.137-3.137,3.137,3.137,0,0,1,3.137,3.137" transform="translate(-890.003 -640.865)"/><path class="k" d="M1188.686,821.1a3.137,3.137,0,1,1-3.137-3.137,3.137,3.137,0,0,1,3.137,3.137" transform="translate(-926.407 -640.865)"/><path class="k" d="M1235.149,821.1a3.137,3.137,0,1,1-3.137-3.137,3.137,3.137,0,0,1,3.137,3.137" transform="translate(-962.81 -640.865)"/><rect class="c" width="140.73" height="81.453" transform="translate(252.219 201.853)"/><rect class="d" width="81.885" height="33.263" transform="translate(259.142 209.317)"/><rect class="l" width="22.986" height="6.815" transform="translate(348.383 209.317)"/><rect class="l" width="36.907" height="6.815" transform="translate(348.383 222.541)"/><rect class="l" width="30.268" height="6.815" transform="translate(348.383 235.764)"/><path class="m" d="M1667.733,1195.2a8.843,8.843,0,1,1-8.843-8.843,8.843,8.843,0,0,1,8.843,8.843" transform="translate(-1292.794 -929.499)"/><rect class="g" width="38.076" height="26.448" transform="translate(259.142 256.858)"/><g class="n" transform="translate(101.991 110.729)"><path class="c" d="M59.7,31.661H38.782a1.023,1.023,0,0,1,0-2.046H59.7a1.023,1.023,0,0,1,0,2.046" transform="translate(-24.973 -19.587)"/><path class="o" d="M45.756,46.433H38.782a1.023,1.023,0,0,1,0-2.046h6.974a1.023,1.023,0,1,1,0,2.046" transform="translate(-24.973 -29.357)"/><path class="o" d="M66.353,135.071H59.379a1.023,1.023,0,0,1,0-2.047h6.974a1.023,1.023,0,0,1,0,2.047" transform="translate(-38.596 -87.98)"/><path class="o" d="M107.545,223.707h-6.974a1.023,1.023,0,0,1,0-2.047h6.974a1.023,1.023,0,0,1,0,2.047" transform="translate(-65.84 -146.603)"/><path class="o" d="M66.353,61.206H59.379a1.023,1.023,0,1,1,0-2.046h6.974a1.023,1.023,0,0,1,0,2.046" transform="translate(-38.596 -39.128)"/><path class="o" d="M66.353,120.3H59.379a1.023,1.023,0,0,1,0-2.047h6.974a1.023,1.023,0,0,1,0,2.047" transform="translate(-38.596 -78.21)"/><path class="o" d="M100.026,75.98H79.975a1.023,1.023,0,0,1,0-2.047h20.051a1.023,1.023,0,0,1,0,2.047" transform="translate(-52.218 -48.898)"/><path class="m" d="M160.581,75.98h-6.974a1.023,1.023,0,0,1,0-2.047h6.974a1.023,1.023,0,0,1,0,2.047" transform="translate(-100.917 -48.898)"/><path class="e" d="M195.6,75.98h-6.974a1.023,1.023,0,0,1,0-2.047H195.6a1.023,1.023,0,0,1,0,2.047" transform="translate(-124.075 -48.898)"/><path class="o" d="M86.949,90.753H79.975a1.023,1.023,0,0,1,0-2.047h6.974a1.023,1.023,0,0,1,0,2.047" transform="translate(-52.218 -58.669)"/><path class="o" d="M86.949,105.525H79.975a1.023,1.023,0,0,1,0-2.047h6.974a1.023,1.023,0,0,1,0,2.047" transform="translate(-52.218 -68.439)"/><path class="o" d="M181.692,105.525h-6.974a1.023,1.023,0,0,1,0-2.047h6.974a1.023,1.023,0,0,1,0,2.047" transform="translate(-114.879 -68.439)"/><path class="c" d="M130.331,105.525H114.988a1.023,1.023,0,0,1,0-2.047h15.343a1.023,1.023,0,0,1,0,2.047" transform="translate(-75.375 -68.439)"/><path class="m" d="M121.963,90.753h-6.974a1.023,1.023,0,0,1,0-2.047h6.974a1.023,1.023,0,0,1,0,2.047" transform="translate(-75.376 -58.669)"/><path class="e" d="M177.725,90.753H150a1.023,1.023,0,0,1,0-2.047h27.722a1.023,1.023,0,0,1,0,2.047" transform="translate(-98.533 -58.669)"/><path class="o" d="M98.805,164.616H79.975a1.023,1.023,0,0,1,0-2.047h18.83a1.023,1.023,0,0,1,0,2.047" transform="translate(-52.218 -107.521)"/><path class="m" d="M156.977,164.616H150a1.023,1.023,0,0,1,0-2.047h6.974a1.023,1.023,0,0,1,0,2.047" transform="translate(-98.533 -107.521)"/><path class="e" d="M191.99,164.616h-6.974a1.023,1.023,0,0,1,0-2.047h6.974a1.023,1.023,0,0,1,0,2.047" transform="translate(-121.69 -107.521)"/><path class="o" d="M94.708,149.843H79.975a1.023,1.023,0,0,1,0-2.047H94.708a1.023,1.023,0,0,1,0,2.047" transform="translate(-52.218 -97.75)"/><path class="o" d="M211.3,149.843h-6.974a1.023,1.023,0,0,1,0-2.047H211.3a1.023,1.023,0,0,1,0,2.047" transform="translate(-134.461 -97.75)"/><path class="c" d="M155.511,149.843H137.9a1.023,1.023,0,0,1,0-2.047h17.61a1.023,1.023,0,0,1,0,2.047" transform="translate(-90.529 -97.75)"/><path class="o" d="M86.949,179.389H79.975a1.023,1.023,0,0,1,0-2.047h6.974a1.023,1.023,0,0,1,0,2.047" transform="translate(-52.218 -117.292)"/><path class="o" d="M86.949,208.934H79.975a1.023,1.023,0,0,1,0-2.047h6.974a1.023,1.023,0,0,1,0,2.047" transform="translate(-52.218 -136.832)"/><path class="c" d="M189.581,179.389H150a1.023,1.023,0,0,1,0-2.047h39.579a1.023,1.023,0,1,1,0,2.047" transform="translate(-98.533 -117.292)"/><path class="e" d="M121.963,179.389h-6.974a1.023,1.023,0,0,1,0-2.047h6.974a1.023,1.023,0,0,1,0,2.047" transform="translate(-75.376 -117.292)"/><path class="c" d="M132.107,194.162H79.975a1.023,1.023,0,0,1,0-2.047h52.132a1.023,1.023,0,0,1,0,2.047" transform="translate(-52.218 -127.062)"/><path class="c" d="M170.916,238.48H121.167a1.023,1.023,0,0,1,0-2.047h49.749a1.023,1.023,0,1,1,0,2.047" transform="translate(-79.462 -156.373)"/><path class="c" d="M170.916,253.252H121.167a1.023,1.023,0,0,1,0-2.047h49.749a1.023,1.023,0,1,1,0,2.047" transform="translate(-79.462 -166.143)"/></g><rect class="g" width="38.076" height="26.448" transform="translate(302.951 256.858)"/><path class="j" d="M202.9,267.705H87.056a7.788,7.788,0,0,1-7.788-7.788V136.18a7.788,7.788,0,0,1,7.788-7.788H202.9a7.788,7.788,0,0,1,7.788,7.788V259.917a7.788,7.788,0,0,1-7.788,7.788" transform="translate(-62.106 -100.595)"/><path class="g" d="M79.268,142.769v-6.589a7.788,7.788,0,0,1,7.788-7.788H202.9a7.788,7.788,0,0,1,7.788,7.788v6.589Z" transform="translate(-62.106 -100.594)"/><path class="p" d="M121.569,150.243a3.137,3.137,0,1,1-3.137-3.137,3.137,3.137,0,0,1,3.137,3.137" transform="translate(-90.332 -115.257)"/><path class="p" d="M168.033,150.243a3.137,3.137,0,1,1-3.137-3.137,3.137,3.137,0,0,1,3.137,3.137" transform="translate(-126.736 -115.257)"/><path class="p" d="M214.5,150.243a3.137,3.137,0,1,1-3.137-3.137,3.137,3.137,0,0,1,3.137,3.137" transform="translate(-163.141 -115.257)"/><rect class="o" width="66.455" height="7.325" transform="translate(28.1 56.86)"/><rect class="e" width="52.724" height="7.325" transform="translate(28.099 130.782)"/><rect class="m" width="37.553" height="7.325" transform="translate(35.685 115.997)"/><rect class="m" width="37.553" height="7.325" transform="translate(35.685 71.644)"/><rect class="e" width="56.804" height="7.325" transform="translate(43.473 86.429)"/><rect class="o" width="66.392" height="7.325" transform="translate(43.473 101.213)"/><rect class="o" width="36.107" height="7.325" transform="translate(28.1 145.566)"/><path class="o" d="M350.25,1032.41h-20.7a14.235,14.235,0,0,1-14.235-14.235v-20.7a14.235,14.235,0,0,1,14.235-14.235h20.7a14.235,14.235,0,0,1,14.235,14.235v20.7a14.235,14.235,0,0,1-14.235,14.235" transform="translate(-247.047 -770.361)"/><path class="c" d="M387.134,1042.689a13.669,13.669,0,0,0,0-6.159l-3.915-.371a11.937,11.937,0,0,0-.939-2.267l2.506-3.03a13.665,13.665,0,0,0-4.355-4.355l-3.03,2.506a11.994,11.994,0,0,0-2.267-.939l-.37-3.915a13.668,13.668,0,0,0-6.159,0l-.37,3.915a11.993,11.993,0,0,0-2.267.939l-3.03-2.506a13.666,13.666,0,0,0-4.355,4.355l2.507,3.03a11.978,11.978,0,0,0-.939,2.267l-3.915.371a13.654,13.654,0,0,0,0,6.159l3.915.37a11.976,11.976,0,0,0,.939,2.267l-2.507,3.03a13.675,13.675,0,0,0,4.355,4.355l3.03-2.507a11.937,11.937,0,0,0,2.267.939l.37,3.915a13.668,13.668,0,0,0,6.159,0l.37-3.915a11.926,11.926,0,0,0,2.267-.939l3.03,2.507a13.675,13.675,0,0,0,4.355-4.355l-2.506-3.03a11.977,11.977,0,0,0,.939-2.267Zm-15.45,3.274a6.353,6.353,0,1,1,6.353-6.353,6.353,6.353,0,0,1-6.353,6.353" transform="translate(-278.831 -802.144)"/><g transform="translate(-2.986 26.034)"><path class="m" d="M907.135,29.584A29.579,29.579,0,1,1,877.556,0a29.579,29.579,0,0,1,29.579,29.579" transform="translate(-664.381 -0.005)"/><path class="c" d="M900.956,84.209,887.808,71.062l5.15-5.15,8,8,16.667-16.667,5.15,5.15Z" transform="translate(-692.116 -39.859)"/></g><path class="e" d="M1553.293,512.072a2.6,2.6,0,1,1,2.6,2.6,2.6,2.6,0,0,1-2.6-2.6m0-11.358a2.6,2.6,0,1,1,2.6,2.6,2.6,2.6,0,0,1-2.6-2.6m61.956-6.192a2.6,2.6,0,1,1,2.6,2.6,2.6,2.6,0,0,1-2.6-2.6m-11.358,0a2.6,2.6,0,1,1,2.6,2.6,2.6,2.6,0,0,1-2.6-2.6m-11.358,0a2.6,2.6,0,1,1,2.6,2.6,2.595,2.595,0,0,1-2.6-2.6m-11.358,0a2.6,2.6,0,1,1,2.6,2.6,2.595,2.595,0,0,1-2.6-2.6m-11.358,0a2.6,2.6,0,1,1,2.6,2.6,2.595,2.595,0,0,1-2.6-2.6m-11.358,0a2.6,2.6,0,1,1,2.6,2.6,2.6,2.6,0,0,1-2.6-2.6m61.985-6.163a2.6,2.6,0,1,1,2.6,2.6,2.6,2.6,0,0,1-2.6-2.6m0-11.358a2.6,2.6,0,1,1,2.6,2.6,2.6,2.6,0,0,1-2.6-2.6m0-11.358a2.6,2.6,0,1,1,2.6,2.6,2.6,2.6,0,0,1-2.6-2.6m0-11.358a2.6,2.6,0,1,1,2.6,2.6,2.6,2.6,0,0,1-2.6-2.6m0-11.358a2.6,2.6,0,1,1,2.6,2.6,2.6,2.6,0,0,1-2.6-2.6" transform="translate(-1216.988 -344.997)"/><path class="o" d="M1719.271,318.5a23.34,23.34,0,0,0-26.865-36.285,29.462,29.462,0,1,0-58.308,8.49A18.259,18.259,0,0,0,1612.64,318.5Z" transform="translate(-1260.696 -201.251)"/></g></g></svg>