<svg xmlns="http://www.w3.org/2000/svg" xmlns:xlink="http://www.w3.org/1999/xlink" width="379.306" height="387.862" viewBox="0 0 379.306 387.862"><defs><style>.a{fill:none;}.b{clip-path:url(#a);}.c{fill:rgba(106,199,240,0.2);}.aa,.ab,.ac,.ad,.ae,.af,.ag,.ah,.c,.u,.v,.w,.x,.y,.z{fill-rule:evenodd;}.d{opacity:0.1;}.e{fill:#150d53;}.af,.f{fill:#2196c9;}.g{fill:#b1e7ff;}.ac,.h{fill:#253e58;}.i{clip-path:url(#b);}.j,.u{fill:#fff;}.k{fill:#54b7e3;}.l{fill:#00a3fb;}.m{fill:#0dce93;}.n{fill:#ffb831;}.o{fill:#fb9f00;}.ah,.p{fill:#6ac7f0;}.q{opacity:0.3;}.aa,.r{fill:#0f7fb1;}.s{fill:#72c5b9;}.t{fill:#8dddd5;}.v{fill:#f0f1f2;}.w{fill:#f4d458;}.x{fill:#ebac2e;}.y{fill:#fbf0c0;}.z{fill:#f6da6b;}.ab{fill:#e6e6e6;}.ad{fill:#8ec8aa;}.ae{fill:#6ba585;}.ag{fill:#35393b;}</style><clipPath id="a"><rect class="a" width="379.306" height="387.862"/></clipPath><clipPath id="b"><rect class="a" width="216.543" height="135.477"/></clipPath></defs><g class="b"><path class="c" d="M189.654,6.265c104.743,0,189.654,84.911,189.654,189.654S294.4,385.573,189.654,385.573,0,300.662,0,195.919,84.911,6.265,189.654,6.265" transform="translate(0 2.289)"/><g transform="translate(52.475 147.62)"><g class="d" transform="translate(0 154.673)"><ellipse class="e" cx="137.178" cy="7.876" rx="137.178" ry="7.876"/></g><g transform="translate(4.33 0)"><g transform="translate(15.348)"><path class="f" d="M5.371,0h223.2a5.371,5.371,0,0,1,5.371,5.371V155.488a0,0,0,0,1,0,0H0a0,0,0,0,1,0,0V5.371A5.371,5.371,0,0,1,5.371,0Z"/><g transform="translate(9.658 9.166)"><rect class="g" width="214.627" height="139.305" rx="1.918"/></g><g transform="translate(8.301 8.241)"><g transform="translate(0.836)"><rect class="h" width="215.707" height="140.006" rx="1.918"/></g><g class="i"><path class="j" d="M65.957,32.244H39.073a1.314,1.314,0,0,1,0-2.629H65.957a1.314,1.314,0,0,1,0,2.629" transform="translate(-21.331 -16.73)"/><path class="k" d="M48.034,47.016H39.073a1.314,1.314,0,1,1,0-2.629h8.961a1.314,1.314,0,1,1,0,2.629" transform="translate(-21.331 -25.075)"/><path class="k" d="M68.631,135.654H59.67a1.315,1.315,0,0,1,0-2.63h8.961a1.315,1.315,0,0,1,0,2.63" transform="translate(-32.966 -75.147)"/><path class="l" d="M109.823,224.29h-8.961a1.315,1.315,0,0,1,0-2.63h8.961a1.315,1.315,0,0,1,0,2.63" transform="translate(-56.236 -125.219)"/><path class="k" d="M68.631,61.789H59.67a1.314,1.314,0,1,1,0-2.629h8.961a1.314,1.314,0,0,1,0,2.629" transform="translate(-32.966 -33.42)"/><path class="k" d="M68.631,120.881H59.67a1.315,1.315,0,0,1,0-2.63h8.961a1.315,1.315,0,0,1,0,2.63" transform="translate(-32.966 -66.802)"/><path class="k" d="M106.03,76.563H80.266a1.315,1.315,0,0,1,0-2.63H106.03a1.315,1.315,0,0,1,0,2.63" transform="translate(-44.601 -41.766)"/><path class="m" d="M162.859,76.563H153.9a1.315,1.315,0,0,1,0-2.63h8.961a1.315,1.315,0,0,1,0,2.63" transform="translate(-86.197 -41.766)"/><path class="n" d="M197.873,76.563h-8.961a1.315,1.315,0,0,1,0-2.63h8.961a1.315,1.315,0,0,1,0,2.63" transform="translate(-105.977 -41.766)"/><path class="k" d="M89.227,91.336H80.266a1.315,1.315,0,0,1,0-2.63h8.961a1.315,1.315,0,0,1,0,2.63" transform="translate(-44.601 -50.111)"/><path class="k" d="M89.227,106.108H80.266a1.315,1.315,0,0,1,0-2.63h8.961a1.315,1.315,0,0,1,0,2.63" transform="translate(-44.601 -58.456)"/><path class="k" d="M183.97,106.108h-8.961a1.315,1.315,0,0,1,0-2.63h8.961a1.315,1.315,0,0,1,0,2.63" transform="translate(-98.123 -58.456)"/><path class="j" d="M134.994,106.108H115.279a1.315,1.315,0,0,1,0-2.63h19.715a1.315,1.315,0,0,1,0,2.63" transform="translate(-64.381 -58.456)"/><path class="m" d="M124.241,91.336H115.28a1.315,1.315,0,0,1,0-2.63h8.961a1.315,1.315,0,0,1,0,2.63" transform="translate(-64.381 -50.111)"/><path class="n" d="M185.915,91.336h-35.62a1.315,1.315,0,0,1,0-2.63h35.62a1.315,1.315,0,0,1,0,2.63" transform="translate(-84.161 -50.111)"/><path class="k" d="M104.461,165.2h-24.2a1.315,1.315,0,0,1,0-2.63h24.2a1.315,1.315,0,0,1,0,2.63" transform="translate(-44.601 -91.838)"/><path class="m" d="M159.255,165.2h-8.961a1.315,1.315,0,0,1,0-2.63h8.961a1.315,1.315,0,0,1,0,2.63" transform="translate(-84.161 -91.838)"/><path class="n" d="M194.268,165.2h-8.961a1.315,1.315,0,0,1,0-2.63h8.961a1.315,1.315,0,0,1,0,2.63" transform="translate(-103.941 -91.838)"/><path class="k" d="M99.2,150.426H80.266a1.315,1.315,0,0,1,0-2.63H99.2a1.315,1.315,0,0,1,0,2.63" transform="translate(-44.601 -83.492)"/><path class="l" d="M213.577,150.426h-8.961a1.315,1.315,0,0,1,0-2.63h8.961a1.315,1.315,0,0,1,0,2.63" transform="translate(-114.849 -83.492)"/><path class="j" d="M160.819,150.426H138.192a1.315,1.315,0,0,1,0-2.63h22.627a1.315,1.315,0,0,1,0,2.63" transform="translate(-77.325 -83.492)"/><path class="l" d="M89.227,179.972H80.266a1.315,1.315,0,0,1,0-2.63h8.961a1.315,1.315,0,0,1,0,2.63" transform="translate(-44.601 -100.183)"/><path class="l" d="M89.227,209.517H80.266a1.315,1.315,0,0,1,0-2.63h8.961a1.315,1.315,0,0,1,0,2.63" transform="translate(-44.601 -116.874)"/><path class="j" d="M201.149,179.972H150.294a1.315,1.315,0,0,1,0-2.63h50.854a1.315,1.315,0,1,1,0,2.63" transform="translate(-84.161 -100.183)"/><path class="o" d="M124.241,179.972H115.28a1.315,1.315,0,0,1,0-2.63h8.961a1.315,1.315,0,0,1,0,2.63" transform="translate(-64.381 -100.183)"/><path class="j" d="M147.251,194.745H80.266a1.315,1.315,0,0,1,0-2.63h66.985a1.315,1.315,0,0,1,0,2.63" transform="translate(-44.601 -108.529)"/><path class="j" d="M185.381,239.063H121.458a1.315,1.315,0,0,1,0-2.63h63.923a1.315,1.315,0,1,1,0,2.63" transform="translate(-67.871 -133.565)"/><path class="j" d="M185.381,253.835H121.458a1.315,1.315,0,0,1,0-2.63h63.923a1.315,1.315,0,1,1,0,2.63" transform="translate(-67.871 -141.91)"/></g></g></g><g transform="translate(0 154.544)"><path class="p" d="M.767,0h263.1a.767.767,0,0,1,.767.767V2.624A6.138,6.138,0,0,1,258.5,8.762H6.138A6.138,6.138,0,0,1,0,2.624V.767A.767.767,0,0,1,.767,0Z"/></g><g class="q" transform="translate(109.628 154.544)"><path class="r" d="M1158.943,274.874a3.322,3.322,0,0,0,3.313,3.313h38.757a3.323,3.323,0,0,0,3.313-3.313,3.28,3.28,0,0,0-.182-1.068h-45.02A3.289,3.289,0,0,0,1158.943,274.874Z" transform="translate(-1158.943 -273.806)"/></g><g transform="translate(131.03 3.316)"><path class="j" d="M1180.63,140.071a1.289,1.289,0,1,1-1.289-1.289A1.289,1.289,0,0,1,1180.63,140.071Z" transform="translate(-1178.052 -138.782)"/></g></g></g><rect class="s" width="44.823" height="21.639" transform="translate(126.837 256.721)"/><rect class="s" width="44.823" height="21.639" transform="translate(223.437 256.721)"/><rect class="s" width="44.822" height="21.639" transform="translate(175.139 256.721)"/><path class="t" d="M201.984,205.707H160.718l-3.557-8.247V184.069h44.823Z" transform="translate(66.276 72.652)"/><path class="u" d="M237.087,77.046A12.073,12.073,0,0,1,241.4,85.93c5.4-4.147,11.742-5.143,15.774-1.974,5.175,4.068,4.585,13.453-1.322,20.964-4.072,5.18-9.607,8.106-14.348,8.1H217.948a11.6,11.6,0,0,1-7.324-2.312,11.193,11.193,0,0,1-3.841-6.03,19.7,19.7,0,0,1-1.4,2.029c-4.6,5.852-11.6,8.027-15.628,4.858s-3.569-10.481,1.03-16.331,11.6-8.027,15.627-4.858a6.521,6.521,0,0,1,1.562,1.768,29.914,29.914,0,0,1,4.285-7.383c7.306-9.3,18.422-12.753,24.827-7.72m32.54,24a6.682,6.682,0,1,1-9.468,1.057,6.735,6.735,0,0,1,9.468-1.057" transform="translate(68.332 27.307)"/><path class="u" d="M120.512,49.556c4.293,3.374,5.219,9.854,2.966,16.483,2.769-1.412,5.66-1.5,7.638.055,3.155,2.481,2.795,8.2-.806,12.787s-9.08,6.284-12.235,3.8a6.2,6.2,0,0,1-2.149-5.109c-4.21,3.936-9.152,6.248-13.554,6.247l-23.117-.008a6.176,6.176,0,0,1-3.819-1.375c-3.838-3.018-3.4-9.982.98-15.556S87.458,59.237,91.3,62.255a6.279,6.279,0,0,1,1.488,1.685,28.429,28.429,0,0,1,4.08-7.032c6.959-8.855,17.547-12.145,23.646-7.351" transform="translate(44.229 3.946)"/><path class="u" d="M68.647,77.046a12.076,12.076,0,0,1,4.316,8.885c5.4-4.148,11.741-5.145,15.773-1.976,5.175,4.068,4.584,13.455-1.32,20.967-4.072,5.18-9.607,8.1-14.349,8.1l-23.56,0a11.6,11.6,0,0,1-7.323-2.31,11.2,11.2,0,0,1-3.842-6.031,19.7,19.7,0,0,1-1.4,2.029c-4.6,5.852-11.6,8.027-15.628,4.859s-3.57-10.482,1.03-16.333,11.6-8.027,15.627-4.859a6.613,6.613,0,0,1,1.563,1.768,29.829,29.829,0,0,1,4.283-7.383c7.308-9.3,18.423-12.753,24.828-7.719m32.54,24a6.682,6.682,0,1,1-9.468,1.057,6.736,6.736,0,0,1,9.468-1.057" transform="translate(24.407 13.95)"/><path class="v" d="M165.218,153.848a14.507,14.507,0,0,1,18.644-8.857l5.182-55.945h21.247l6.415,69.258a11.188,11.188,0,1,1,7.766,20.406,19.447,19.447,0,0,1,15.335,21.325,24.3,24.3,0,0,1,33.716,1.066v56.253H80.206a37.547,37.547,0,1,1,25.407-65.189,28.475,28.475,0,0,1,35.749,5.086h0v0a24.586,24.586,0,0,1,27.824-27.889,14.505,14.505,0,0,1-3.969-15.514" transform="translate(24.438 37.932)"/><path class="u" d="M256.53,257.352V212.9a21.326,21.326,0,0,0-34.876,4.332A19.87,19.87,0,0,0,204.23,204.1a10.955,10.955,0,1,0-10.647-19.148L188.5,89.045h-11.65l-5.78,109.074a10.954,10.954,0,1,0-14.991,12.507A19.889,19.889,0,0,0,133.009,226.6a22.669,22.669,0,1,0-21.18,30.755Z" transform="translate(41.429 37.932)"/><path class="v" d="M229.4,184.839a19.4,19.4,0,0,0-19.17,16.409,15.29,15.29,0,0,0-23.534-4.47,21.164,21.164,0,0,0-33.508-10.9l16.285,37.763h63.667V185.2a19.5,19.5,0,0,0-3.74-.362" transform="translate(64.823 71.646)"/><path class="v" d="M161.939,184.655a21.168,21.168,0,0,0-7.895,19.064,13.051,13.051,0,1,0-11.766,18.7h35.945Z" transform="translate(56.069 72.866)"/><path class="w" d="M161.192,127.892c-6.845-5.832-13.231-19.79-13.231-30.955,0-6.086,1.76-11.544,4.545-15.25h8.685Z" transform="translate(62.914 35.243)"/><path class="x" d="M157.651,127.892c6.845-5.832,13.232-19.79,13.232-30.955,0-6.086-1.761-11.544-4.547-15.25h-8.685Z" transform="translate(66.455 35.243)"/><path class="y" d="M160.16,112.692c-4.851-4.133-9.377-14.025-9.377-21.938a19.384,19.384,0,0,1,2.118-9.068h7.26Z" transform="translate(63.945 35.243)"/><path class="z" d="M157.651,112.692c4.851-4.133,9.378-14.025,9.378-21.938a19.384,19.384,0,0,0-2.118-9.068h-7.26Z" transform="translate(66.455 35.243)"/><path class="aa" d="M170.85,89.5l6.438,12.3c2.186,4.175,4.507,2.914,5.845,1.027,4.773-6.731,7.663-15.328,7.663-27.205,0-12.656-6.062-24.468-11.654-31.618q.1,1.907.1,3.774c0,13.879-3.235,31.566-8.394,41.725" transform="translate(71.277 21.472)"/><path class="u" d="M146.7,101.7c-5.16-10.157-8.394-27.846-8.394-41.725,0-16.712,6.29-36.322,13.247-49.356H164.72V101.7Z" transform="translate(59.385 9.274)"/><path class="aa" d="M149.79,89.76l-7.121,13.37c-1.644,3.089-3.931,1.611-5.268-.184-5.063-6.8-7.557-15.19-7.557-27.066,0-12.828,6.229-24.789,11.882-31.908,1.154-1.327,3.11-.849,2.612,2.381-1.992,12.936.5,33.688,5.452,43.407" transform="translate(56.294 21.21)"/><path class="ab" d="M175.673,101.7c5.161-10.157,8.394-27.846,8.394-41.725,0-16.712-6.289-36.322-13.247-49.356H157.651V101.7Z" transform="translate(66.455 9.274)"/><path class="aa" d="M162.474,83.282H151.788c-1.658,0-3.688-.324-4.9-1.944a27.844,27.844,0,0,1-2.44-4.016h18.022Z" transform="translate(61.632 33.648)"/><path class="aa" d="M148.006,14.494C152.658,5.777,157.607,0,161.175,0V14.494Z" transform="translate(62.93 5.396)"/><path class="ac" d="M157.651,83.282h10.686c1.658,0,3.687-.324,4.9-1.944a27.969,27.969,0,0,0,2.44-4.016H157.651Z" transform="translate(66.455 33.648)"/><path class="ac" d="M170.82,14.494C166.168,5.777,161.219,0,157.651,0V14.494Z" transform="translate(66.455 5.396)"/><path class="aa" d="M160.5,100.126c-.505,2.641-3.347,2.97-4.126-.139s-2.591-37.2-1.29-43.075c1.044-4.719,6.323-5.724,7.488-.924,1.828,7.529-.945,38.255-2.071,44.139" transform="translate(65.349 24.704)"/><path class="ac" d="M160.376,100.126a2.4,2.4,0,0,1-1.744,2.066,1.617,1.617,0,0,1-.666-.031.991.991,0,0,0,.669-.922V57.892c0-2.19-1.77-3.6-3.676-.98,1.045-4.719,6.323-5.724,7.488-.924,1.828,7.529-.945,38.257-2.071,44.139" transform="translate(65.471 24.704)"/><path class="ad" d="M160.475,50.791a10.552,10.552,0,1,1,0-21.1Z" transform="translate(63.63 16.242)"/><path class="ae" d="M157.651,50.791a10.552,10.552,0,1,0,0-21.1Z" transform="translate(66.455 16.242)"/><path class="af" d="M161.748,56.821a15.31,15.31,0,0,1,0-30.62Z" transform="translate(62.357 14.969)"/><path class="af" d="M157.651,56.821a15.31,15.31,0,1,0,0-30.62Z" transform="translate(66.455 14.969)"/><path class="aa" d="M161.463,55.471a14.244,14.244,0,1,1,0-28.489Z" transform="translate(62.642 15.254)"/><path class="aa" d="M157.651,55.471a14.244,14.244,0,0,0,0-28.489Z" transform="translate(66.455 15.254)"/><path class="ac" d="M160.76,52.143a11.619,11.619,0,1,1,0-23.238Z" transform="translate(63.345 15.957)"/><path class="ag" d="M157.651,52.143a11.619,11.619,0,0,0,0-23.238Z" transform="translate(66.455 15.957)"/><path class="ac" d="M148.906,87.764l-7.12,13.37c-1.419,2.664-3.773-.916-4.642-2.445-3.295-5.789-5.6-13.912-4.675-24.028.935-10.2,5.912-19.759,10.5-25.918-.957,13.007,1.615,30.018,5.938,39.021" transform="translate(57.178 23.206)"/><path class="ac" d="M170.85,87.024,177.1,98.961c2.211,4.22,4.115.986,5.18-.606,3.781-5.653,5.688-12.947,5.688-22.514,0-9.5-4.341-19.139-8.878-25.071A121.963,121.963,0,0,1,175.4,74.492a53.653,53.653,0,0,1-4.545,12.532" transform="translate(71.277 23.946)"/><path class="ah" d="M160.475,50.791a10.552,10.552,0,1,1,0-21.1Z" transform="translate(63.63 16.242)"/><path class="ac" d="M157.651,50.791a10.552,10.552,0,1,0,0-21.1Z" transform="translate(66.455 16.242)"/></g></svg>