<svg xmlns="http://www.w3.org/2000/svg" width="160.27" height="51.57" viewBox="0 0 160.27 51.57">
  <g id="Solo_Bumblebee_Logo" transform="translate(-8.997 -22.267)">
    <path id="Path_105447" data-name="Path 105447" d="M27,29.72h.146a6.935,6.935,0,0,1,6.935,6.935v7H20.06v-7A6.935,6.935,0,0,1,27,29.72Z" transform="translate(-2.079 -1.4)" fill="#ffb831"/>
    <path id="Path_105448" data-name="Path 105448" d="M21.24,51.78H33.227v.138a3.411,3.411,0,0,1-3.411,3.411H24.651a3.411,3.411,0,0,1-3.411-3.411V51.78Z" transform="translate(-2.301 -5.546)" fill="#ffb831"/>
    <path id="Path_105449" data-name="Path 105449" d="M35.953,52.366a4.166,4.166,0,0,1-2.03-.536A4.978,4.978,0,0,1,32.3,50.254a7.423,7.423,0,0,1-.812-1.624,8.048,8.048,0,0,1-6.05,2.737H24.38a7.849,7.849,0,0,1-6.058-2.7c-.057.171-.122.325-.187.487l-.106.227a5.417,5.417,0,0,1-2.136,2.436,4.109,4.109,0,0,1-2.014.536A4.58,4.58,0,0,1,10.4,50.628,6.5,6.5,0,0,1,9,46.413a10.7,10.7,0,0,1,1.795-5.6,22.52,22.52,0,0,1,5.514-5.774h0a8.121,8.121,0,0,1,5.636-7.691,1.77,1.77,0,0,0-.114-.365.926.926,0,0,0-.447-.4l-.106.106a2.388,2.388,0,0,1-2.639.812,2.753,2.753,0,0,1-1.7-1.4,2.6,2.6,0,0,1-.13-2.046,2.915,2.915,0,0,1,3.679-1.624,2.241,2.241,0,0,1,1.624,2.006c.114.041.26.081.43.154l.268.13a3.378,3.378,0,0,1,1.4,1.624q.114.317.195.633H25.7a6.943,6.943,0,0,1,.56-1.129,3.46,3.46,0,0,1,1.64-1.372h0l.317-.081.455-.065a2.249,2.249,0,0,1,1.965-1.624,2.9,2.9,0,0,1,3.248,2.355,2.574,2.574,0,0,1-.528,2.006,2.721,2.721,0,0,1-1.933.983,2.388,2.388,0,0,1-2.436-1.307l-.073-.122a.869.869,0,0,0-.52.3,1.787,1.787,0,0,0-.252.487A8.121,8.121,0,0,1,33.5,34.987a23.112,23.112,0,0,1,5.62,5.839h0a10.557,10.557,0,0,1,1.795,5.587,6.5,6.5,0,0,1-1.454,4.231A4.645,4.645,0,0,1,35.953,52.366Zm-17-5.863c.5,1.559,3.248,3.33,5.214,3.33h1.47a7.015,7.015,0,0,0,5.189-3.33Zm-.918-4.377h13.7V39.291h-13.7Zm0-3.679H31.884v-3.7a6.383,6.383,0,0,0-1.933-4.328,6.586,6.586,0,0,0-4.45-1.868H24.356A6.578,6.578,0,0,0,19.93,30.48a6.407,6.407,0,0,0-1.892,4.361ZM29.716,25.453a2.193,2.193,0,0,1,.471.577c.276.43.447.707,1.121.658a1.356,1.356,0,0,0,.95-.471A1.178,1.178,0,0,0,32.5,25.3a1.494,1.494,0,0,0-1.714-1.137.861.861,0,0,0-.771.666,1.624,1.624,0,0,1-.3.6Zm-11.3-1.381a1.048,1.048,0,0,0-.268.422,1.186,1.186,0,0,0,.049.942,1.356,1.356,0,0,0,.812.658c.633.195.869-.049,1.226-.414a2.38,2.38,0,0,1,.577-.463v-.057a1.746,1.746,0,0,1-1.868-.081A1.332,1.332,0,0,1,18.412,24.072ZM19.849,24h.089A.114.114,0,0,0,19.849,24Z" fill="#fff"/>
    <path id="Path_105450" data-name="Path 105450" d="M38.723,41.346a22.251,22.251,0,0,0-5.685-5.855v-.3a7.4,7.4,0,0,0-5.522-7.13,3.606,3.606,0,0,1,.577-1.381,1.624,1.624,0,0,1,1.072-.585c.763-.26.593,1.624,2.436,1.446a1.917,1.917,0,0,0,1.835-2.176,2.193,2.193,0,0,0-2.485-1.746,1.559,1.559,0,0,0-1.372,1.161c-.187.617-.2.382-.991.528l-.268.065a2.956,2.956,0,0,0-1.291.95,5.985,5.985,0,0,0-.666,1.5H24.033A6.269,6.269,0,0,0,23.74,26.7a2.956,2.956,0,0,0-1.048-1.259l-.252-.122c-.747-.309-.812-.081-.861-.723a1.543,1.543,0,0,0-1.1-1.413,2.193,2.193,0,0,0-2.794,1.194,1.917,1.917,0,0,0,1.356,2.509c1.77.536,1.99-1.324,2.688-.91a1.624,1.624,0,0,1,.926.812,3.1,3.1,0,0,1,.26,1.194h0a7.39,7.39,0,0,0-5.685,7.171v.406a22,22,0,0,0-5.685,5.806A9.916,9.916,0,0,0,9.87,46.559a5.766,5.766,0,0,0,1.267,3.752,3.89,3.89,0,0,0,2.948,1.462,3.37,3.37,0,0,0,1.624-.447,4.6,4.6,0,0,0,1.852-2.168A1.42,1.42,0,0,0,17.69,49a8.608,8.608,0,0,0,.536-1.819,7.366,7.366,0,0,0,6.367,3.654h1.056A7.366,7.366,0,0,0,32,47.176a7.5,7.5,0,0,0,.195.812,6.878,6.878,0,0,0,.877,1.982,4.239,4.239,0,0,0,1.421,1.356,3.378,3.378,0,0,0,1.673.447,3.947,3.947,0,0,0,2.98-1.47,5.8,5.8,0,0,0,1.267-3.744A9.867,9.867,0,0,0,38.723,41.346ZM19.314,24.121a.707.707,0,0,1,.812-.69.812.812,0,0,1,.812.812C20.914,25.047,19.314,25.087,19.314,24.121ZM31.9,42.174H18.34V39.535H31.9ZM18.746,45.666a6.156,6.156,0,0,1-.406-2.2v-.154H31.9v.162a6.156,6.156,0,0,1-.406,2.2Zm1.429-14.918a6.229,6.229,0,0,1,4.418-1.827h1.056A6.253,6.253,0,0,1,31.9,35.19v3.248H18.34V35.19a6.221,6.221,0,0,1,1.835-4.442ZM16.212,49.377a3.045,3.045,0,0,1-1.023,1,2.217,2.217,0,0,1-1.1.3A2.8,2.8,0,0,1,12,49.613a4.637,4.637,0,0,1-.991-3.053,8.763,8.763,0,0,1,1.519-4.621,20.254,20.254,0,0,1,4.686-4.978v6.5a7.057,7.057,0,0,0,.073,1.186A8.633,8.633,0,0,1,16.212,49.377Zm13.806-1.51a6.229,6.229,0,0,1-4.4,1.827H24.593a6.2,6.2,0,0,1-4.4-1.827,5.977,5.977,0,0,1-.812-1.064h11.5a5.936,5.936,0,0,1-.845,1.064Zm8.227,1.73a2.818,2.818,0,0,1-2.111,1.08,2.266,2.266,0,0,1-1.113-.3,3.687,3.687,0,0,1-1.494-1.819,10.281,10.281,0,0,1-.658-3.89h0a7.251,7.251,0,0,0,.1-1.194V36.912a20.448,20.448,0,0,1,4.767,5.043,8.746,8.746,0,0,1,1.551,4.6A4.637,4.637,0,0,1,38.26,49.6Z" transform="translate(-0.164 -0.146)" fill="#353a3b"/>
    <path id="Path_105451" data-name="Path 105451" d="M37.174,25.445a.707.707,0,0,1,.869.593c.1.966-1.494,1.1-1.584.292A.812.812,0,0,1,37.174,25.445Z" transform="translate(-5.16 -0.593)" fill="#fff6e5"/>
    <path id="Path_105452" data-name="Path 105452" d="M28.151,38.223c1.121,0,1.527-.39,2.014,0s-.439,1.868-2.022,1.868-2.485-1.413-2.03-1.868.918,0,2.038,0" transform="translate(-3.194 -2.96)" fill="#2f3234"/>
    <path id="Path_105453" data-name="Path 105453" d="M29.489,39.908a2.055,2.055,0,0,1-1.08.3,2.03,2.03,0,0,1-1.129-.3c0-.341.633-.52,1.088-.3.471-.219,1.072,0,1.088.317" transform="translate(-3.435 -3.24)" fill="#a04339"/>
    <path id="Path_105454" data-name="Path 105454" d="M28.312,38.394c.731,0,1.137-.154,1.462-.154h0a.447.447,0,0,1-.422.463.43.43,0,0,1-.211-.057.5.5,0,0,1-.812.049.471.471,0,0,1-.4.2.487.487,0,0,1-.43-.26.406.406,0,0,1-.219.065.455.455,0,0,1-.43-.463h0a13.742,13.742,0,0,0,1.478.162" transform="translate(-3.355 -3.001)" fill="#fff"/>
    <path id="Path_105455" data-name="Path 105455" d="M33.19,36a1.178,1.178,0,1,1-1.08,1.173A1.178,1.178,0,0,1,33.19,36" transform="translate(-4.343 -2.579)" fill="#2f3234"/>
    <path id="Path_105456" data-name="Path 105456" d="M34.023,36.43a.325.325,0,1,1-.235.092.325.325,0,0,1,.235-.092" transform="translate(-4.64 -2.661)" fill="#f2f8fa"/>
    <path id="Path_105457" data-name="Path 105457" d="M23.59,36a1.178,1.178,0,1,1-1.08,1.173A1.178,1.178,0,0,1,23.59,36" transform="translate(-2.539 -2.579)" fill="#2f3234"/>
    <path id="Path_105458" data-name="Path 105458" d="M24.423,36.43a.325.325,0,1,1-.235.092.325.325,0,0,1,.235-.092" transform="translate(-2.836 -2.661)" fill="#f2f8fa"/>
    <path id="Path_105459" data-name="Path 105459" d="M33.475,34.078a.276.276,0,0,1,.284.219.211.211,0,0,1-.138.284.292.292,0,0,1-.292-.219.2.2,0,0,1,.146-.284M28.708,32.34c-1.064.2-1.372-.812,0-1.121a4.686,4.686,0,0,1,4.694,2.25c.187.406-.114.552-.43.146a4.272,4.272,0,0,0-4.264-1.283" transform="translate(-3.531 -1.673)" fill="#fff6e5"/>
    <path id="Path_105460" data-name="Path 105460" d="M41.2,45.768c-.39.333.414,1.283.861,2.859s1.121,2.1,1.511,1.762.309-1.34-.325-2.509-1.624-2.436-2.046-2.111" transform="translate(-6.031 -4.406)" fill="#d6dee6"/>
    <path id="Path_105461" data-name="Path 105461" d="M13.707,50.9a.642.642,0,0,1,.439.682.452.452,0,0,1-.528.479.65.65,0,0,1-.439-.69.463.463,0,0,1,.528-.471m1.925-5.319c.5.065-.812.739-1.429,3.5-.219.983-.187,1.486-.642,1.511-.195,0-.69-.106-.365-1.478s1.9-3.606,2.436-3.533" transform="translate(-0.769 -4.38)" fill="#d6dee6"/>
    <path id="Path_105462" data-name="Path 105462" d="M22.292,23.518a.707.707,0,0,0-.812.69c0,.966,1.624.926,1.624.114A.812.812,0,0,0,22.292,23.518Z" transform="translate(-2.346 -0.234)" fill="#fff6e5"/>
    <path id="Path_105463" data-name="Path 105463" d="M56.541,35.338a6.692,6.692,0,0,1,1.754-.812,6.619,6.619,0,0,1,1.965-.292,6.887,6.887,0,0,1,1.795.236,6.749,6.749,0,0,1,1.624.674A6.821,6.821,0,0,1,65.044,36.2a6.708,6.708,0,0,1,1.7,2.94,6.9,6.9,0,0,1,0,3.573,6.773,6.773,0,0,1-3.086,4.02,6.432,6.432,0,0,1-1.624.674,6.562,6.562,0,0,1-1.795.244,5.685,5.685,0,0,1-2-.357,7.577,7.577,0,0,1-1.746-.91,1.722,1.722,0,0,1-.195.544,1.535,1.535,0,0,1-.349.4,1.413,1.413,0,0,1-.447.244,1.462,1.462,0,0,1-.487.081,1.413,1.413,0,0,1-.544-.106,1.364,1.364,0,0,1-.487-.3,1.527,1.527,0,0,1-.341-.5,1.835,1.835,0,0,1-.122-.707V31.416a1.957,1.957,0,0,1,.122-.707,1.624,1.624,0,0,1,.341-.5,1.494,1.494,0,0,1,.487-.3,1.5,1.5,0,0,1,1.1,0,1.543,1.543,0,0,1,.479.3,1.47,1.47,0,0,1,.333.5,1.8,1.8,0,0,1,.13.707Zm3.719,1.876a3.573,3.573,0,0,0-1.429.292,3.752,3.752,0,0,0-1.99,1.982,3.427,3.427,0,0,0-.3,1.437,3.468,3.468,0,0,0,.3,1.446,3.7,3.7,0,0,0,.812,1.178,3.664,3.664,0,0,0,4.06.812,3.671,3.671,0,0,0,1.941-1.99,3.7,3.7,0,0,0,0-2.883,3.7,3.7,0,0,0-.812-1.186,3.955,3.955,0,0,0-1.186-.812Z" transform="translate(-8.366 -1.415)" fill="#fff"/>
    <path id="Path_105464" data-name="Path 105464" d="M80.486,47.834a5.758,5.758,0,0,1-1.4.6,5.555,5.555,0,0,1-1.559.211,5.4,5.4,0,0,1-2.225-.455,5.571,5.571,0,0,1-1.819-1.243,5.847,5.847,0,0,1-1.251-1.827A5.5,5.5,0,0,1,71.78,42.9V36.716A1.965,1.965,0,0,1,71.91,36a1.575,1.575,0,0,1,.341-.5,1.364,1.364,0,0,1,.487-.3,1.413,1.413,0,0,1,.544-.106,1.462,1.462,0,0,1,.56.106,1.486,1.486,0,0,1,.479.3,1.437,1.437,0,0,1,.333.5,1.811,1.811,0,0,1,.13.715V42.9a2.777,2.777,0,0,0,1.689,2.517,2.436,2.436,0,0,0,1.056.227,2.574,2.574,0,0,0,1.08-.227,2.785,2.785,0,0,0,1.47-1.47A2.59,2.59,0,0,0,80.3,42.9v-6.18a1.811,1.811,0,0,1,.13-.715,1.348,1.348,0,0,1,.341-.5,1.373,1.373,0,0,1,.471-.3,1.34,1.34,0,0,1,.536-.106,1.567,1.567,0,0,1,1.056.406,1.454,1.454,0,0,1,.341.5,1.965,1.965,0,0,1,.13.715V47.03a1.827,1.827,0,0,1-.13.707,1.413,1.413,0,0,1-.341.5,1.567,1.567,0,0,1-1.056.406,1.437,1.437,0,0,1-.755-.211Z" transform="translate(-11.797 -2.411)" fill="#fff"/>
    <path id="Path_105465" data-name="Path 105465" d="M97.081,36.781a5.271,5.271,0,0,1,1.8-1.186,5.953,5.953,0,0,1,2.1-.382,5.449,5.449,0,0,1,2.038.382,4.946,4.946,0,0,1,1.624,1.064,5.238,5.238,0,0,1,1.072,1.624,5.433,5.433,0,0,1,.382,2.046v6.7a1.689,1.689,0,0,1-.13.707,1.4,1.4,0,0,1-.333.5,1.527,1.527,0,0,1-.487.3,1.454,1.454,0,0,1-.552.106,1.413,1.413,0,0,1-.544-.106,1.364,1.364,0,0,1-.487-.3,1.527,1.527,0,0,1-.341-.5,1.836,1.836,0,0,1-.122-.707v-6.7a2.558,2.558,0,0,0-.154-.885,1.933,1.933,0,0,0-1.965-1.234,2.542,2.542,0,0,0-1.129.236,2.314,2.314,0,0,0-.812.625,2.777,2.777,0,0,0-.487.95,3.793,3.793,0,0,0-.162,1.145V47.03a1.827,1.827,0,0,1-.13.707,1.527,1.527,0,0,1-.341.5,1.421,1.421,0,0,1-.463.3,1.437,1.437,0,0,1-.544.106,1.462,1.462,0,0,1-.56-.106,1.364,1.364,0,0,1-.487-.3,1.332,1.332,0,0,1-.349-.5,1.689,1.689,0,0,1-.13-.707v-6.7a2.388,2.388,0,0,0-.138-.885,1.965,1.965,0,0,0-.414-.658,1.852,1.852,0,0,0-.666-.43,2.436,2.436,0,0,0-.869-.146,2.7,2.7,0,0,0-1.121.227,2.371,2.371,0,0,0-.812.617,2.558,2.558,0,0,0-.487.918,3.7,3.7,0,0,0-.179,1.129V47.03a1.835,1.835,0,0,1-.122.707,1.527,1.527,0,0,1-.341.5,1.4,1.4,0,0,1-.479.3,1.494,1.494,0,0,1-1.1,0,1.364,1.364,0,0,1-.487-.3,1.4,1.4,0,0,1-.333-.5,1.689,1.689,0,0,1-.13-.707V36.716A1.811,1.811,0,0,1,87.84,36a1.437,1.437,0,0,1,.333-.5,1.364,1.364,0,0,1,.487-.3,1.454,1.454,0,0,1,.552-.106,1.624,1.624,0,0,1,.763.195,1.356,1.356,0,0,1,.568.6,5.88,5.88,0,0,1,4.832-.3Z" transform="translate(-14.79 -2.411)" fill="#fff"/>
    <path id="Path_105466" data-name="Path 105466" d="M115.06,35.35a6.765,6.765,0,0,1,3.728-1.121,6.87,6.87,0,0,1,1.787.236,6.749,6.749,0,0,1,1.624.674,6.822,6.822,0,0,1,2.436,2.436,6.781,6.781,0,0,1-1.056,8.162,7.131,7.131,0,0,1-1.364,1.056,6.432,6.432,0,0,1-1.624.674,6.545,6.545,0,0,1-1.787.244,5.766,5.766,0,0,1-2.006-.357,7.576,7.576,0,0,1-1.746-.91,1.478,1.478,0,0,1-.544.942,1.462,1.462,0,0,1-.934.325,1.437,1.437,0,0,1-.544-.106,1.364,1.364,0,0,1-.487-.3,1.4,1.4,0,0,1-.333-.5,1.689,1.689,0,0,1-.13-.707V31.476a1.8,1.8,0,0,1,.13-.707,1.47,1.47,0,0,1,.333-.5,1.494,1.494,0,0,1,.487-.3,1.5,1.5,0,0,1,1.1,0,1.543,1.543,0,0,1,.479.3,1.624,1.624,0,0,1,.341.5,1.957,1.957,0,0,1,.122.707Zm3.728,1.876a3.581,3.581,0,0,0-1.437.292,3.76,3.76,0,0,0-1.186.812,3.59,3.59,0,0,0-.812,1.186,3.435,3.435,0,0,0-.309,1.437,3.476,3.476,0,0,0,.309,1.446,3.549,3.549,0,0,0,.812,1.178,3.664,3.664,0,0,0,4.061.812,3.59,3.59,0,0,0,1.186-.812,3.817,3.817,0,0,0,.812-1.178,3.728,3.728,0,0,0,.284-1.446,3.685,3.685,0,0,0-2.266-3.419Z" transform="translate(-19.37 -1.427)" fill="#fff"/>
    <path id="Path_105467" data-name="Path 105467" d="M133.306,46.036a1.689,1.689,0,0,1-.13.707,1.381,1.381,0,0,1-.812.812,1.462,1.462,0,0,1-.56.106,1.437,1.437,0,0,1-.544-.106,1.364,1.364,0,0,1-.487-.3,1.527,1.527,0,0,1-.341-.5,1.835,1.835,0,0,1-.122-.707V31.426a1.957,1.957,0,0,1,.122-.707,1.624,1.624,0,0,1,.341-.5,1.494,1.494,0,0,1,.487-.3,1.5,1.5,0,0,1,1.1,0,1.543,1.543,0,0,1,.479.3,1.47,1.47,0,0,1,.333.5,1.794,1.794,0,0,1,.13.707Z" transform="translate(-22.795 -1.417)" fill="#fff"/>
    <path id="Path_105468" data-name="Path 105468" d="M148,46.309a6.424,6.424,0,0,1-2.436,1.77,7.439,7.439,0,0,1-2.948.593,7.228,7.228,0,0,1-2.712-.512,6.773,6.773,0,0,1-2.209-1.4,6.619,6.619,0,0,1-2.055-4.816,6.925,6.925,0,0,1,.918-3.411,7.13,7.13,0,0,1,1.056-1.364,6.822,6.822,0,0,1,1.364-1.056,6.684,6.684,0,0,1,3.451-.877,6.4,6.4,0,0,1,2.436.463,6.545,6.545,0,0,1,2.022,1.283,6.756,6.756,0,0,1,1.429,1.933,6.415,6.415,0,0,1,.666,2.4,2.046,2.046,0,0,1-.081.568,1.852,1.852,0,0,1-.268.52,1.291,1.291,0,0,1-.439.4,1.389,1.389,0,0,1-.642.154H138.8a3.248,3.248,0,0,0,.552,1.161,3.63,3.63,0,0,0,.9.861,3.873,3.873,0,0,0,1.129.52,4.54,4.54,0,0,0,2.948-.146,3.549,3.549,0,0,0,1.348-.991,1.852,1.852,0,0,1,.593-.463,1.543,1.543,0,0,1,1.2,0,1.754,1.754,0,0,1,.479.317,1.47,1.47,0,0,1,.333.463,1.34,1.34,0,0,1,.122.56,1.714,1.714,0,0,1-.106.568Zm-2.436-6.359a3.776,3.776,0,0,0-1.348-1.259,3.679,3.679,0,0,0-1.787-.455,3.622,3.622,0,0,0-1.8.455,3.874,3.874,0,0,0-1.356,1.226Z" transform="translate(-23.797 -2.437)" fill="#fff"/>
    <path id="Path_105469" data-name="Path 105469" d="M156.721,35.35a6.716,6.716,0,0,1,3.719-1.121,6.87,6.87,0,0,1,1.787.236,6.749,6.749,0,0,1,1.624.674,6.822,6.822,0,0,1,1.364,1.056,7.131,7.131,0,0,1,1.056,1.364,6.805,6.805,0,0,1,0,6.8,6.822,6.822,0,0,1-2.436,2.436,6.432,6.432,0,0,1-1.624.674,6.545,6.545,0,0,1-1.787.244,5.733,5.733,0,0,1-2.006-.357,7.577,7.577,0,0,1-1.746-.91,1.542,1.542,0,0,1-.195.544,1.4,1.4,0,0,1-.349.4,1.47,1.47,0,0,1-.439.244,1.51,1.51,0,0,1-.5.081,1.438,1.438,0,0,1-.544-.106,1.365,1.365,0,0,1-.487-.3,1.527,1.527,0,0,1-.341-.5,1.835,1.835,0,0,1-.122-.707V31.476a1.957,1.957,0,0,1,.122-.707,1.624,1.624,0,0,1,.341-.5,1.494,1.494,0,0,1,.487-.3,1.5,1.5,0,0,1,1.1,0,1.543,1.543,0,0,1,.479.3,1.47,1.47,0,0,1,.333.5,1.8,1.8,0,0,1,.13.707Zm3.719,1.876a3.581,3.581,0,0,0-1.437.292,3.752,3.752,0,0,0-1.99,1.982,3.557,3.557,0,0,0-.3,1.437,3.6,3.6,0,0,0,.3,1.446,3.7,3.7,0,0,0,.812,1.178,3.664,3.664,0,0,0,4.061.812,3.59,3.59,0,0,0,1.186-.812,3.818,3.818,0,0,0,.812-1.178,3.728,3.728,0,0,0,.284-1.446,3.685,3.685,0,0,0-2.266-3.419Z" transform="translate(-27.19 -1.427)" fill="#fff"/>
    <path id="Path_105470" data-name="Path 105470" d="M184.281,46.3a6.3,6.3,0,0,1-2.4,1.77,7.374,7.374,0,0,1-2.94.593,7.2,7.2,0,0,1-2.712-.512,6.644,6.644,0,0,1-4.02-8,6.14,6.14,0,0,1,.674-1.624,6.675,6.675,0,0,1,5.8-3.33,6.44,6.44,0,0,1,2.436.463,6.74,6.74,0,0,1,2.022,1.283,6.911,6.911,0,0,1,1.429,1.933,6.415,6.415,0,0,1,.666,2.4,2.436,2.436,0,0,1-.081.568,1.851,1.851,0,0,1-.268.52,1.4,1.4,0,0,1-.447.4,1.356,1.356,0,0,1-.633.154h-8.73a3.426,3.426,0,0,0,.56,1.161,3.6,3.6,0,0,0,.893.861,3.97,3.97,0,0,0,1.129.52,4.564,4.564,0,0,0,2.956-.146,3.614,3.614,0,0,0,1.372-.991,1.77,1.77,0,0,1,.593-.463,1.551,1.551,0,0,1,.633-.13,1.575,1.575,0,0,1,.568.114,1.713,1.713,0,0,1,.471.317,1.486,1.486,0,0,1,.341.463,1.332,1.332,0,0,1,.114.56,1.535,1.535,0,0,1-.106.568Zm-2.436-6.359a3.739,3.739,0,0,0-4.946-1.259,3.923,3.923,0,0,0-1.34,1.226Z" transform="translate(-30.623 -2.43)" fill="#fff"/>
    <path id="Path_105471" data-name="Path 105471" d="M202.319,46.3a6.3,6.3,0,0,1-2.4,1.77,7.374,7.374,0,0,1-2.94.593,7.163,7.163,0,0,1-2.712-.512,6.692,6.692,0,0,1-2.209-1.4,6.5,6.5,0,0,1-1.5-2.128A6.4,6.4,0,0,1,190,41.94a6.212,6.212,0,0,1,.252-1.787,6.14,6.14,0,0,1,.674-1.624,6.675,6.675,0,0,1,5.8-3.33,6.44,6.44,0,0,1,2.436.463,6.741,6.741,0,0,1,2.022,1.283,7.074,7.074,0,0,1,1.429,1.933,6.415,6.415,0,0,1,.666,2.4,2.436,2.436,0,0,1-.081.568,1.852,1.852,0,0,1-.268.52,1.4,1.4,0,0,1-.447.4,1.364,1.364,0,0,1-.642.154h-8.722a3.427,3.427,0,0,0,.56,1.161,3.6,3.6,0,0,0,.893.861,3.971,3.971,0,0,0,1.129.52,4.491,4.491,0,0,0,1.283.179,4.54,4.54,0,0,0,1.673-.325,3.614,3.614,0,0,0,1.372-.991,1.77,1.77,0,0,1,.593-.463,1.543,1.543,0,0,1,.625-.13,1.624,1.624,0,0,1,.577.114,1.713,1.713,0,0,1,.471.317,1.624,1.624,0,0,1,.341.463,1.47,1.47,0,0,1,.114.56,1.535,1.535,0,0,1-.106.568Zm-2.436-6.359a3.739,3.739,0,0,0-4.946-1.259,3.849,3.849,0,0,0-1.34,1.226Z" transform="translate(-34.011 -2.43)" fill="#fff"/>
    <path id="Path_105472" data-name="Path 105472" d="M74.02,80.4a6.651,6.651,0,0,1-1.137-.106l.268-1.519a5.384,5.384,0,0,0,2.672-.227l.5,1.462a7.106,7.106,0,0,1-2.3.39ZM88,79.013l-1.446-.56.723.276-.723-.276a8.8,8.8,0,0,0,.479-2.761h1.543A10.4,10.4,0,0,1,88,79.013Zm-18.232-.195a6.5,6.5,0,0,1-1.949-2.859l1.462-.5a5.035,5.035,0,0,0,1.486,2.185Zm9.372-.958-1.34-.812a10.354,10.354,0,0,0,.975-2.68l1.5.349a11.37,11.37,0,0,1-1.153,3.143ZM86.5,72.987a5.084,5.084,0,0,0-1.746-1.982l.893-1.267a6.667,6.667,0,0,1,2.225,2.631ZM69.278,72.9l-1.454-.52A5.685,5.685,0,0,1,70,69.633l.885,1.267a4.109,4.109,0,0,0-1.624,2.038ZM80.7,71.582l-1.535-.114c0-.5.049-1.023.049-1.535a13.933,13.933,0,0,0-.049-1.446h.187l.041-.625a16.5,16.5,0,0,1,3.192.512l-.406,1.494a11.515,11.515,0,0,0-1.421-.3c0,.122,0,.252,0,.374A7.925,7.925,0,0,1,80.7,71.582ZM36.437,70.77a12.076,12.076,0,0,1-3.248-.455l.439-1.486a10.005,10.005,0,0,0,2.834.39Zm3.167-.2-.162-1.535c1.1-.114,2.087-.252,3.021-.4l.244,1.519c-.926.154-1.941.284-3.07.406ZM73.4,69.82l-.39-1.494a16.168,16.168,0,0,1,3.2-.479l.089,1.535a15.016,15.016,0,0,0-2.867.43Zm-27.611-.3-.39-1.494a22.432,22.432,0,0,0,2.842-.918l.577,1.437a25.988,25.988,0,0,1-2.98.966Zm-15.552-.877a7.479,7.479,0,0,1-1.868-2.85l1.446-.552a5.855,5.855,0,0,0,1.478,2.274Zm21.5-1.494-.763-1.34a28.423,28.423,0,0,0,2.517-1.624l.9,1.259a30.17,30.17,0,0,1-2.656,1.705Zm27.027-1.575A10.785,10.785,0,0,0,77.724,62.9l1.348-.771a11.58,11.58,0,0,1,1.194,3.07ZM56.869,63.534l-.958-1.21,1.178-.934c.43-.349.877-.674,1.324-.975l.869,1.275c-.414.276-.812.585-1.226.9Zm-29.235-.95a25.8,25.8,0,0,1-.114-2.647v-.528h1.543v.512a24.6,24.6,0,0,0,.106,2.493Zm48.2-1.624a13.513,13.513,0,0,0-2.591-1.34l.544-1.437a14.618,14.618,0,0,1,2.9,1.486Zm-14.009-.723-.617-1.4a17.59,17.59,0,0,1,3.029-1.1l.39,1.494a17.239,17.239,0,0,0-2.777,1Zm8.592-1.348a14.512,14.512,0,0,0-2.915-.122l-.1-1.535a15.381,15.381,0,0,1,3.248.13Z" transform="translate(-3.48 -6.564)" fill="#fff"/>
  </g>
</svg>
