<svg id="Group_4018" data-name="Group 4018" xmlns="http://www.w3.org/2000/svg" width="122.982" height="45.825" viewBox="0 0 122.982 45.825">
  <path id="Path_3896" data-name="Path 3896" d="M174.743,46.661a4.319,4.319,0,0,0,3.213-1.358,4.752,4.752,0,0,0,0-6.606,4.481,4.481,0,0,0-6.426,0,4.751,4.751,0,0,0,0,6.606,4.312,4.312,0,0,0,3.213,1.358m-29.031,0a4.317,4.317,0,0,0,3.213-1.358,4.751,4.751,0,0,0,0-6.606,4.481,4.481,0,0,0-6.426,0,4.75,4.75,0,0,0,0,6.606A4.312,4.312,0,0,0,145.712,46.661Zm-22.4,0A4.319,4.319,0,0,0,126.53,45.3a4.752,4.752,0,0,0,0-6.606,4.481,4.481,0,0,0-6.426,0,4.751,4.751,0,0,0,0,6.606A4.312,4.312,0,0,0,123.317,46.661Zm33.937-.694a1.872,1.872,0,0,1,.9.237,1.769,1.769,0,0,1,.7.7,1.837,1.837,0,0,1,.006,1.848,1.762,1.762,0,0,1-.692.693,1.84,1.84,0,0,1-1.846,0,1.779,1.779,0,0,1-.691-.692,1.884,1.884,0,0,1-.246-.918,1.915,1.915,0,0,1,.245-.927,1.72,1.72,0,0,1,.707-.7A1.9,1.9,0,0,1,157.254,45.966ZM174.743,34.3a7.257,7.257,0,0,1,5.355,2.268,7.759,7.759,0,0,1,0,10.87,7.49,7.49,0,0,1-10.706,0,7.751,7.751,0,0,1,0-10.87A7.237,7.237,0,0,1,174.743,34.3Zm-11.149,0a1.541,1.541,0,0,1,1.518,1.522V48.183a1.433,1.433,0,0,1-.451,1.067,1.52,1.52,0,0,1-2.589-1.067V35.821a1.539,1.539,0,0,1,1.522-1.522Zm0-4.991a1.869,1.869,0,0,1,.9.236,1.768,1.768,0,0,1,.7.7,1.837,1.837,0,0,1,.006,1.848,1.762,1.762,0,0,1-.693.693,1.845,1.845,0,0,1-1.845,0,1.781,1.781,0,0,1-.691-.693,1.883,1.883,0,0,1-.246-.918,1.913,1.913,0,0,1,.245-.926,1.723,1.723,0,0,1,.707-.7A1.9,1.9,0,0,1,163.594,29.308ZM145.712,34.3a7.257,7.257,0,0,1,5.355,2.268,7.761,7.761,0,0,1,0,10.87,7.49,7.49,0,0,1-10.705,0,7.75,7.75,0,0,1,0-10.87A7.236,7.236,0,0,1,145.712,34.3Zm-11.193-5.018a1.517,1.517,0,0,1,1.509,1.522v17.38a1.495,1.495,0,0,1-1.509,1.5,1.506,1.506,0,0,1-1.08-.438A1.458,1.458,0,0,1,133,48.183V30.8a1.461,1.461,0,0,1,.437-1.071A1.481,1.481,0,0,1,134.519,29.281Zm-11.2,5.018a7.257,7.257,0,0,1,5.355,2.268,7.76,7.76,0,0,1,0,10.87,7.49,7.49,0,0,1-10.705,0,7.75,7.75,0,0,1,0-10.87A7.236,7.236,0,0,1,123.317,34.3ZM109.931,49.688a5.288,5.288,0,0,1-2.984-.941,6.288,6.288,0,0,1-1.882-1.939,1.434,1.434,0,0,1-.179-1.132,1.48,1.48,0,0,1,1.814-1.134,1.462,1.462,0,0,1,.94.68,3.271,3.271,0,0,0,.967.976,2.358,2.358,0,0,0,1.324.461,1.892,1.892,0,0,0,1.313-.484,1.383,1.383,0,0,0,.532-1.1,1.1,1.1,0,0,0-.4-.942,7.145,7.145,0,0,0-1.864-.7,9.29,9.29,0,0,1-2.85-1.2,3.886,3.886,0,0,1-1.615-3.334,4.333,4.333,0,0,1,1.444-3.265,4.846,4.846,0,0,1,3.437-1.342,5.013,5.013,0,0,1,2.674.75,4.6,4.6,0,0,1,1.79,2.015,1.514,1.514,0,1,1-2.751,1.263,1.637,1.637,0,0,0-.658-.726,2.076,2.076,0,0,0-1.056-.276,1.932,1.932,0,0,0-1.323.481,1.4,1.4,0,0,0-.517,1.1,1.086,1.086,0,0,0,.365.912,7.786,7.786,0,0,0,1.871.693,9.4,9.4,0,0,1,2.863,1.2,3.948,3.948,0,0,1,1.614,3.369,4.342,4.342,0,0,1-1.43,3.27A4.857,4.857,0,0,1,109.931,49.688Z" transform="translate(-59.337 -16.572)" fill="#adb3bc"/>
  <path id="Path_3897" data-name="Path 3897" d="M19.848,1.251C20.681.058,21.486-.358,22.01.337A8.784,8.784,0,0,0,28.618,3.9,8.785,8.785,0,0,0,35.227.337c.523-.695,1.329-.28,2.162.913,3.833,5.484,4.352,10.9,1.945,14.615,4.728,4.8,3.415,11.377,1.715,14.547-.73,1.362-1.015,1.259-1.823.529-.25-.226-.541-.49-.868-.789A21.54,21.54,0,0,1,36.8,34.462c-.983,2.072-3.132,2.423-3.253-.02H23.687c-.121,2.443-2.271,2.092-3.253.02a21.513,21.513,0,0,1-1.556-4.309c-.327.3-.618.563-.868.789-.807.73-1.092.833-1.823-.529-1.7-3.171-3.013-9.746,1.715-14.547C15.5,12.148,16.015,6.735,19.848,1.251" transform="translate(-8.281 0)" fill="#adb3bc" fill-rule="evenodd"/>
  <path id="Path_3898" data-name="Path 3898" d="M34.152,3.9A8.785,8.785,0,0,0,40.76.337c.523-.695,1.329-.28,2.162.913,3.833,5.484,4.352,10.9,1.945,14.615,4.728,4.8,3.415,11.377,1.715,14.547-.73,1.362-1.015,1.259-1.823.529-.25-.226-.541-.49-.868-.789a21.54,21.54,0,0,1-1.556,4.309c-.983,2.072-3.132,2.423-3.253-.02H34.152V20.2c0-.422.257-.748-1.276-.934-3.605-.437-6.98-2.659-8.117-5.829a5.894,5.894,0,0,1-.349-1.994,4.075,4.075,0,0,1,1.7-3.346,4.415,4.415,0,0,1,6.323,1.194,10.154,10.154,0,0,1,.985,4.137c.056.516.1,1.063.187,1.572.042.239.108.573.352.688.132.062.046.041.2.041Z" transform="translate(-13.815 0)" fill="#adb3bc" fill-rule="evenodd"/>
  <path id="Path_3899" data-name="Path 3899" d="M33.754,85.385c-.112.252-.424,1.883-.8,2.127-1.372.884-5.372-8.942-5.633-10.036a106.58,106.58,0,0,1,16.964-.01c-.256,1.074-4.248,10.94-5.637,10.046-.379-.244-.69-1.875-.8-2.127-.2.6-1.042,4.337-2.149,4.083-1.083-.25-1.681-3.306-1.939-4.083" transform="translate(-15.461 -43.655)" fill="#adb3bc" fill-rule="evenodd"/>
  <path id="Path_3900" data-name="Path 3900" d="M36.4,77.134c3.04,0,6.079.108,8.484.333a26.77,26.77,0,0,1-.955,2.543l-.007.015h0l-.007.016-.007.017-.007.016-.007.016-.007.017-.007.016-.013.033-.007.017-.007.016-.007.017-.007.016,0,.011,0,.006-.007.017-.007.017-.007.017-.007.017-.007.017-.007.017-.007.017-.014.034-.007.017-.007.017-.007.017,0,.006,0,.011-.007.017-.007.017-.015.034-.007.017-.015.035-.007.017-.007.017-.007.017-.007.018-.007.017h0l-.007.016-.007.017-.007.018-.068.158-.006.014,0,0-.008.018-.008.018-.03.072-.008.018-.031.072-.008.018c-1.36,3.12-3.32,6.972-4.212,6.4-.379-.245-.691-1.876-.8-2.128-.194.583-.989,4.1-2.044,4.094V81c0-.533-.063-1.262-1.369-1.23a60.047,60.047,0,0,0-6.029.548c-.169-.387-.469-1.165-.617-1.519a69.048,69.048,0,0,1,8-.456H36.4Z" transform="translate(-16.068 -43.655)" fill="#adb3bc" fill-rule="evenodd"/>
  <path id="Path_3901" data-name="Path 3901" d="M34.152,26.509a11.062,11.062,0,0,0,1.557-.112c3.788-.541,8.185-3.31,8.185-7.566a4.076,4.076,0,0,0-1.7-3.346,4.414,4.414,0,0,0-6.323,1.194,10.153,10.153,0,0,0-.985,4.136c-.056.516-.1,1.063-.188,1.572-.042.239-.108.573-.352.688-.132.063-.046.042-.2.042s-.064.021-.2-.042c-.244-.115-.31-.449-.352-.688-.09-.51-.132-1.056-.187-1.572a10.152,10.152,0,0,0-.985-4.136,4.414,4.414,0,0,0-6.323-1.194,4.076,4.076,0,0,0-1.7,3.346,5.894,5.894,0,0,0,.349,1.994c1.3,3.635,5.722,5.685,9.393,5.685" transform="translate(-13.815 -8.287)" fill="#fff" fill-rule="evenodd"/>
  <path id="Path_3902" data-name="Path 3902" d="M46.856,26.509a11.057,11.057,0,0,0,1.557-.112c3.788-.542,8.185-3.31,8.185-7.566a4.076,4.076,0,0,0-1.7-3.346,4.414,4.414,0,0,0-6.323,1.194,10.152,10.152,0,0,0-.985,4.136c-.056.516-.1,1.063-.188,1.572-.042.239-.108.573-.352.688-.132.063-.046.042-.2.042Z" transform="translate(-26.519 -8.287)" fill="#fff" fill-rule="evenodd"/>
  <path id="Path_3903" data-name="Path 3903" d="M34.184,20.528a1.863,1.863,0,1,1-1.863,1.863,1.863,1.863,0,0,1,1.863-1.863m8.891,0a1.863,1.863,0,1,1-1.863,1.863A1.863,1.863,0,0,1,43.075,20.528Z" transform="translate(-18.293 -11.618)" fill="#adb3bc" fill-rule="evenodd"/>
  <path id="Path_3904" data-name="Path 3904" d="M37.28,22.375a.54.54,0,1,1-.54.54.54.54,0,0,1,.54-.54" transform="translate(-20.794 -12.664)" fill="#fff" fill-rule="evenodd"/>
  <path id="Path_3905" data-name="Path 3905" d="M57.829,22.375a.54.54,0,1,1-.54.54.539.539,0,0,1,.54-.54" transform="translate(-32.424 -12.664)" fill="#fff" fill-rule="evenodd"/>
  <path id="Path_3906" data-name="Path 3906" d="M35.279,46.4A5.045,5.045,0,0,0,30.236,51.3c-.076,0-.154-.008-.231-.008A3.6,3.6,0,0,0,30,58.5H40.553a3.6,3.6,0,0,0,0-7.208,3.528,3.528,0,0,0-2.478.921,4.17,4.17,0,0,1,2.088-2.042A5.046,5.046,0,0,0,35.279,46.4" transform="translate(-14.942 -26.259)" fill="#fff" fill-rule="evenodd"/>
  <path id="Path_3907" data-name="Path 3907" d="M1.186,68.513a2.753,2.753,0,0,1,1.915-2.3c.576.434,1.159.859,1.757,1.263a31.632,31.632,0,0,0,2.866,1.7c1.593.845,2.09,1.345,3.992,1.049a56.551,56.551,0,0,1,8.668-.657,55.589,55.589,0,0,1,10.854,1.043,42.686,42.686,0,0,1,9.413,2.976,2.612,2.612,0,0,1-1.235,2.722,39.729,39.729,0,0,0-8.763-2.761,52.613,52.613,0,0,0-10.269-.984,52.609,52.609,0,0,0-10.269.984,39.718,39.718,0,0,0-8.773,2.766A2.092,2.092,0,0,1,.1,73.6a39.2,39.2,0,0,1,5-1.881l.656-.2-.591-.348a41.446,41.446,0,0,1-3.986-2.655" transform="translate(0 -37.474)" fill="#adb3bc" fill-rule="evenodd"/>
  <path id="Path_3908" data-name="Path 3908" d="M2.732,70.193a3.024,3.024,0,0,1,.533-1.32,39.949,39.949,0,0,0,5.863,3.872L7.309,73.2l-.591-.348a41.417,41.417,0,0,1-3.986-2.656" transform="translate(-1.546 -38.98)" fill="#adb3bc" fill-rule="evenodd"/>
  <path id="Path_3909" data-name="Path 3909" d="M40.679,82.223a2.223,2.223,0,0,1-.926.919,39.729,39.729,0,0,0-8.763-2.761A52.61,52.61,0,0,0,20.721,79.4a52.609,52.609,0,0,0-10.269.984,39.717,39.717,0,0,0-8.773,2.766A2.231,2.231,0,0,1,.6,82.264c4.619-2.421,11.895-3.982,20.081-3.982,8.14,0,15.38,1.544,20,3.941" transform="translate(-0.337 -44.305)" fill="#adb3bc" fill-rule="evenodd"/>
</svg>
