<svg xmlns="http://www.w3.org/2000/svg" width="26.047" height="26.028" viewBox="0 0 26.047 26.028"><defs><style>.userHoverA{fill:#0f7fb1;}.userHoverB{fill:#fff;}</style></defs><g transform="translate(-1011.499 -9.19)"><circle class="userHoverA" cx="13" cy="13" r="13" transform="translate(1011.499 9.218)"/><g transform="translate(998.206 -5.15)"><g transform="translate(13.34 14.34)"><path class="userHoverB" d="M26.34,14.34a13,13,0,1,0,13,13A13.015,13.015,0,0,0,26.34,14.34Zm0,24.906a11.851,11.851,0,0,1-7.581-2.732,5.949,5.949,0,0,1,5.563-3.924h4A5.958,5.958,0,0,1,33.9,36.533,11.851,11.851,0,0,1,26.34,39.246Zm8.422-3.5A7.059,7.059,0,0,0,28.32,31.5h-4a7.049,7.049,0,0,0-6.424,4.23,11.906,11.906,0,1,1,16.864.02Z" transform="translate(-13.34 -14.34)"/><path class="userHoverB" d="M39.963,31.7a5.184,5.184,0,1,0,5.184,5.184A5.19,5.19,0,0,0,39.963,31.7Zm0,9.275a4.091,4.091,0,1,1,4.091-4.091A4.1,4.1,0,0,1,39.963,40.972Z" transform="translate(-26.963 -25.369)"/></g></g></g></svg>